<svg xmlns="http://www.w3.org/2000/svg" width="30" height="31" viewBox="0 0 30 31" fill="none">
    <path d="M16.564 14.561L17.4214 14.0639L18.3078 13.5505L19.197 13.0356C19.3909 12.9236 19.5696 12.8211 19.7367 12.7296M19.4928 13.2798L18.0759 14.1004M22.8489 12.1355C21.7378 11.57 21.0944 11.6204 19.8773 12.2472C19.775 12.2995 19.6693 12.3561 19.5582 12.4171C19.4691 12.4655 19.3766 12.5176 19.2806 12.5711C19.1633 12.6379 19.0405 12.7084 18.9122 12.7826L16.7593 14.0298L15.9081 14.5232L15.9074 14.5232L15.0741 15.0062L15.0334 15.0299L15.023 15.0358L15.0099 15.0433L15.0072 15.0448L15.0556 15.0693L15.1518 15.117L15.7431 15.4114L16.732 15.904L19.3923 17.2292L19.6751 17.3697L20.0021 17.5328L20.411 17.7364C21.1267 18.15 22.1734 18.0445 23.0267 17.5504L27.9127 14.72C27.9127 14.72 24.2215 12.8345 22.8496 12.1355L22.8489 12.1355Z" stroke="#0096FF" stroke-miterlimit="10"/>
    <path d="M26.1054 14.6668L22.5418 16.7316C21.9196 17.0914 21.1562 17.1687 20.6341 16.8673L16.6929 14.9036L18.076 14.1023L19.4929 13.2817L19.5419 13.2535C20.9319 12.4485 21.4122 12.2723 22.4128 12.7821C23.4135 13.2919 26.1054 14.6668 26.1054 14.6668Z" stroke="#0096FF" stroke-miterlimit="10"/>
    <path d="M19.7354 12.7302C20.9886 12.0425 21.5554 11.9431 22.6031 12.4768C23.7904 13.0815 26.9856 14.7141 26.9856 14.7141L22.7563 17.1639C22.0175 17.5913 21.1114 17.6827 20.4922 17.3245L19.8125 16.9857L19.442 16.8014L19.4413 16.8014L17.6673 15.917L17.6652 15.9171L16.6742 15.4225L16.6728 15.4225L15.815 14.9949L16.5627 14.5616" stroke="#0096FF" stroke-miterlimit="10"/>
    <path d="M19.4949 13.2795L18.078 14.1" stroke="#0096FF" stroke-miterlimit="10"/>
    <path d="M16.6779 15.4217L16.6758 15.4207" stroke="#0096FF" stroke-miterlimit="10"/>
    <path d="M15.1523 15.116L15.2516 15.4055L15.2538 15.4097" stroke="#0096FF" stroke-miterlimit="10"/>
    <path d="M20.0027 17.5332C20.3585 18.6096 21.0025 20.5649 21.0025 20.5649L17.7153 19.7022" stroke="#0096FF" stroke-miterlimit="10"/>
    <path d="M19.3925 17.2293C19.3979 17.2439 19.4025 17.2586 19.4079 17.2739C19.6294 17.9423 20.2223 19.7429 20.2223 19.7429L17.7295 19.0883C17.5534 19.0423 17.3876 18.9658 17.2463 18.8653" stroke="#0096FF" stroke-miterlimit="10"/>
    <path d="M16.6708 17.868L16.6708 17.8673L15.9297 15.6941L16.7327 15.9047" stroke="#0096FF" stroke-miterlimit="10"/>
    <path d="M19.4462 16.7993L19.4453 16.7996" stroke="#0096FF" stroke-miterlimit="10"/>
    <path d="M17.6711 15.9177L17.668 15.9167" stroke="#0096FF" stroke-miterlimit="10"/>
    <path d="M15.7448 15.4105L15.7441 15.4105L15.5 15.3462L15.9071 16.5407" stroke="#0096FF" stroke-miterlimit="10"/>
    <path d="M19.676 17.3691C19.967 18.2499 20.5939 20.1522 20.5939 20.1522L17.6349 19.3759C17.5953 19.3659 17.557 19.3537 17.5188 19.3408L17.5181 19.3408" stroke="#0096FF" stroke-miterlimit="10"/>
    <path d="M16.8955 18.9763L16.8945 18.9753" stroke="#0096FF" stroke-miterlimit="10"/>
    <path d="M10.5017 12.4349L9.66406 8.9834L12.3213 9.94528C12.4036 9.97514 12.4816 10.0037 12.5569 10.0317L12.5576 10.0317" stroke="#0096FF" stroke-miterlimit="10"/>
    <path d="M14.0078 10.9792C14.0285 11.0152 14.0465 11.0533 14.0646 11.0936L14.0646 11.0957" stroke="#0096FF" stroke-miterlimit="10"/>
    <path d="M13.0908 14.3462L13.0898 14.3464" stroke="#0096FF" stroke-miterlimit="10"/>
    <path d="M14.6175 13.281L14.6172 13.28" stroke="#0096FF" stroke-miterlimit="10"/>
    <path d="M15.0139 14.9942C15.018 15.0117 15.0212 15.0249 15.0228 15.0333C15.0252 15.0424 15.026 15.0466 15.026 15.0466L15.0097 15.0408L14.9955 15.0356L14.9941 15.0356L14.9934 15.0349" stroke="#0096FF" stroke-miterlimit="10"/>
    <path d="M11.3211 12.9045L11.3204 12.9045C11.1883 12.7601 11.097 12.5955 11.0658 12.4214L10.4141 9.73706L12.3525 10.4387C12.5462 10.5088 12.7123 10.5713 12.8552 10.6323" stroke="#0096FF" stroke-miterlimit="10"/>
    <path d="M12.0875 13.3494L12.0896 13.3494L14.321 14.1567C14.321 14.1567 14.2082 13.6721 14.0769 13.1064" stroke="#0096FF" stroke-miterlimit="10"/>
    <path d="M11.6111 13.4855L11.6075 13.4835C11.5221 13.4432 11.44 13.3958 11.364 13.3425L11.3633 13.3425" stroke="#0096FF" stroke-miterlimit="10"/>
    <path d="M13.2901 10.6013L13.2891 10.6003" stroke="#0096FF" stroke-miterlimit="10"/>
    <path d="M13.5644 14.2044L14.6571 14.6003C14.6571 14.6003 14.5982 14.3468 14.5136 13.9816" stroke="#0096FF" stroke-miterlimit="10"/>
    <path d="M14.1133 12.2646L14.1134 12.2668" stroke="#0096FF" stroke-miterlimit="10"/>
    <path d="M10.803 12.6023C10.7975 12.5799 10.7926 12.5576 10.7884 12.5352L10.0156 9.35034L12.3152 10.1824C12.4578 10.2336 12.587 10.2818 12.7056 10.3281" stroke="#0096FF" stroke-miterlimit="10"/>
    <path d="M10.0758 17.4938L8.96947 20.5505L11.7154 19.8845C12.1404 19.7816 12.4711 19.6936 12.7348 19.5921" stroke="#0096FF" stroke-miterlimit="10"/>
    <path d="M13.0204 15.5806L13.0195 15.5808" stroke="#0096FF" stroke-miterlimit="10"/>
    <path d="M14.794 15.1511L14.7947 15.1511L14.9591 15.1109C14.9591 15.1109 14.9591 15.1109 14.9592 15.1131L14.9572 15.118" stroke="#0096FF" stroke-miterlimit="10"/>
    <path d="M12.3821 16.3494L14.1631 15.9179C14.1631 15.9179 13.5359 17.7069 13.3018 18.3715C13.0684 19.0361 12.7746 19.1638 11.7971 19.4008L9.79463 19.8868L10.7344 17.2902C10.7497 17.2377 10.7713 17.1864 10.7979 17.1371" stroke="#0096FF" stroke-miterlimit="10"/>
    <path d="M10.4058 17.3317L9.35914 20.2241L11.7364 19.6473C12.2736 19.5172 12.6369 19.4141 12.8997 19.2626" stroke="#0096FF" stroke-miterlimit="10"/>
    <path d="M14.0209 17.0038L14.0208 17.0017C14.2879 16.2404 14.5433 15.5133 14.5433 15.5133L13.6082 15.7399L13.6075 15.7399" stroke="#0096FF" stroke-miterlimit="10"/>
    <path d="M11.8329 16.1704L11.832 16.1707" stroke="#0096FF" stroke-miterlimit="10"/>
    <path d="M16.0354 11.7888L16.0352 11.7878" stroke="#0096FF" stroke-miterlimit="10"/>
    <path d="M15.5901 13.2849L15.5898 13.2839" stroke="#0096FF" stroke-miterlimit="10"/>
    <path d="M15.1428 14.7738L15.1429 14.7745L15.0733 15.0073" stroke="#0096FF" stroke-miterlimit="10"/>
    <path d="M17.3173 10.2837L17.3164 10.2839" stroke="#0096FF" stroke-miterlimit="10"/>
    <path d="M17.8014 10.1371L20.7441 9.24502C20.7441 9.24502 20.1955 11.1484 19.8769 12.2488" stroke="#0096FF" stroke-miterlimit="10"/>
    <path d="M16.7354 10.5847L16.7344 10.5857" stroke="#0096FF" stroke-miterlimit="10"/>
    <path d="M17.3849 10.8947C17.432 10.8743 17.4799 10.8574 17.5286 10.8426L19.9962 10.095C19.9962 10.095 19.4813 11.8799 19.2802 12.5716" stroke="#0096FF" stroke-miterlimit="10"/>
    <path d="M16.3363 12.7134L15.8597 14.3045L16.7604 14.0312L16.7611 14.0311" stroke="#0096FF" stroke-miterlimit="10"/>
    <path d="M17.0829 10.7017L17.082 10.7019" stroke="#0096FF" stroke-miterlimit="10"/>
    <path d="M17.6045 10.5049L20.3503 9.67289C20.3503 9.67289 19.8226 11.5018 19.5568 12.4198" stroke="#0096FF" stroke-miterlimit="10"/>
    <path d="M15.9066 14.5262L15.9059 14.5262L15.4392 14.6676L15.6919 13.8259L15.6931 13.8224" stroke="#0096FF" stroke-miterlimit="10"/>
    <path d="M16.1368 12.3379L16.1378 12.3347" stroke="#0096FF" stroke-miterlimit="10"/>
    <path d="M15.0071 15.0407L9.60026 17.728C8.88416 18.1406 7.8374 18.0344 6.98532 17.5398L2.10279 14.7052C2.10279 14.7052 5.79536 12.8222 7.16824 12.1253C8.54111 11.4277 9.19893 11.6694 11.1045 12.7756L15.0078 15.0414L15.0071 15.0407Z" stroke="#0096FF" stroke-miterlimit="10"/>
    <path d="M13.3206 14.8977L9.37696 16.8572C8.85473 17.1584 8.09165 17.081 7.46956 16.72L3.90838 14.6527C3.90838 14.6527 6.60213 13.2795 7.60309 12.7711C8.60406 12.2626 9.08446 12.4387 10.4737 13.2454L13.3206 14.8984L13.3206 14.8977Z" stroke="#0096FF" stroke-miterlimit="10"/>
    <path d="M14.2032 14.9902L9.52314 17.3158C8.90365 17.6735 7.99766 17.5813 7.25915 17.1529L3.03301 14.6993C3.03301 14.6993 6.22928 13.0696 7.41759 12.4662C8.60587 11.8621 9.17569 12.0713 10.8242 13.0292L14.2025 14.9902L14.2032 14.9902Z" stroke="#0096FF" stroke-miterlimit="10"/>
    <path d="M17.272 18.9082C18.3736 20.818 18.6145 21.4781 17.9167 22.853C17.2195 24.2278 15.3364 27.9263 15.3364 27.9263L12.512 23.0304C12.0189 22.1754 11.9137 21.1265 12.3267 20.4094L15.0139 14.9938L17.2712 18.9075L17.272 18.9082Z" stroke="#0096FF" stroke-miterlimit="10"/>
    <path d="M16.8039 19.5383C17.6079 20.9317 17.7831 21.4124 17.2741 22.4152C16.7651 23.4179 15.3925 26.1157 15.3925 26.1157L13.3328 22.5449C12.973 21.9214 12.8967 21.1565 13.1976 20.6333L15.1574 16.6836L16.8039 19.5383Z" stroke="#0096FF" stroke-miterlimit="10"/>
    <path d="M17.0197 19.1957C17.9733 20.8491 18.1821 21.4201 17.5776 22.61C16.9739 23.7999 15.344 27.002 15.344 27.002L12.8994 22.7641C12.4729 22.0245 12.3818 21.1166 12.7387 20.4953L15.0645 15.8074L17.019 19.195L17.0197 19.1957Z" stroke="#0096FF" stroke-miterlimit="10"/>
    <path d="M15.0147 14.9972L12.3333 9.57942C11.9215 8.86188 12.0276 7.81291 12.5214 6.95899L15.3513 2.06591C15.3513 2.06591 17.2303 5.76594 17.9257 7.1416C18.6218 8.51724 18.3804 9.17646 17.2761 11.0862L15.0141 14.9979L15.0147 14.9972Z" stroke="#0096FF" stroke-miterlimit="10"/>
    <path d="M15.1601 13.3074L13.2049 9.35579C12.9042 8.83251 12.9816 8.06782 13.342 7.44439L15.4058 3.87551C15.4058 3.87551 16.7761 6.5747 17.2834 7.57769C17.7908 8.58068 17.615 9.06211 16.8096 10.4543L15.1594 13.3074L15.1601 13.3074Z" stroke="#0096FF" stroke-miterlimit="10"/>
    <path d="M15.0668 14.1915L12.7462 9.50196C12.3893 8.88122 12.4814 7.97333 12.9091 7.23322L15.3587 2.99794C15.3587 2.99794 16.9848 6.20068 17.5869 7.39139C18.1897 8.58207 17.9808 9.15311 17.0246 10.8052L15.0668 14.1908L15.0668 14.1915Z" stroke="#0096FF" stroke-miterlimit="10"/>
</svg>