<svg width="288" height="152" viewBox="0 0 288 152" fill="none" xmlns="http://www.w3.org/2000/svg">
<rect y="0.0065918" width="288" height="152" rx="10" fill="white"/>
<circle cx="84" cy="76.0066" r="57.5" stroke="#E6F4FF" stroke-width="5"/>
<mask id="path-3-inside-1_2194_35566" fill="white">
<path d="M84 18.5411C84 17.1413 85.1353 16.001 86.5338 16.0601C99.5116 16.6084 111.987 21.3567 122.064 29.626C132.794 38.4322 140.139 50.6866 142.847 64.3012C145.555 77.9158 143.459 92.0482 136.915 104.29C130.372 116.533 119.786 126.127 106.961 131.439C94.1363 136.752 79.8665 137.453 66.5829 133.423C53.2993 129.393 41.8239 120.883 34.1118 109.341C26.3998 97.7989 22.9283 83.94 24.2889 70.1255C25.5666 57.1534 31.0308 44.974 39.8198 35.4097C40.7669 34.379 42.376 34.3825 43.3657 35.3723C44.3555 36.3621 44.3507 37.963 43.4076 38.9974C35.4458 47.7297 30.4961 58.8174 29.3334 70.6224C28.0878 83.2698 31.266 95.9578 38.3265 106.525C45.387 117.091 55.893 124.883 68.0543 128.572C80.2157 132.261 93.28 131.62 105.021 126.756C116.762 121.893 126.454 113.109 132.445 101.901C138.436 90.6929 140.355 77.7545 137.876 65.2901C135.396 52.8257 128.672 41.6065 118.848 33.5443C109.678 26.0191 98.3382 21.6788 86.5337 21.134C85.1355 21.0694 84 19.9408 84 18.5411Z"/>
</mask>
<path d="M84 18.5411C84 17.1413 85.1353 16.001 86.5338 16.0601C99.5116 16.6084 111.987 21.3567 122.064 29.626C132.794 38.4322 140.139 50.6866 142.847 64.3012C145.555 77.9158 143.459 92.0482 136.915 104.29C130.372 116.533 119.786 126.127 106.961 131.439C94.1363 136.752 79.8665 137.453 66.5829 133.423C53.2993 129.393 41.8239 120.883 34.1118 109.341C26.3998 97.7989 22.9283 83.94 24.2889 70.1255C25.5666 57.1534 31.0308 44.974 39.8198 35.4097C40.7669 34.379 42.376 34.3825 43.3657 35.3723C44.3555 36.3621 44.3507 37.963 43.4076 38.9974C35.4458 47.7297 30.4961 58.8174 29.3334 70.6224C28.0878 83.2698 31.266 95.9578 38.3265 106.525C45.387 117.091 55.893 124.883 68.0543 128.572C80.2157 132.261 93.28 131.62 105.021 126.756C116.762 121.893 126.454 113.109 132.445 101.901C138.436 90.6929 140.355 77.7545 137.876 65.2901C135.396 52.8257 128.672 41.6065 118.848 33.5443C109.678 26.0191 98.3382 21.6788 86.5337 21.134C85.1355 21.0694 84 19.9408 84 18.5411Z" stroke="url(#paint0_linear_2194_35566)" stroke-width="10" stroke-linecap="round" stroke-linejoin="round" mask="url(#path-3-inside-1_2194_35566)"/>
<circle cx="84" cy="76.5066" r="42.9142" stroke="#E6F4FF" stroke-width="4.17153"/>
<mask id="path-5-inside-2_2194_35566" fill="white">
<path d="M84 33.9675C84 32.6084 85.1028 31.4996 86.4599 31.5738C95.7139 32.0803 104.609 35.4346 111.91 41.2076C119.856 47.4907 125.45 56.2711 127.787 66.1282C130.123 75.9853 129.066 86.3425 124.785 95.5239C120.504 104.705 113.251 112.174 104.199 116.721C95.1468 121.268 84.8252 122.628 74.9043 120.58C64.9834 118.533 56.0435 113.197 49.5312 105.438C43.0189 97.6783 39.3151 87.9484 39.0192 77.8225C38.7473 68.5184 41.3671 59.38 46.4858 51.6538C47.2365 50.5208 48.7844 50.2981 49.8746 51.1096C50.9649 51.921 51.184 53.4588 50.441 54.5968C45.9795 61.4301 43.6992 69.4822 43.9387 77.6787C44.2023 86.6972 47.501 95.3629 53.301 102.274C59.1011 109.185 67.0632 113.936 75.8991 115.76C84.7349 117.584 93.9276 116.373 101.99 112.323C110.052 108.273 116.512 101.621 120.324 93.4441C124.137 85.2669 125.079 76.0425 122.998 67.2634C120.917 58.4844 115.935 50.6643 108.857 45.0684C102.425 39.9826 94.6047 37.0045 86.4594 36.5039C85.1029 36.4205 84 35.3266 84 33.9675Z"/>
</mask>
<path d="M84 33.9675C84 32.6084 85.1028 31.4996 86.4599 31.5738C95.7139 32.0803 104.609 35.4346 111.91 41.2076C119.856 47.4907 125.45 56.2711 127.787 66.1282C130.123 75.9853 129.066 86.3425 124.785 95.5239C120.504 104.705 113.251 112.174 104.199 116.721C95.1468 121.268 84.8252 122.628 74.9043 120.58C64.9834 118.533 56.0435 113.197 49.5312 105.438C43.0189 97.6783 39.3151 87.9484 39.0192 77.8225C38.7473 68.5184 41.3671 59.38 46.4858 51.6538C47.2365 50.5208 48.7844 50.2981 49.8746 51.1096C50.9649 51.921 51.184 53.4588 50.441 54.5968C45.9795 61.4301 43.6992 69.4822 43.9387 77.6787C44.2023 86.6972 47.501 95.3629 53.301 102.274C59.1011 109.185 67.0632 113.936 75.8991 115.76C84.7349 117.584 93.9276 116.373 101.99 112.323C110.052 108.273 116.512 101.621 120.324 93.4441C124.137 85.2669 125.079 76.0425 122.998 67.2634C120.917 58.4844 115.935 50.6643 108.857 45.0684C102.425 39.9826 94.6047 37.0045 86.4594 36.5039C85.1029 36.4205 84 35.3266 84 33.9675Z" stroke="url(#paint1_linear_2194_35566)" stroke-width="13.9051" stroke-linecap="round" stroke-linejoin="round" mask="url(#path-5-inside-2_2194_35566)"/>
<circle cx="84" cy="76.5066" r="27.9142" stroke="#E6F4FF" stroke-width="4.17153"/>
<mask id="path-7-inside-3_2194_35566" fill="white">
<path d="M84 48.5692C84 47.43 84.9246 46.4992 86.0611 46.5774C92.2636 47.0045 98.1996 49.3506 103.032 53.3163C108.397 57.7194 112.07 63.8466 113.424 70.6539C114.778 77.4612 113.729 84.5274 110.458 90.6485C107.186 96.7696 101.893 101.567 95.4805 104.223C89.0682 106.879 81.9332 107.23 75.2915 105.215C68.6497 103.2 62.9119 98.9446 59.0559 93.1737C55.1999 87.4027 53.4642 80.4733 54.1445 73.5661C54.7572 67.345 57.2956 61.4887 61.3795 56.8009C62.1278 55.942 63.4398 55.9464 64.2453 56.7518C65.0507 57.5573 65.0436 58.8583 64.3048 59.7254C60.8909 63.732 58.7689 68.6994 58.2497 73.9704C57.663 79.9279 59.16 85.9045 62.4858 90.8819C65.8116 95.8593 70.7604 99.5296 76.4889 101.267C82.2174 103.005 88.3713 102.703 93.9019 100.412C99.4325 98.121 103.998 93.9833 106.82 88.7039C109.641 83.4245 110.546 77.3299 109.378 71.4587C108.21 65.5874 105.042 60.3027 100.415 56.5051C96.3206 53.145 91.3076 51.133 86.0605 50.7139C84.925 50.6232 84 49.7083 84 48.5692Z"/>
</mask>
<path d="M84 48.5692C84 47.43 84.9246 46.4992 86.0611 46.5774C92.2636 47.0045 98.1996 49.3506 103.032 53.3163C108.397 57.7194 112.07 63.8466 113.424 70.6539C114.778 77.4612 113.729 84.5274 110.458 90.6485C107.186 96.7696 101.893 101.567 95.4805 104.223C89.0682 106.879 81.9332 107.23 75.2915 105.215C68.6497 103.2 62.9119 98.9446 59.0559 93.1737C55.1999 87.4027 53.4642 80.4733 54.1445 73.5661C54.7572 67.345 57.2956 61.4887 61.3795 56.8009C62.1278 55.942 63.4398 55.9464 64.2453 56.7518C65.0507 57.5573 65.0436 58.8583 64.3048 59.7254C60.8909 63.732 58.7689 68.6994 58.2497 73.9704C57.663 79.9279 59.16 85.9045 62.4858 90.8819C65.8116 95.8593 70.7604 99.5296 76.4889 101.267C82.2174 103.005 88.3713 102.703 93.9019 100.412C99.4325 98.121 103.998 93.9833 106.82 88.7039C109.641 83.4245 110.546 77.3299 109.378 71.4587C108.21 65.5874 105.042 60.3027 100.415 56.5051C96.3206 53.145 91.3076 51.133 86.0605 50.7139C84.925 50.6232 84 49.7083 84 48.5692Z" stroke="url(#paint2_linear_2194_35566)" stroke-width="13.9051" stroke-linecap="round" stroke-linejoin="round" mask="url(#path-7-inside-3_2194_35566)"/>
<path d="M170.752 49.0066L181.664 28.4626V29.8706H169.76V26.4466H185.472V29.5186L175.264 49.0066H170.752ZM196.788 49.3266C195.017 49.3266 193.513 48.8786 192.276 47.9826C191.06 47.0653 190.132 45.7426 189.492 44.0146C188.873 42.2866 188.564 40.1746 188.564 37.6786C188.564 35.1613 188.873 33.0493 189.492 31.3426C190.132 29.6146 191.06 28.3133 192.276 27.4386C193.513 26.5639 195.017 26.1266 196.788 26.1266C198.58 26.1266 200.084 26.5639 201.3 27.4386C202.537 28.3133 203.465 29.6039 204.083 31.3106C204.702 33.0173 205.012 35.1293 205.012 37.6466C205.012 40.1426 204.692 42.2653 204.052 44.0146C203.433 45.7426 202.516 47.0653 201.3 47.9826C200.084 48.8786 198.58 49.3266 196.788 49.3266ZM196.788 45.9666C198.238 45.9666 199.305 45.3053 199.988 43.9826C200.692 42.6386 201.044 40.5266 201.044 37.6466C201.044 34.7879 200.692 32.7186 199.988 31.4386C199.305 30.1373 198.238 29.4866 196.788 29.4866C195.358 29.4866 194.292 30.1373 193.588 31.4386C192.884 32.7186 192.532 34.7986 192.532 37.6786C192.532 40.5373 192.884 42.6386 193.588 43.9826C194.292 45.3053 195.358 45.9666 196.788 45.9666ZM211.303 49.4546L209.991 48.6866L216.583 37.2786L217.879 38.0466L211.303 49.4546ZM209.927 44.4626C209.33 44.4626 208.818 44.3239 208.391 44.0466C207.964 43.7693 207.639 43.3746 207.415 42.8626C207.191 42.3399 207.079 41.7213 207.079 41.0066C207.079 39.9399 207.33 39.1026 207.831 38.4946C208.332 37.8759 209.031 37.5666 209.927 37.5666C210.524 37.5666 211.036 37.7053 211.463 37.9826C211.89 38.2599 212.215 38.6546 212.439 39.1666C212.663 39.6786 212.775 40.2919 212.775 41.0066C212.775 41.7213 212.663 42.3399 212.439 42.8626C212.215 43.3746 211.89 43.7693 211.463 44.0466C211.036 44.3239 210.524 44.4626 209.927 44.4626ZM209.927 43.1186C210.311 43.1186 210.61 42.9479 210.823 42.6066C211.036 42.2546 211.143 41.7213 211.143 41.0066C211.143 40.2919 211.036 39.7639 210.823 39.4226C210.61 39.0813 210.311 38.9106 209.927 38.9106C209.543 38.9106 209.244 39.0813 209.031 39.4226C208.818 39.7533 208.711 40.2813 208.711 41.0066C208.711 41.7319 208.818 42.2653 209.031 42.6066C209.244 42.9479 209.543 43.1186 209.927 43.1186ZM217.959 49.1666C217.362 49.1666 216.85 49.0279 216.423 48.7506C215.996 48.4733 215.671 48.0786 215.447 47.5666C215.223 47.0439 215.111 46.4253 215.111 45.7106C215.111 44.6439 215.362 43.8066 215.863 43.1986C216.364 42.5799 217.063 42.2706 217.959 42.2706C218.556 42.2706 219.068 42.4093 219.495 42.6866C219.922 42.9639 220.247 43.3586 220.471 43.8706C220.695 44.3826 220.807 44.9959 220.807 45.7106C220.807 46.4253 220.695 47.0439 220.471 47.5666C220.247 48.0786 219.922 48.4733 219.495 48.7506C219.068 49.0279 218.556 49.1666 217.959 49.1666ZM217.959 47.8226C218.343 47.8226 218.642 47.6519 218.855 47.3106C219.068 46.9586 219.175 46.4253 219.175 45.7106C219.175 44.9959 219.068 44.4679 218.855 44.1266C218.642 43.7853 218.343 43.6146 217.959 43.6146C217.575 43.6146 217.276 43.7853 217.063 44.1266C216.85 44.4573 216.743 44.9853 216.743 45.7106C216.743 46.4359 216.85 46.9693 217.063 47.3106C217.276 47.6519 217.575 47.8226 217.959 47.8226Z" fill="#030C13"/>
<path opacity="0.75" d="M169.044 68.0066V59.5466H174.384V60.3746H170.004V63.3026H174.132V64.1306H170.004V67.1786H174.384V68.0066H169.044ZM176.162 68.0066V62.9306H175.01V62.1746H176.426L176.162 62.4266V61.9706C176.162 61.1946 176.354 60.6066 176.738 60.2066C177.13 59.8066 177.73 59.5826 178.538 59.5346L179.006 59.5106L179.09 60.2546L178.538 60.2906C178.21 60.3146 177.942 60.3866 177.734 60.5066C177.526 60.6266 177.374 60.7986 177.278 61.0226C177.182 61.2466 177.134 61.5226 177.134 61.8506V62.3546L176.99 62.1746H178.814V62.9306H177.134V68.0066H176.162ZM179.97 68.0066V62.9306H178.818V62.1746H180.234L179.97 62.4266V61.9706C179.97 61.1946 180.162 60.6066 180.546 60.2066C180.938 59.8066 181.538 59.5826 182.346 59.5346L182.79 59.5106L182.85 60.2666L182.346 60.2906C182.018 60.3066 181.75 60.3786 181.542 60.5066C181.334 60.6266 181.182 60.7986 181.086 61.0226C180.99 61.2466 180.942 61.5226 180.942 61.8506V62.3066V62.1746H184.542V68.0066H183.57V62.9306H180.942V68.0066H179.97ZM183.462 60.7226V59.6306H184.65V60.7226H183.462ZM188.833 68.1146C188.249 68.1146 187.745 67.9866 187.321 67.7306C186.897 67.4746 186.569 67.1186 186.337 66.6626C186.113 66.1986 186.001 65.6626 186.001 65.0546C186.001 64.4386 186.113 63.9066 186.337 63.4586C186.569 63.0106 186.897 62.6666 187.321 62.4266C187.745 62.1866 188.249 62.0666 188.833 62.0666C189.193 62.0666 189.549 62.1306 189.901 62.2586C190.253 62.3866 190.545 62.5666 190.777 62.7986L190.441 63.5066C190.209 63.2826 189.953 63.1186 189.673 63.0146C189.401 62.9106 189.141 62.8586 188.893 62.8586C188.285 62.8586 187.817 63.0506 187.489 63.4346C187.161 63.8106 186.997 64.3546 186.997 65.0666C186.997 65.7626 187.161 66.3146 187.489 66.7226C187.817 67.1226 188.285 67.3226 188.893 67.3226C189.141 67.3226 189.401 67.2706 189.673 67.1666C189.953 67.0626 190.209 66.8946 190.441 66.6626L190.777 67.3706C190.545 67.6026 190.249 67.7866 189.889 67.9226C189.537 68.0506 189.185 68.1146 188.833 68.1146ZM191.796 60.7226V59.6306H192.996V60.7226H191.796ZM191.916 68.0066V62.1746H192.888V68.0066H191.916ZM197.333 68.1146C196.717 68.1146 196.185 67.9946 195.737 67.7546C195.297 67.5066 194.953 67.1586 194.705 66.7106C194.465 66.2626 194.345 65.7266 194.345 65.1026C194.345 64.4946 194.465 63.9666 194.705 63.5186C194.945 63.0626 195.273 62.7066 195.689 62.4506C196.113 62.1946 196.601 62.0666 197.153 62.0666C197.681 62.0666 198.133 62.1826 198.509 62.4146C198.885 62.6466 199.173 62.9746 199.373 63.3986C199.581 63.8226 199.685 64.3306 199.685 64.9226V65.2946H195.089V64.6586H199.037L198.845 64.8146C198.845 64.1746 198.701 63.6786 198.413 63.3266C198.133 62.9666 197.721 62.7866 197.177 62.7866C196.769 62.7866 196.421 62.8826 196.133 63.0746C195.853 63.2586 195.641 63.5186 195.497 63.8546C195.353 64.1826 195.281 64.5666 195.281 65.0066V65.0786C195.281 65.5666 195.357 65.9786 195.509 66.3146C195.669 66.6506 195.905 66.9066 196.217 67.0826C196.529 67.2506 196.901 67.3346 197.333 67.3346C197.677 67.3346 198.009 67.2826 198.329 67.1786C198.657 67.0666 198.965 66.8866 199.253 66.6386L199.589 67.3226C199.325 67.5626 198.989 67.7546 198.581 67.8986C198.173 68.0426 197.757 68.1146 197.333 68.1146ZM201.092 68.0066V62.1746H202.04V63.4706H201.908C202.076 63.0066 202.348 62.6586 202.724 62.4266C203.108 62.1866 203.548 62.0666 204.044 62.0666C204.508 62.0666 204.892 62.1506 205.196 62.3186C205.508 62.4786 205.74 62.7306 205.892 63.0746C206.044 63.4186 206.12 63.8506 206.12 64.3706V68.0066H205.148V64.4306C205.148 64.0706 205.1 63.7746 205.004 63.5426C204.916 63.3106 204.772 63.1386 204.572 63.0266C204.38 62.9146 204.128 62.8586 203.816 62.8586C203.464 62.8586 203.156 62.9346 202.892 63.0866C202.628 63.2386 202.424 63.4506 202.28 63.7226C202.136 63.9946 202.064 64.3146 202.064 64.6826V68.0066H201.092ZM210.384 68.1146C209.8 68.1146 209.296 67.9866 208.872 67.7306C208.448 67.4746 208.12 67.1186 207.888 66.6626C207.664 66.1986 207.552 65.6626 207.552 65.0546C207.552 64.4386 207.664 63.9066 207.888 63.4586C208.12 63.0106 208.448 62.6666 208.872 62.4266C209.296 62.1866 209.8 62.0666 210.384 62.0666C210.744 62.0666 211.1 62.1306 211.452 62.2586C211.804 62.3866 212.096 62.5666 212.328 62.7986L211.992 63.5066C211.76 63.2826 211.504 63.1186 211.224 63.0146C210.952 62.9106 210.692 62.8586 210.444 62.8586C209.836 62.8586 209.368 63.0506 209.04 63.4346C208.712 63.8106 208.548 64.3546 208.548 65.0666C208.548 65.7626 208.712 66.3146 209.04 66.7226C209.368 67.1226 209.836 67.3226 210.444 67.3226C210.692 67.3226 210.952 67.2706 211.224 67.1666C211.504 67.0626 211.76 66.8946 211.992 66.6626L212.328 67.3706C212.096 67.6026 211.8 67.7866 211.44 67.9226C211.088 68.0506 210.736 68.1146 210.384 68.1146ZM214.186 70.1666L215.278 67.7066V68.1266L212.722 62.1746H213.778L215.866 67.2866H215.542L217.654 62.1746H218.674L215.206 70.1666H214.186Z" fill="#030C13"/>
<path d="M184.813 126.6H184.037C183.991 126.376 183.911 126.18 183.796 126.011C183.683 125.842 183.546 125.7 183.383 125.585C183.222 125.469 183.044 125.381 182.848 125.322C182.652 125.264 182.447 125.235 182.234 125.235C181.846 125.235 181.495 125.333 181.179 125.529C180.866 125.725 180.617 126.014 180.431 126.396C180.248 126.778 180.156 127.246 180.156 127.801C180.156 128.357 180.248 128.825 180.431 129.207C180.617 129.589 180.866 129.878 181.179 130.074C181.495 130.27 181.846 130.368 182.234 130.368C182.447 130.368 182.652 130.339 182.848 130.28C183.044 130.222 183.222 130.135 183.383 130.021C183.546 129.904 183.683 129.761 183.796 129.592C183.911 129.421 183.991 129.225 184.037 129.003H184.813C184.755 129.331 184.649 129.624 184.494 129.883C184.34 130.142 184.148 130.362 183.918 130.543C183.689 130.723 183.431 130.859 183.145 130.953C182.861 131.047 182.558 131.094 182.234 131.094C181.688 131.094 181.201 130.961 180.776 130.694C180.35 130.426 180.015 130.047 179.771 129.554C179.527 129.062 179.405 128.478 179.405 127.801C179.405 127.125 179.527 126.541 179.771 126.049C180.015 125.556 180.35 125.176 180.776 124.909C181.201 124.642 181.688 124.509 182.234 124.509C182.558 124.509 182.861 124.556 183.145 124.65C183.431 124.743 183.689 124.881 183.918 125.063C184.148 125.242 184.34 125.461 184.494 125.72C184.649 125.977 184.755 126.27 184.813 126.6ZM187.382 131.119C187.078 131.119 186.801 131.062 186.553 130.947C186.305 130.83 186.107 130.662 185.961 130.443C185.815 130.222 185.742 129.955 185.742 129.642C185.742 129.366 185.797 129.143 185.905 128.972C186.014 128.799 186.159 128.663 186.34 128.565C186.522 128.467 186.722 128.394 186.941 128.346C187.162 128.296 187.384 128.256 187.608 128.227C187.9 128.19 188.137 128.161 188.318 128.143C188.502 128.122 188.635 128.087 188.719 128.039C188.804 127.991 188.847 127.908 188.847 127.789V127.764C188.847 127.455 188.763 127.215 188.594 127.044C188.427 126.873 188.173 126.787 187.833 126.787C187.48 126.787 187.204 126.865 187.004 127.019C186.803 127.173 186.662 127.338 186.581 127.513L185.88 127.263C186.005 126.971 186.172 126.744 186.381 126.581C186.592 126.416 186.821 126.301 187.069 126.236C187.32 126.17 187.566 126.136 187.808 126.136C187.962 126.136 188.14 126.155 188.34 126.193C188.543 126.228 188.738 126.302 188.925 126.415C189.115 126.528 189.273 126.698 189.398 126.925C189.523 127.152 189.586 127.457 189.586 127.839V131.007H188.847V130.356H188.81C188.76 130.46 188.676 130.572 188.559 130.69C188.442 130.809 188.287 130.911 188.093 130.994C187.899 131.078 187.662 131.119 187.382 131.119ZM187.495 130.456C187.787 130.456 188.033 130.398 188.234 130.284C188.436 130.169 188.588 130.021 188.691 129.839C188.795 129.658 188.847 129.467 188.847 129.266V128.59C188.816 128.628 188.747 128.662 188.641 128.694C188.536 128.723 188.415 128.749 188.278 128.772C188.142 128.793 188.009 128.811 187.88 128.828C187.753 128.843 187.649 128.855 187.57 128.866C187.378 128.891 187.199 128.931 187.032 128.988C186.867 129.042 186.733 129.124 186.631 129.235C186.531 129.344 186.481 129.492 186.481 129.679C186.481 129.936 186.576 130.13 186.766 130.262C186.958 130.391 187.201 130.456 187.495 130.456ZM190.934 131.007V126.199H191.648V126.925H191.698C191.786 126.687 191.944 126.494 192.174 126.346C192.403 126.198 192.662 126.124 192.95 126.124C193.004 126.124 193.072 126.125 193.153 126.127C193.235 126.129 193.296 126.132 193.338 126.136V126.887C193.313 126.881 193.256 126.872 193.166 126.859C193.078 126.845 192.985 126.837 192.887 126.837C192.654 126.837 192.445 126.886 192.261 126.985C192.08 127.081 191.936 127.214 191.829 127.385C191.725 127.554 191.673 127.747 191.673 127.964V131.007H190.934ZM196.008 132.91C195.651 132.91 195.344 132.864 195.088 132.772C194.831 132.682 194.617 132.563 194.446 132.415C194.277 132.269 194.142 132.113 194.042 131.946L194.631 131.532C194.697 131.62 194.782 131.72 194.884 131.833C194.987 131.948 195.126 132.047 195.304 132.13C195.483 132.216 195.718 132.259 196.008 132.259C196.396 132.259 196.716 132.165 196.969 131.977C197.221 131.789 197.348 131.495 197.348 131.094V130.118H197.285C197.231 130.205 197.154 130.314 197.053 130.443C196.955 130.57 196.813 130.684 196.628 130.784C196.444 130.882 196.196 130.931 195.883 130.931C195.495 130.931 195.146 130.84 194.837 130.656C194.531 130.472 194.287 130.205 194.108 129.855C193.931 129.504 193.842 129.079 193.842 128.578C193.842 128.085 193.929 127.656 194.102 127.291C194.275 126.924 194.516 126.64 194.825 126.44C195.134 126.237 195.49 126.136 195.895 126.136C196.208 126.136 196.457 126.188 196.64 126.293C196.826 126.395 196.968 126.512 197.066 126.643C197.166 126.773 197.243 126.879 197.298 126.963H197.373V126.199H198.086V131.144C198.086 131.557 197.992 131.893 197.805 132.152C197.619 132.413 197.368 132.604 197.053 132.725C196.74 132.848 196.392 132.91 196.008 132.91ZM195.983 130.268C196.279 130.268 196.53 130.2 196.734 130.064C196.939 129.929 197.094 129.734 197.2 129.479C197.307 129.225 197.36 128.92 197.36 128.565C197.36 128.219 197.308 127.913 197.204 127.648C197.099 127.383 196.945 127.175 196.74 127.025C196.536 126.875 196.283 126.8 195.983 126.8C195.67 126.8 195.409 126.879 195.2 127.038C194.994 127.196 194.838 127.409 194.734 127.676C194.632 127.943 194.581 128.24 194.581 128.565C194.581 128.899 194.633 129.194 194.737 129.451C194.844 129.706 195 129.906 195.207 130.052C195.415 130.196 195.674 130.268 195.983 130.268ZM201.392 131.107C200.958 131.107 200.577 131.003 200.249 130.797C199.924 130.59 199.669 130.301 199.485 129.93C199.304 129.558 199.213 129.124 199.213 128.628C199.213 128.127 199.304 127.69 199.485 127.316C199.669 126.943 199.924 126.653 200.249 126.446C200.577 126.24 200.958 126.136 201.392 126.136C201.826 126.136 202.205 126.24 202.531 126.446C202.859 126.653 203.113 126.943 203.295 127.316C203.478 127.69 203.57 128.127 203.57 128.628C203.57 129.124 203.478 129.558 203.295 129.93C203.113 130.301 202.859 130.59 202.531 130.797C202.205 131.003 201.826 131.107 201.392 131.107ZM201.392 130.443C201.721 130.443 201.993 130.359 202.205 130.19C202.418 130.021 202.576 129.798 202.678 129.523C202.78 129.248 202.831 128.949 202.831 128.628C202.831 128.306 202.78 128.007 202.678 127.729C202.576 127.452 202.418 127.228 202.205 127.057C201.993 126.885 201.721 126.8 201.392 126.8C201.062 126.8 200.791 126.885 200.578 127.057C200.365 127.228 200.207 127.452 200.105 127.729C200.003 128.007 199.952 128.306 199.952 128.628C199.952 128.949 200.003 129.248 200.105 129.523C200.207 129.798 200.365 130.021 200.578 130.19C200.791 130.359 201.062 130.443 201.392 130.443ZM207.277 131.007V124.596H208.053V130.318H211.033V131.007H207.277ZM214.088 131.107C213.654 131.107 213.273 131.003 212.945 130.797C212.62 130.59 212.365 130.301 212.182 129.93C212 129.558 211.909 129.124 211.909 128.628C211.909 128.127 212 127.69 212.182 127.316C212.365 126.943 212.62 126.653 212.945 126.446C213.273 126.24 213.654 126.136 214.088 126.136C214.522 126.136 214.902 126.24 215.227 126.446C215.555 126.653 215.809 126.943 215.991 127.316C216.174 127.69 216.266 128.127 216.266 128.628C216.266 129.124 216.174 129.558 215.991 129.93C215.809 130.301 215.555 130.59 215.227 130.797C214.902 131.003 214.522 131.107 214.088 131.107ZM214.088 130.443C214.417 130.443 214.689 130.359 214.902 130.19C215.114 130.021 215.272 129.798 215.374 129.523C215.476 129.248 215.528 128.949 215.528 128.628C215.528 128.306 215.476 128.007 215.374 127.729C215.272 127.452 215.114 127.228 214.902 127.057C214.689 126.885 214.417 126.8 214.088 126.8C213.758 126.8 213.487 126.885 213.274 127.057C213.061 127.228 212.904 127.452 212.801 127.729C212.699 128.007 212.648 128.306 212.648 128.628C212.648 128.949 212.699 129.248 212.801 129.523C212.904 129.798 213.061 130.021 213.274 130.19C213.487 130.359 213.758 130.443 214.088 130.443ZM218.809 131.119C218.504 131.119 218.227 131.062 217.979 130.947C217.731 130.83 217.534 130.662 217.388 130.443C217.241 130.222 217.168 129.955 217.168 129.642C217.168 129.366 217.223 129.143 217.331 128.972C217.44 128.799 217.585 128.663 217.766 128.565C217.948 128.467 218.148 128.394 218.367 128.346C218.588 128.296 218.811 128.256 219.034 128.227C219.326 128.19 219.563 128.161 219.744 128.143C219.928 128.122 220.062 128.087 220.145 128.039C220.231 127.991 220.273 127.908 220.273 127.789V127.764C220.273 127.455 220.189 127.215 220.02 127.044C219.853 126.873 219.599 126.787 219.259 126.787C218.907 126.787 218.63 126.865 218.43 127.019C218.23 127.173 218.089 127.338 218.007 127.513L217.306 127.263C217.431 126.971 217.598 126.744 217.807 126.581C218.018 126.416 218.247 126.301 218.496 126.236C218.746 126.17 218.992 126.136 219.234 126.136C219.389 126.136 219.566 126.155 219.766 126.193C219.969 126.228 220.164 126.302 220.352 126.415C220.542 126.528 220.699 126.698 220.824 126.925C220.949 127.152 221.012 127.457 221.012 127.839V131.007H220.273V130.356H220.236C220.186 130.46 220.102 130.572 219.985 130.69C219.869 130.809 219.713 130.911 219.519 130.994C219.325 131.078 219.088 131.119 218.809 131.119ZM218.921 130.456C219.213 130.456 219.46 130.398 219.66 130.284C219.862 130.169 220.015 130.021 220.117 129.839C220.221 129.658 220.273 129.467 220.273 129.266V128.59C220.242 128.628 220.173 128.662 220.067 128.694C219.962 128.723 219.841 128.749 219.704 128.772C219.568 128.793 219.436 128.811 219.306 128.828C219.179 128.843 219.076 128.855 218.996 128.866C218.804 128.891 218.625 128.931 218.458 128.988C218.293 129.042 218.16 129.124 218.057 129.235C217.957 129.344 217.907 129.492 217.907 129.679C217.907 129.936 218.002 130.13 218.192 130.262C218.384 130.391 218.627 130.456 218.921 130.456ZM224.176 131.107C223.775 131.107 223.421 131.006 223.115 130.803C222.808 130.599 222.568 130.311 222.395 129.939C222.222 129.566 222.135 129.124 222.135 128.615C222.135 128.11 222.222 127.672 222.395 127.301C222.568 126.929 222.809 126.642 223.118 126.44C223.427 126.237 223.783 126.136 224.188 126.136C224.501 126.136 224.749 126.188 224.93 126.293C225.114 126.395 225.254 126.512 225.35 126.643C225.448 126.773 225.524 126.879 225.578 126.963H225.641V124.596H226.379V131.007H225.666V130.268H225.578C225.524 130.356 225.447 130.466 225.346 130.6C225.246 130.731 225.103 130.849 224.918 130.953C224.732 131.056 224.485 131.107 224.176 131.107ZM224.276 130.443C224.572 130.443 224.823 130.366 225.027 130.212C225.232 130.055 225.387 129.839 225.493 129.564C225.6 129.286 225.653 128.966 225.653 128.603C225.653 128.244 225.601 127.93 225.497 127.661C225.392 127.389 225.238 127.179 225.033 127.028C224.829 126.876 224.576 126.8 224.276 126.8C223.963 126.8 223.702 126.88 223.493 127.041C223.287 127.199 223.131 127.415 223.027 127.689C222.925 127.96 222.874 128.265 222.874 128.603C222.874 128.945 222.926 129.256 223.03 129.535C223.137 129.813 223.293 130.034 223.5 130.199C223.708 130.362 223.967 130.443 224.276 130.443Z" fill="#030C13"/>
<circle cx="171.481" cy="127.903" r="3.48056" fill="url(#paint3_linear_2194_35566)"/>
<path d="M179.918 113.006H179.104L181.458 106.596H182.259L184.613 113.006H183.799L181.884 107.61H181.834L179.918 113.006ZM180.219 110.502H183.499V111.191H180.219V110.502ZM185.272 106.596L187.175 111.992H187.25L189.153 106.596H189.967L187.613 113.006H186.812L184.458 106.596H185.272ZM195.046 108.599C194.977 108.389 194.887 108.2 194.774 108.033C194.663 107.864 194.531 107.72 194.376 107.601C194.224 107.482 194.051 107.391 193.857 107.328C193.663 107.266 193.45 107.235 193.218 107.235C192.839 107.235 192.493 107.333 192.182 107.529C191.871 107.725 191.624 108.014 191.44 108.396C191.257 108.778 191.165 109.246 191.165 109.801C191.165 110.356 191.258 110.825 191.444 111.207C191.629 111.588 191.881 111.877 192.198 112.074C192.515 112.27 192.872 112.368 193.268 112.368C193.636 112.368 193.959 112.29 194.239 112.133C194.52 111.974 194.739 111.751 194.896 111.463C195.055 111.173 195.134 110.832 195.134 110.44L195.372 110.49H193.444V109.801H195.885V110.49C195.885 111.018 195.772 111.477 195.547 111.867C195.324 112.257 195.015 112.56 194.621 112.775C194.228 112.988 193.778 113.094 193.268 113.094C192.701 113.094 192.202 112.96 191.772 112.693C191.344 112.426 191.011 112.046 190.771 111.554C190.533 111.062 190.414 110.477 190.414 109.801C190.414 109.294 190.482 108.838 190.617 108.433C190.755 108.026 190.949 107.68 191.199 107.394C191.45 107.108 191.746 106.889 192.088 106.737C192.431 106.585 192.807 106.508 193.218 106.508C193.556 106.508 193.871 106.56 194.164 106.662C194.458 106.762 194.72 106.905 194.949 107.091C195.181 107.274 195.374 107.494 195.528 107.751C195.683 108.006 195.789 108.288 195.848 108.599H195.046ZM203.199 108.199C203.162 107.881 203.009 107.635 202.742 107.46C202.475 107.285 202.147 107.197 201.759 107.197C201.476 107.197 201.227 107.243 201.014 107.335C200.804 107.427 200.639 107.553 200.52 107.713C200.403 107.874 200.345 108.057 200.345 108.261C200.345 108.432 200.385 108.579 200.467 108.703C200.55 108.824 200.657 108.925 200.786 109.006C200.915 109.085 201.051 109.151 201.193 109.203C201.335 109.253 201.465 109.294 201.584 109.325L202.235 109.501C202.402 109.545 202.588 109.605 202.792 109.682C202.999 109.759 203.196 109.865 203.384 109.998C203.574 110.13 203.73 110.299 203.853 110.505C203.976 110.712 204.038 110.966 204.038 111.266C204.038 111.612 203.947 111.925 203.766 112.205C203.586 112.485 203.323 112.707 202.977 112.872C202.633 113.037 202.214 113.119 201.722 113.119C201.263 113.119 200.865 113.045 200.529 112.897C200.195 112.749 199.932 112.542 199.74 112.277C199.551 112.012 199.443 111.704 199.418 111.354H200.219C200.24 111.596 200.322 111.796 200.464 111.955C200.607 112.111 200.789 112.228 201.008 112.305C201.229 112.38 201.467 112.418 201.722 112.418C202.018 112.418 202.284 112.37 202.52 112.274C202.756 112.176 202.942 112.04 203.08 111.867C203.218 111.692 203.287 111.487 203.287 111.254C203.287 111.041 203.227 110.868 203.108 110.734C202.989 110.6 202.833 110.492 202.639 110.408C202.445 110.325 202.235 110.252 202.01 110.189L201.221 109.964C200.72 109.82 200.324 109.614 200.032 109.347C199.739 109.08 199.593 108.731 199.593 108.299C199.593 107.94 199.69 107.627 199.884 107.36C200.081 107.091 200.344 106.882 200.673 106.734C201.005 106.584 201.375 106.508 201.784 106.508C202.198 106.508 202.565 106.583 202.886 106.731C203.207 106.877 203.462 107.077 203.65 107.332C203.84 107.586 203.94 107.875 203.95 108.199H203.199ZM205.214 114.809V108.199H205.928V108.962H206.015C206.07 108.879 206.145 108.772 206.241 108.643C206.339 108.512 206.479 108.395 206.66 108.293C206.844 108.188 207.092 108.136 207.405 108.136C207.81 108.136 208.167 108.237 208.476 108.44C208.784 108.642 209.025 108.929 209.199 109.3C209.372 109.672 209.458 110.11 209.458 110.615C209.458 111.124 209.372 111.565 209.199 111.939C209.025 112.31 208.785 112.598 208.479 112.803C208.172 113.005 207.818 113.107 207.418 113.107C207.109 113.107 206.862 113.055 206.676 112.953C206.49 112.849 206.347 112.731 206.247 112.599C206.147 112.466 206.07 112.355 206.015 112.268H205.953V114.809H205.214ZM205.94 110.602C205.94 110.966 205.993 111.286 206.1 111.563C206.206 111.839 206.362 112.055 206.566 112.211C206.771 112.366 207.021 112.443 207.317 112.443C207.626 112.443 207.884 112.362 208.091 112.199C208.299 112.034 208.456 111.813 208.56 111.535C208.667 111.256 208.72 110.945 208.72 110.602C208.72 110.264 208.668 109.96 208.563 109.689C208.461 109.415 208.306 109.199 208.097 109.041C207.89 108.88 207.63 108.8 207.317 108.8C207.017 108.8 206.765 108.876 206.56 109.028C206.356 109.178 206.201 109.389 206.097 109.66C205.992 109.93 205.94 110.244 205.94 110.602ZM212.601 113.107C212.138 113.107 211.738 113.004 211.402 112.8C211.068 112.593 210.811 112.305 210.629 111.936C210.45 111.564 210.36 111.133 210.36 110.64C210.36 110.148 210.45 109.714 210.629 109.338C210.811 108.96 211.063 108.666 211.386 108.455C211.712 108.242 212.092 108.136 212.526 108.136C212.776 108.136 213.023 108.178 213.268 108.261C213.512 108.345 213.734 108.48 213.934 108.668C214.135 108.854 214.294 109.1 214.413 109.407C214.532 109.714 214.592 110.091 214.592 110.54V110.853H210.886V110.214H213.84C213.84 109.943 213.786 109.701 213.678 109.488C213.571 109.275 213.419 109.107 213.221 108.984C213.025 108.861 212.793 108.8 212.526 108.8C212.232 108.8 211.977 108.873 211.762 109.019C211.549 109.163 211.385 109.35 211.271 109.582C211.156 109.814 211.099 110.062 211.099 110.327V110.753C211.099 111.116 211.161 111.424 211.286 111.676C211.414 111.926 211.59 112.117 211.815 112.249C212.041 112.378 212.303 112.443 212.601 112.443C212.795 112.443 212.97 112.416 213.127 112.362C213.285 112.305 213.422 112.222 213.537 112.111C213.652 111.998 213.74 111.859 213.803 111.692L214.517 111.892C214.441 112.134 214.315 112.347 214.138 112.531C213.96 112.712 213.741 112.854 213.48 112.956C213.22 113.056 212.926 113.107 212.601 113.107ZM217.731 113.107C217.268 113.107 216.868 113.004 216.532 112.8C216.198 112.593 215.941 112.305 215.759 111.936C215.58 111.564 215.49 111.133 215.49 110.64C215.49 110.148 215.58 109.714 215.759 109.338C215.941 108.96 216.193 108.666 216.517 108.455C216.842 108.242 217.222 108.136 217.656 108.136C217.906 108.136 218.154 108.178 218.398 108.261C218.642 108.345 218.864 108.48 219.064 108.668C219.265 108.854 219.424 109.1 219.543 109.407C219.662 109.714 219.722 110.091 219.722 110.54V110.853H216.016V110.214H218.971C218.971 109.943 218.916 109.701 218.808 109.488C218.701 109.275 218.549 109.107 218.351 108.984C218.155 108.861 217.923 108.8 217.656 108.8C217.362 108.8 217.107 108.873 216.892 109.019C216.679 109.163 216.516 109.35 216.401 109.582C216.286 109.814 216.229 110.062 216.229 110.327V110.753C216.229 111.116 216.291 111.424 216.416 111.676C216.544 111.926 216.72 112.117 216.945 112.249C217.171 112.378 217.433 112.443 217.731 112.443C217.925 112.443 218.1 112.416 218.257 112.362C218.415 112.305 218.552 112.222 218.667 112.111C218.782 111.998 218.87 111.859 218.933 111.692L219.647 111.892C219.571 112.134 219.445 112.347 219.268 112.531C219.091 112.712 218.871 112.854 218.611 112.956C218.35 113.056 218.057 113.107 217.731 113.107ZM222.661 113.107C222.26 113.107 221.906 113.005 221.6 112.803C221.293 112.598 221.053 112.31 220.88 111.939C220.707 111.565 220.62 111.124 220.62 110.615C220.62 110.11 220.707 109.672 220.88 109.3C221.053 108.929 221.294 108.642 221.603 108.44C221.912 108.237 222.269 108.136 222.673 108.136C222.986 108.136 223.234 108.188 223.415 108.293C223.599 108.395 223.739 108.512 223.835 108.643C223.933 108.772 224.009 108.879 224.063 108.962H224.126V106.596H224.864V113.006H224.151V112.268H224.063C224.009 112.355 223.932 112.466 223.831 112.599C223.731 112.731 223.588 112.849 223.403 112.953C223.217 113.055 222.97 113.107 222.661 113.107ZM222.761 112.443C223.057 112.443 223.308 112.366 223.512 112.211C223.717 112.055 223.872 111.839 223.979 111.563C224.085 111.286 224.138 110.966 224.138 110.602C224.138 110.244 224.086 109.93 223.982 109.66C223.877 109.389 223.723 109.178 223.518 109.028C223.314 108.876 223.061 108.8 222.761 108.8C222.448 108.8 222.187 108.88 221.978 109.041C221.772 109.199 221.616 109.415 221.512 109.689C221.41 109.96 221.359 110.264 221.359 110.602C221.359 110.945 221.411 111.256 221.515 111.535C221.622 111.813 221.778 112.034 221.985 112.199C222.193 112.362 222.452 112.443 222.761 112.443Z" fill="#030C13"/>
<circle cx="171.481" cy="109.903" r="3.48056" fill="url(#paint4_linear_2194_35566)"/>
<path d="M181.633 95.0068H179.655V88.5966H181.721C182.343 88.5966 182.875 88.7249 183.317 88.9815C183.76 89.2361 184.099 89.6023 184.335 90.0802C184.57 90.5559 184.688 91.1256 184.688 91.7892C184.688 92.4569 184.569 93.0318 184.331 93.5138C184.094 93.9938 183.747 94.3631 183.292 94.6218C182.837 94.8785 182.284 95.0068 181.633 95.0068ZM180.431 94.3182H181.583C182.113 94.3182 182.553 94.216 182.901 94.0115C183.249 93.807 183.509 93.5159 183.68 93.1382C183.851 92.7605 183.937 92.3108 183.937 91.7892C183.937 91.2717 183.853 90.8262 183.683 90.4527C183.514 90.0771 183.262 89.7891 182.926 89.5888C182.59 89.3864 182.172 89.2852 181.671 89.2852H180.431V94.3182ZM187.906 95.107C187.443 95.107 187.043 95.0047 186.707 94.8003C186.373 94.5937 186.116 94.3057 185.934 93.9364C185.755 93.5649 185.665 93.133 185.665 92.6405C185.665 92.1481 185.755 91.7141 185.934 91.3385C186.116 90.9608 186.368 90.6665 186.691 90.4558C187.017 90.2429 187.397 90.1365 187.831 90.1365C188.081 90.1365 188.328 90.1783 188.573 90.2617C188.817 90.3452 189.039 90.4808 189.239 90.6686C189.44 90.8543 189.599 91.1006 189.718 91.4073C189.837 91.7141 189.897 92.0917 189.897 92.5404V92.8534H186.191V92.2149H189.145C189.145 91.9436 189.091 91.7015 188.983 91.4887C188.876 91.2759 188.724 91.1079 188.526 90.9848C188.329 90.8616 188.098 90.8001 187.831 90.8001C187.537 90.8001 187.282 90.8731 187.067 91.0192C186.854 91.1632 186.69 91.351 186.576 91.5826C186.461 91.8142 186.403 92.0625 186.403 92.3275V92.7532C186.403 93.1163 186.466 93.4241 186.591 93.6766C186.719 93.927 186.895 94.1179 187.12 94.2494C187.346 94.3787 187.607 94.4434 187.906 94.4434C188.1 94.4434 188.275 94.4163 188.432 94.3621C188.59 94.3057 188.727 94.2222 188.842 94.1117C188.957 93.999 189.045 93.8592 189.108 93.6922L189.821 93.8925C189.746 94.1346 189.62 94.3474 189.443 94.5311C189.265 94.7126 189.046 94.8545 188.785 94.9568C188.525 95.0569 188.231 95.107 187.906 95.107ZM194.805 90.1991L193.027 95.0068H192.276L190.498 90.1991H191.3L192.627 94.0303H192.677L194.004 90.1991H194.805ZM195.78 95.0068V90.1991H196.519V95.0068H195.78ZM196.156 89.3978C196.012 89.3978 195.888 89.3488 195.783 89.2507C195.681 89.1527 195.63 89.0348 195.63 88.897C195.63 88.7593 195.681 88.6414 195.783 88.5433C195.888 88.4453 196.012 88.3962 196.156 88.3962C196.3 88.3962 196.423 88.4453 196.525 88.5433C196.63 88.6414 196.682 88.7593 196.682 88.897C196.682 89.0348 196.63 89.1527 196.525 89.2507C196.423 89.3488 196.3 89.3978 196.156 89.3978ZM199.287 95.1195C198.982 95.1195 198.705 95.0621 198.457 94.9474C198.209 94.8305 198.012 94.6625 197.866 94.4434C197.72 94.2222 197.646 93.9551 197.646 93.6421C197.646 93.3667 197.701 93.1434 197.809 92.9723C197.918 92.7991 198.063 92.6635 198.244 92.5654C198.426 92.4673 198.626 92.3943 198.845 92.3463C199.066 92.2962 199.289 92.2566 199.512 92.2274C199.804 92.1898 200.041 92.1616 200.223 92.1429C200.406 92.122 200.54 92.0876 200.623 92.0396C200.709 91.9916 200.751 91.9081 200.751 91.7892V91.7641C200.751 91.4553 200.667 91.2153 200.498 91.0442C200.331 90.8731 200.077 90.7876 199.737 90.7876C199.385 90.7876 199.108 90.8648 198.908 91.0192C198.708 91.1736 198.567 91.3385 198.485 91.5137L197.784 91.2633C197.909 90.9712 198.076 90.7438 198.285 90.581C198.496 90.4161 198.725 90.3014 198.974 90.2367C199.224 90.1699 199.47 90.1365 199.712 90.1365C199.867 90.1365 200.044 90.1553 200.244 90.1929C200.447 90.2283 200.642 90.3024 200.83 90.4151C201.02 90.5278 201.177 90.6978 201.302 90.9253C201.428 91.1527 201.49 91.4574 201.49 91.8393V95.0068H200.751V94.3558H200.714C200.664 94.4601 200.58 94.5718 200.464 94.6907C200.347 94.8096 200.191 94.9108 199.997 94.9943C199.803 95.0778 199.566 95.1195 199.287 95.1195ZM199.399 94.456C199.691 94.456 199.938 94.3986 200.138 94.2838C200.34 94.169 200.493 94.0209 200.595 93.8393C200.699 93.6578 200.751 93.4669 200.751 93.2665V92.5905C200.72 92.628 200.651 92.6625 200.545 92.6938C200.441 92.723 200.32 92.749 200.182 92.772C200.046 92.7929 199.914 92.8116 199.784 92.8283C199.657 92.8429 199.554 92.8555 199.474 92.8659C199.282 92.8909 199.103 92.9316 198.936 92.988C198.771 93.0422 198.638 93.1247 198.535 93.2352C198.435 93.3438 198.385 93.4919 198.385 93.6797C198.385 93.9364 198.48 94.1304 198.67 94.2619C198.862 94.3913 199.105 94.456 199.399 94.456ZM204.929 90.1991V90.8251H202.438V90.1991H204.929ZM203.164 89.0473H203.903V93.6296C203.903 93.8383 203.933 93.9948 203.993 94.0991C204.056 94.2014 204.135 94.2702 204.231 94.3057C204.329 94.3391 204.433 94.3558 204.541 94.3558C204.623 94.3558 204.689 94.3516 204.741 94.3433C204.794 94.3328 204.835 94.3245 204.867 94.3182L205.017 94.9818C204.967 95.0006 204.897 95.0194 204.807 95.0381C204.717 95.059 204.604 95.0694 204.466 95.0694C204.257 95.0694 204.053 95.0246 203.853 94.9348C203.654 94.8451 203.489 94.7084 203.358 94.5248C203.229 94.3412 203.164 94.1096 203.164 93.8299V89.0473ZM206.04 95.0068V90.1991H206.779V95.0068H206.04ZM206.416 89.3978C206.272 89.3978 206.148 89.3488 206.044 89.2507C205.941 89.1527 205.89 89.0348 205.89 88.897C205.89 88.7593 205.941 88.6414 206.044 88.5433C206.148 88.4453 206.272 88.3962 206.416 88.3962C206.56 88.3962 206.683 88.4453 206.785 88.5433C206.89 88.6414 206.942 88.7593 206.942 88.897C206.942 89.0348 206.89 89.1527 206.785 89.2507C206.683 89.3488 206.56 89.3978 206.416 89.3978ZM210.085 95.107C209.651 95.107 209.27 95.0037 208.943 94.7971C208.617 94.5905 208.363 94.3015 208.179 93.9301C207.997 93.5587 207.907 93.1247 207.907 92.628C207.907 92.1272 207.997 91.6901 208.179 91.3165C208.363 90.943 208.617 90.653 208.943 90.4464C209.27 90.2398 209.651 90.1365 210.085 90.1365C210.519 90.1365 210.899 90.2398 211.225 90.4464C211.552 90.653 211.807 90.943 211.988 91.3165C212.172 91.6901 212.264 92.1272 212.264 92.628C212.264 93.1247 212.172 93.5587 211.988 93.9301C211.807 94.3015 211.552 94.5905 211.225 94.7971C210.899 95.0037 210.519 95.107 210.085 95.107ZM210.085 94.4434C210.415 94.4434 210.686 94.3589 210.899 94.1899C211.112 94.0209 211.269 93.7986 211.372 93.5232C211.474 93.2478 211.525 92.9494 211.525 92.628C211.525 92.3067 211.474 92.0072 211.372 91.7297C211.269 91.4522 211.112 91.2279 210.899 91.0568C210.686 90.8856 210.415 90.8001 210.085 90.8001C209.755 90.8001 209.484 90.8856 209.271 91.0568C209.059 91.2279 208.901 91.4522 208.799 91.7297C208.697 92.0072 208.645 92.3067 208.645 92.628C208.645 92.9494 208.697 93.2478 208.799 93.5232C208.901 93.7986 209.059 94.0209 209.271 94.1899C209.484 94.3589 209.755 94.4434 210.085 94.4434ZM214.13 92.1147V95.0068H213.391V90.1991H214.105V90.9503H214.168C214.28 90.7062 214.451 90.51 214.681 90.3619C214.91 90.2116 215.207 90.1365 215.57 90.1365C215.895 90.1365 216.18 90.2033 216.424 90.3368C216.668 90.4683 216.858 90.6686 216.994 90.9378C217.13 91.2049 217.197 91.5429 217.197 91.9519V95.0068H216.459V92.002C216.459 91.6243 216.361 91.3301 216.164 91.1194C215.968 90.9065 215.699 90.8001 215.357 90.8001C215.121 90.8001 214.91 90.8512 214.725 90.9535C214.541 91.0557 214.396 91.2049 214.29 91.4011C214.183 91.5972 214.13 91.8351 214.13 92.1147ZM223.167 90.1991V90.8251H220.575V90.1991H223.167ZM221.352 95.0068V89.5356C221.352 89.2601 221.416 89.0306 221.546 88.847C221.675 88.6633 221.843 88.5256 222.05 88.4338C222.256 88.342 222.474 88.2961 222.704 88.2961C222.885 88.2961 223.034 88.3107 223.148 88.3399C223.263 88.3691 223.349 88.3962 223.405 88.4213L223.192 89.0598C223.155 89.0473 223.102 89.0316 223.036 89.0129C222.971 88.9941 222.885 88.9847 222.779 88.9847C222.535 88.9847 222.359 89.0462 222.25 89.1694C222.144 89.2925 222.09 89.473 222.09 89.7108V95.0068H221.352ZM224.202 95.0068V90.1991H224.916V90.9253H224.966C225.054 90.6874 225.212 90.4944 225.442 90.3462C225.671 90.1981 225.93 90.124 226.218 90.124C226.272 90.124 226.34 90.125 226.422 90.1271C226.503 90.1292 226.564 90.1324 226.606 90.1365V90.8877C226.581 90.8815 226.524 90.8721 226.434 90.8596C226.346 90.845 226.254 90.8377 226.155 90.8377C225.922 90.8377 225.713 90.8867 225.529 90.9848C225.348 91.0807 225.204 91.2143 225.098 91.3854C224.993 91.5544 224.941 91.7474 224.941 91.9645V95.0068H224.202ZM229.289 95.107C228.855 95.107 228.474 95.0037 228.146 94.7971C227.821 94.5905 227.566 94.3015 227.382 93.9301C227.201 93.5587 227.11 93.1247 227.11 92.628C227.11 92.1272 227.201 91.6901 227.382 91.3165C227.566 90.943 227.821 90.653 228.146 90.4464C228.474 90.2398 228.855 90.1365 229.289 90.1365C229.723 90.1365 230.102 90.2398 230.428 90.4464C230.756 90.653 231.01 90.943 231.192 91.3165C231.375 91.6901 231.467 92.1272 231.467 92.628C231.467 93.1247 231.375 93.5587 231.192 93.9301C231.01 94.3015 230.756 94.5905 230.428 94.7971C230.102 95.0037 229.723 95.107 229.289 95.107ZM229.289 94.4434C229.618 94.4434 229.89 94.3589 230.102 94.1899C230.315 94.0209 230.473 93.7986 230.575 93.5232C230.677 93.2478 230.728 92.9494 230.728 92.628C230.728 92.3067 230.677 92.0072 230.575 91.7297C230.473 91.4522 230.315 91.2279 230.102 91.0568C229.89 90.8856 229.618 90.8001 229.289 90.8001C228.959 90.8001 228.688 90.8856 228.475 91.0568C228.262 91.2279 228.104 91.4522 228.002 91.7297C227.9 92.0072 227.849 92.3067 227.849 92.628C227.849 92.9494 227.9 93.2478 228.002 93.5232C228.104 93.7986 228.262 94.0209 228.475 94.1899C228.688 94.3589 228.959 94.4434 229.289 94.4434ZM232.595 95.0068V90.1991H233.308V90.9503H233.371C233.471 90.6937 233.633 90.4944 233.856 90.3525C234.079 90.2085 234.348 90.1365 234.661 90.1365C234.978 90.1365 235.242 90.2085 235.452 90.3525C235.665 90.4944 235.831 90.6937 235.95 90.9503H236C236.123 90.702 236.308 90.5048 236.554 90.3588C236.8 90.2106 237.096 90.1365 237.44 90.1365C237.87 90.1365 238.221 90.2711 238.495 90.5403C238.768 90.8074 238.905 91.2237 238.905 91.7892V95.0068H238.166V91.7892C238.166 91.4344 238.069 91.1809 237.875 91.0286C237.681 90.8763 237.453 90.8001 237.19 90.8001C236.852 90.8001 236.59 90.9023 236.404 91.1068C236.218 91.3092 236.125 91.5659 236.125 91.8768V95.0068H235.374V91.7141C235.374 91.4407 235.285 91.2206 235.108 91.0536C234.931 90.8846 234.702 90.8001 234.423 90.8001C234.231 90.8001 234.051 90.8512 233.884 90.9535C233.719 91.0557 233.586 91.1976 233.484 91.3791C233.383 91.5586 233.333 91.7662 233.333 92.002V95.0068H232.595ZM242.484 89.2852V88.5966H247.292V89.2852H245.276V95.0068H244.5V89.2852H242.484ZM253.381 90.5998H252.605C252.559 90.3765 252.479 90.1803 252.364 90.0113C252.251 89.8423 252.114 89.7004 251.951 89.5856C251.79 89.4688 251.612 89.3811 251.416 89.3227C251.219 89.2643 251.015 89.2351 250.802 89.2351C250.414 89.2351 250.062 89.3332 249.747 89.5293C249.434 89.7255 249.185 90.0145 248.999 90.3963C248.816 90.7782 248.724 91.2466 248.724 91.8017C248.724 92.3568 248.816 92.8252 248.999 93.2071C249.185 93.5889 249.434 93.8779 249.747 94.0741C250.062 94.2702 250.414 94.3683 250.802 94.3683C251.015 94.3683 251.219 94.3391 251.416 94.2807C251.612 94.2222 251.79 94.1356 251.951 94.0209C252.114 93.904 252.251 93.7611 252.364 93.5921C252.479 93.421 252.559 93.2248 252.605 93.0036H253.381C253.323 93.3312 253.216 93.6244 253.062 93.8832C252.908 94.1419 252.716 94.3621 252.486 94.5436C252.256 94.723 251.999 94.8597 251.713 94.9536C251.429 95.0475 251.125 95.0945 250.802 95.0945C250.255 95.0945 249.769 94.9609 249.343 94.6938C248.918 94.4267 248.583 94.047 248.339 93.5545C248.095 93.0621 247.973 92.4778 247.973 91.8017C247.973 91.1256 248.095 90.5413 248.339 90.0489C248.583 89.5564 248.918 89.1767 249.343 88.9096C249.769 88.6425 250.255 88.5089 250.802 88.5089C251.125 88.5089 251.429 88.5559 251.713 88.6498C251.999 88.7437 252.256 88.8814 252.486 89.0629C252.716 89.2424 252.908 89.4615 253.062 89.7202C253.216 89.9769 253.323 90.2701 253.381 90.5998ZM254.636 95.0068V88.5966H256.802C257.304 88.5966 257.715 88.6873 258.035 88.8689C258.356 89.0483 258.594 89.2914 258.748 89.5982C258.903 89.9049 258.98 90.2471 258.98 90.6248C258.98 91.0025 258.903 91.3458 258.748 91.6546C258.596 91.9634 258.36 92.2096 258.041 92.3933C257.722 92.5748 257.313 92.6656 256.814 92.6656H255.262V91.977H256.789C257.133 91.977 257.41 91.9175 257.618 91.7986C257.827 91.6796 257.978 91.519 258.072 91.3165C258.168 91.112 258.216 90.8815 258.216 90.6248C258.216 90.3681 258.168 90.1386 258.072 89.9362C257.978 89.7338 257.826 89.5752 257.615 89.4604C257.405 89.3436 257.125 89.2852 256.776 89.2852H255.412V95.0068H254.636Z" fill="#030C13"/>
<circle cx="171.481" cy="91.9034" r="3.48056" fill="url(#paint5_linear_2194_35566)"/>
<defs>
<linearGradient id="paint0_linear_2194_35566" x1="84" y1="16.0066" x2="84" y2="136.007" gradientUnits="userSpaceOnUse">
<stop stop-color="#0868B9"/>
<stop offset="1" stop-color="#044277"/>
</linearGradient>
<linearGradient id="paint1_linear_2194_35566" x1="84" y1="31.5066" x2="84" y2="121.509" gradientUnits="userSpaceOnUse">
<stop stop-color="#2395F5"/>
<stop offset="1" stop-color="#6DB8F8"/>
</linearGradient>
<linearGradient id="paint2_linear_2194_35566" x1="98.7758" y1="47.964" x2="48.7597" y2="121.367" gradientUnits="userSpaceOnUse">
<stop stop-color="#7BBDF5"/>
<stop offset="1" stop-color="#C4E2FB"/>
</linearGradient>
<linearGradient id="paint3_linear_2194_35566" x1="173.195" y1="124.592" x2="167.392" y2="133.108" gradientUnits="userSpaceOnUse">
<stop stop-color="#7BBDF5"/>
<stop offset="1" stop-color="#C4E2FB"/>
</linearGradient>
<linearGradient id="paint4_linear_2194_35566" x1="171.481" y1="106.423" x2="171.481" y2="113.384" gradientUnits="userSpaceOnUse">
<stop stop-color="#2395F5"/>
<stop offset="1" stop-color="#6DB8F8"/>
</linearGradient>
<linearGradient id="paint5_linear_2194_35566" x1="171.481" y1="88.4229" x2="171.481" y2="95.384" gradientUnits="userSpaceOnUse">
<stop stop-color="#0868B9"/>
<stop offset="1" stop-color="#044277"/>
</linearGradient>
</defs>
</svg>
