<svg width="15" height="14" viewBox="0 0 15 14" fill="none" xmlns="http://www.w3.org/2000/svg">
<path d="M11.4377 3.5V9.1875C11.4377 9.30353 11.3917 9.41481 11.3096 9.49686C11.2276 9.57891 11.1163 9.625 11.0002 9.625C10.8842 9.625 10.7729 9.57891 10.6909 9.49686C10.6088 9.41481 10.5627 9.30353 10.5627 9.1875V4.55602L4.30977 10.8095C4.22768 10.8916 4.11634 10.9377 4.00024 10.9377C3.88415 10.9377 3.7728 10.8916 3.69071 10.8095C3.60862 10.7274 3.5625 10.6161 3.5625 10.5C3.5625 10.3839 3.60862 10.2726 3.69071 10.1905L9.94423 3.9375H5.31274C5.19671 3.9375 5.08543 3.89141 5.00338 3.80936C4.92134 3.72731 4.87524 3.61603 4.87524 3.5C4.87524 3.38397 4.92134 3.27269 5.00338 3.19064C5.08543 3.10859 5.19671 3.0625 5.31274 3.0625H11.0002C11.1163 3.0625 11.2276 3.10859 11.3096 3.19064C11.3917 3.27269 11.4377 3.38397 11.4377 3.5Z" fill="white"/>
</svg>
