<svg width="16" height="16" viewBox="0 0 16 16" fill="none" xmlns="http://www.w3.org/2000/svg" className="w-4 h-4">
    <path d="M14.0306 9.03074L9.53063 13.5307C9.38973 13.6716 9.19863 13.7508 8.99938 13.7508C8.80012 13.7508 8.60902 13.6716 8.46813 13.5307C8.32723 13.3898 8.24807 13.1987 8.24807 12.9995C8.24807 12.8002 8.32723 12.6091 8.46813 12.4682L11.6875 9.25011H2.5C2.30109 9.25011 2.11032 9.17109 1.96967 9.03044C1.82902 8.88979 1.75 8.69902 1.75 8.50011C1.75 8.3012 1.82902 8.11043 1.96967 7.96978C2.11032 7.82913 2.30109 7.75011 2.5 7.75011H11.6875L8.46937 4.53011C8.32848 4.38921 8.24932 4.19812 8.24932 3.99886C8.24932 3.7996 8.32848 3.60851 8.46937 3.46761C8.61027 3.32671 8.80137 3.24756 9.00062 3.24756C9.19988 3.24756 9.39098 3.32671 9.53187 3.46761L14.0319 7.96761C14.1018 8.03738 14.1573 8.12028 14.1951 8.21155C14.2329 8.30281 14.2523 8.40065 14.2522 8.49943C14.252 8.59822 14.2324 8.69601 14.1944 8.78718C14.1564 8.87836 14.1007 8.96113 14.0306 9.03074Z" fill="currentColor" />
</svg>