<svg width="15" height="9" viewBox="0 0 15 9" fill="none" xmlns="http://www.w3.org/2000/svg">
<path d="M14.8064 1.63858L8.14044 8.3045C8.07853 8.36648 8.00501 8.41564 7.92409 8.44919C7.84316 8.48273 7.75642 8.5 7.66882 8.5C7.58122 8.5 7.49448 8.48273 7.41356 8.44919C7.33263 8.41564 7.25912 8.36648 7.19721 8.3045L0.531286 1.63858C0.406207 1.5135 0.335938 1.34385 0.335938 1.16696C0.335938 0.990073 0.406207 0.820428 0.531286 0.695349C0.656366 0.570269 0.826011 0.5 1.0029 0.5C1.17979 0.5 1.34943 0.570269 1.47451 0.695349L7.66882 6.89049L13.8631 0.695349C13.9251 0.633415 13.9986 0.584287 14.0795 0.550769C14.1604 0.517251 14.2472 0.5 14.3347 0.5C14.4223 0.5 14.5091 0.517251 14.59 0.550769C14.6709 0.584287 14.7444 0.633415 14.8064 0.695349C14.8683 0.757282 14.9174 0.830807 14.9509 0.911727C14.9845 0.992647 15.0017 1.07938 15.0017 1.16696C15.0017 1.25455 14.9845 1.34128 14.9509 1.4222C14.9174 1.50312 14.8683 1.57664 14.8064 1.63858Z" fill="black"/>
</svg>
