<svg width="28" height="27" viewBox="0 0 28 27" fill="none" xmlns="http://www.w3.org/2000/svg">
<circle cx="14" cy="13.5" r="12.5514" fill="#DC9E42" stroke="#774700" stroke-width="1.10277"/>
<circle cx="13.9999" cy="13.5004" r="9.36709" fill="#734C12"/>
<mask id="mask0_2179_7843" style="mask-type:alpha" maskUnits="userSpaceOnUse" x="5" y="5" width="19" height="19">
<circle cx="14.5022" cy="14.5016" r="9.38889" fill="#C28B37"/>
</mask>
<g mask="url(#mask0_2179_7843)">
<circle cx="14.0061" cy="13.5024" r="9.38889" fill="#A36D1D"/>
<path d="M14.5424 18.44C14.0816 18.44 13.6304 18.392 13.1888 18.296C12.7568 18.2096 12.3536 18.08 11.9792 17.9072C11.6048 17.7344 11.2784 17.528 11 17.288L11.6048 15.8768C12.056 16.2224 12.5168 16.4768 12.9872 16.64C13.4576 16.8032 13.9568 16.8848 14.4848 16.8848C14.9072 16.8848 15.2624 16.8272 15.5504 16.712C15.8384 16.5968 16.0544 16.424 16.1984 16.1936C16.352 15.9632 16.4288 15.6848 16.4288 15.3584C16.4288 14.8784 16.2656 14.5232 15.9392 14.2928C15.6224 14.0528 15.1568 13.9328 14.5424 13.9328H12.9152V12.4064H14.3696C14.7344 12.4064 15.0464 12.3488 15.3056 12.2336C15.5648 12.1088 15.7664 11.936 15.9104 11.7152C16.0544 11.4944 16.1264 11.2256 16.1264 10.9088C16.1264 10.4672 15.9776 10.1312 15.68 9.9008C15.392 9.6704 14.9696 9.5552 14.4128 9.5552C13.9136 9.5552 13.448 9.6416 13.016 9.8144C12.584 9.9776 12.1712 10.2368 11.7776 10.592L11.1728 9.2096C11.576 8.8256 12.08 8.528 12.6848 8.3168C13.2896 8.1056 13.9184 8 14.5712 8C15.272 8 15.872 8.1104 16.3712 8.3312C16.8704 8.5424 17.2496 8.8496 17.5088 9.2528C17.7776 9.6464 17.912 10.1264 17.912 10.6928C17.912 11.2976 17.744 11.8208 17.408 12.2624C17.072 12.6944 16.6112 12.9824 16.0256 13.1264V12.9536C16.4864 13.0304 16.88 13.184 17.2064 13.4144C17.5328 13.6448 17.7824 13.9376 17.9552 14.2928C18.128 14.648 18.2144 15.056 18.2144 15.5168C18.2144 16.112 18.0656 16.6304 17.768 17.072C17.4704 17.5136 17.048 17.8544 16.5008 18.0944C15.9536 18.3248 15.3008 18.44 14.5424 18.44Z" fill="#DC9E42"/>
</g>
</svg>
