<svg width="18" height="19" viewBox="0 0 18 19" fill="none" xmlns="http://www.w3.org/2000/svg">
<path d="M16.0769 1.46154H13.8846V0.730769C13.8846 0.536957 13.8076 0.351083 13.6706 0.214037C13.5335 0.0769915 13.3477 0 13.1538 0C12.96 0 12.7742 0.0769915 12.6371 0.214037C12.5001 0.351083 12.4231 0.536957 12.4231 0.730769V1.46154H5.11538V0.730769C5.11538 0.536957 5.03839 0.351083 4.90135 0.214037C4.7643 0.0769915 4.57843 0 4.38462 0C4.1908 0 4.00493 0.0769915 3.86788 0.214037C3.73084 0.351083 3.65385 0.536957 3.65385 0.730769V1.46154H1.46154C1.07391 1.46154 0.702166 1.61552 0.428075 1.88961C0.153983 2.1637 0 2.53545 0 2.92308V17.5385C0 17.9261 0.153983 18.2978 0.428075 18.5719C0.702166 18.846 1.07391 19 1.46154 19H16.0769C16.4645 19 16.8363 18.846 17.1104 18.5719C17.3845 18.2978 17.5385 17.9261 17.5385 17.5385V2.92308C17.5385 2.53545 17.3845 2.1637 17.1104 1.88961C16.8363 1.61552 16.4645 1.46154 16.0769 1.46154ZM3.65385 2.92308V3.65385C3.65385 3.84766 3.73084 4.03353 3.86788 4.17058C4.00493 4.30762 4.1908 4.38462 4.38462 4.38462C4.57843 4.38462 4.7643 4.30762 4.90135 4.17058C5.03839 4.03353 5.11538 3.84766 5.11538 3.65385V2.92308H12.4231V3.65385C12.4231 3.84766 12.5001 4.03353 12.6371 4.17058C12.7742 4.30762 12.96 4.38462 13.1538 4.38462C13.3477 4.38462 13.5335 4.30762 13.6706 4.17058C13.8076 4.03353 13.8846 3.84766 13.8846 3.65385V2.92308H16.0769V5.84615H1.46154V2.92308H3.65385ZM16.0769 17.5385H1.46154V7.30769H16.0769V17.5385ZM9.86539 10.5962C9.86539 10.813 9.8011 11.0249 9.68065 11.2051C9.5602 11.3854 9.38901 11.5259 9.18871 11.6089C8.98841 11.6918 8.76801 11.7135 8.55538 11.6712C8.34275 11.629 8.14743 11.5246 7.99413 11.3713C7.84083 11.218 7.73643 11.0226 7.69414 10.81C7.65184 10.5974 7.67355 10.377 7.75652 10.1767C7.83948 9.97638 7.97998 9.80518 8.16024 9.68473C8.3405 9.56429 8.55243 9.5 8.76923 9.5C9.05995 9.5 9.33876 9.61549 9.54433 9.82106C9.7499 10.0266 9.86539 10.3054 9.86539 10.5962ZM13.8846 10.5962C13.8846 10.813 13.8203 11.0249 13.6999 11.2051C13.5794 11.3854 13.4082 11.5259 13.2079 11.6089C13.0076 11.6918 12.7872 11.7135 12.5746 11.6712C12.362 11.629 12.1667 11.5246 12.0134 11.3713C11.8601 11.218 11.7557 11.0226 11.7134 10.81C11.6711 10.5974 11.6928 10.377 11.7757 10.1767C11.8587 9.97638 11.9992 9.80518 12.1795 9.68473C12.3597 9.56429 12.5717 9.5 12.7885 9.5C13.0792 9.5 13.358 9.61549 13.5636 9.82106C13.7691 10.0266 13.8846 10.3054 13.8846 10.5962ZM5.84615 14.25C5.84615 14.4668 5.78187 14.6787 5.66142 14.859C5.54097 15.0393 5.36978 15.1797 5.16948 15.2627C4.96918 15.3457 4.74878 15.3674 4.53615 15.3251C4.32352 15.2828 4.1282 15.1784 3.9749 15.0251C3.8216 14.8718 3.7172 14.6765 3.67491 14.4638C3.63261 14.2512 3.65432 14.0308 3.73729 13.8305C3.82025 13.6302 3.96075 13.459 4.14101 13.3386C4.32127 13.2181 4.5332 13.1538 4.75 13.1538C5.04072 13.1538 5.31953 13.2693 5.5251 13.4749C5.73067 13.6805 5.84615 13.9593 5.84615 14.25ZM9.86539 14.25C9.86539 14.4668 9.8011 14.6787 9.68065 14.859C9.5602 15.0393 9.38901 15.1797 9.18871 15.2627C8.98841 15.3457 8.76801 15.3674 8.55538 15.3251C8.34275 15.2828 8.14743 15.1784 7.99413 15.0251C7.84083 14.8718 7.73643 14.6765 7.69414 14.4638C7.65184 14.2512 7.67355 14.0308 7.75652 13.8305C7.83948 13.6302 7.97998 13.459 8.16024 13.3386C8.3405 13.2181 8.55243 13.1538 8.76923 13.1538C9.05995 13.1538 9.33876 13.2693 9.54433 13.4749C9.7499 13.6805 9.86539 13.9593 9.86539 14.25ZM13.8846 14.25C13.8846 14.4668 13.8203 14.6787 13.6999 14.859C13.5794 15.0393 13.4082 15.1797 13.2079 15.2627C13.0076 15.3457 12.7872 15.3674 12.5746 15.3251C12.362 15.2828 12.1667 15.1784 12.0134 15.0251C11.8601 14.8718 11.7557 14.6765 11.7134 14.4638C11.6711 14.2512 11.6928 14.0308 11.7757 13.8305C11.8587 13.6302 11.9992 13.459 12.1795 13.3386C12.3597 13.2181 12.5717 13.1538 12.7885 13.1538C13.0792 13.1538 13.358 13.2693 13.5636 13.4749C13.7691 13.6805 13.8846 13.9593 13.8846 14.25Z" fill="#0096FF"/>
</svg>
