<svg width="13" height="10" viewBox="0 0 13 10" fill="none" xmlns="http://www.w3.org/2000/svg">
<path d="M12.7826 1.53032L4.78255 9.53032C4.71287 9.60024 4.63008 9.65572 4.53891 9.69358C4.44775 9.73143 4.35001 9.75092 4.2513 9.75092C4.15259 9.75092 4.05485 9.73143 3.96369 9.69358C3.87252 9.65572 3.78973 9.60024 3.72005 9.53032L0.220051 6.03032C0.150286 5.96056 0.0949458 5.87774 0.0571893 5.78658C0.0194329 5.69543 1.03958e-09 5.59774 0 5.49907C-1.03958e-09 5.40041 0.0194329 5.30272 0.0571893 5.21156C0.0949458 5.12041 0.150286 5.03759 0.220051 4.96782C0.289816 4.89806 0.372638 4.84272 0.46379 4.80496C0.554942 4.76721 0.652639 4.74777 0.751301 4.74777C0.849963 4.74777 0.947659 4.76721 1.03881 4.80496C1.12996 4.84272 1.21279 4.89806 1.28255 4.96782L4.25193 7.9372L11.7213 0.469074C11.8622 0.328178 12.0533 0.249023 12.2526 0.249023C12.4518 0.249023 12.6429 0.328178 12.7838 0.469074C12.9247 0.609971 13.0039 0.801067 13.0039 1.00032C13.0039 1.19958 12.9247 1.39068 12.7838 1.53157L12.7826 1.53032Z" fill="#F9FAFA"/>
</svg>
