<svg width="96" height="116" viewBox="0 0 96 116" fill="none" xmlns="http://www.w3.org/2000/svg">
<g id="Compass Rose" opacity="0.3" clip-path="url(#clip0_1297_3781)">
<g id="Group">
<path id="Vector" d="M93.9815 75.0396L99.5635 53.8486L111.57 66.8117C111.941 67.2136 112.293 67.5962 112.631 67.9671L112.635 67.9691" stroke="url(#paint0_linear_1297_3781)" stroke-miterlimit="10"/>
<path id="Vector_2" d="M97.1662 79.9572L97.1622 79.9553C96.8528 78.7863 96.832 77.6263 97.1756 76.5893L101.515 60.1084L110.273 69.5641C111.148 70.5089 111.892 71.332 112.509 72.0799" stroke="url(#paint1_linear_1297_3781)" stroke-miterlimit="10"/>
<path id="Vector_3" d="M97.0503 83.9697L97.0363 83.9485C96.6781 83.4805 96.3597 82.9834 96.0929 82.4726L96.0889 82.4707" stroke="url(#paint2_linear_1297_3781)" stroke-miterlimit="10"/>
<path id="Vector_4" d="M95.1607 76.8314C95.1959 76.6938 95.2351 76.5581 95.2783 76.4243L100.43 56.8712L110.821 68.0874C111.466 68.7811 112.046 69.4187 112.572 70.0158" stroke="url(#paint3_linear_1297_3781)" stroke-miterlimit="10"/>
</g>
<g id="Group_2">
<path id="Vector_5" d="M76.5133 101.24L61.2257 114.629L78.575 119.007C81.2598 119.686 83.3727 120.17 85.1502 120.387" stroke="url(#paint4_linear_1297_3781)" stroke-miterlimit="10"/>
<path id="Vector_6" d="M92.841 101.732L104.092 104.574C104.092 104.574 95.2585 112.469 91.9706 115.399C88.6866 118.33 86.6627 118.169 80.4867 116.61L67.8341 113.419L80.8201 102.046C81.0618 101.805 81.3354 101.59 81.631 101.399" stroke="url(#paint5_linear_1297_3781)" stroke-miterlimit="10"/>
<path id="Vector_7" d="M78.8379 101.312L64.3728 113.982L79.3939 117.771C82.7877 118.628 85.1274 119.126 87.0491 119.069" stroke="url(#paint6_linear_1297_3781)" stroke-miterlimit="10"/>
<path id="Vector_8" d="M90.3031 99.1753L90.2979 99.1729" stroke="url(#paint7_linear_1297_3781)" stroke-miterlimit="10"/>
</g>
<g id="Group_3">
<path id="Vector_9" d="M111.42 102.312L73.155 101.171C67.9183 101.328 62.3751 97.702 59.078 92.531L40.1869 62.8978C40.1869 62.8978 66.4619 63.4172 76.2213 63.6277C85.9826 63.8343 88.9452 67.0645 96.3186 78.6292L111.422 102.318L111.42 102.312Z" stroke="url(#paint8_linear_1297_3781)" stroke-miterlimit="10"/>
<path id="Vector_10" d="M102.412 96.6177L74.5045 95.7829C70.6844 95.8996 66.6437 93.2555 64.236 89.4812L50.4568 67.8687C50.4568 67.8687 69.6232 68.2499 76.7397 68.4016C83.8563 68.5532 86.0212 70.9097 91.3955 79.3423L102.411 96.6215L102.412 96.6177Z" stroke="url(#paint9_linear_1297_3781)" stroke-miterlimit="10"/>
<path id="Vector_11" d="M107.065 99.691L73.9449 98.7015C69.4125 98.8414 64.6156 95.7013 61.7572 91.221L45.406 65.571C45.406 65.571 68.1486 66.0222 76.5965 66.2033C85.0464 66.3805 87.6132 69.1776 93.989 79.1869L107.061 99.6891L107.065 99.691Z" stroke="url(#paint10_linear_1297_3781)" stroke-miterlimit="10"/>
</g>
<g id="Group_4">
<path id="Vector_12" d="M112.594 129.869C113.074 143.45 112.458 147.737 104.465 153.174C96.4767 158.613 74.9439 173.222 74.9439 173.222L73.7104 138.408C73.496 132.328 76.0279 126.324 80.4707 123.631L111.608 102.035L112.592 129.864L112.594 129.869Z" stroke="url(#paint11_linear_1297_3781)" stroke-miterlimit="10"/>
<path id="Vector_13" d="M108.1 131.937C108.452 141.846 108.002 144.967 102.172 148.932C96.343 152.898 80.6415 163.557 80.6415 163.557L79.7437 138.166C79.586 133.732 81.4348 129.355 84.6736 127.389L107.383 111.638L108.1 131.937Z" stroke="url(#paint12_linear_1297_3781)" stroke-miterlimit="10"/>
<path id="Vector_14" d="M110.329 130.685C110.744 142.441 110.213 146.151 103.293 150.855C96.3771 155.561 77.7371 168.21 77.7371 168.21L76.6704 138.076C76.4853 132.817 78.6766 127.62 82.5203 125.284L109.472 106.589L110.327 130.679L110.329 130.685Z" stroke="url(#paint13_linear_1297_3781)" stroke-miterlimit="10"/>
</g>
<g id="Group_5">
<path id="Vector_15" d="M111.639 102.077L112.758 64.8442C112.589 59.7482 116.303 54.3592 121.605 51.1578L151.986 32.8154C151.986 32.8154 151.489 58.3823 151.286 67.8787C151.087 77.377 147.776 80.2555 135.92 87.4147L111.633 102.079L111.639 102.077Z" stroke="url(#paint14_linear_1297_3781)" stroke-miterlimit="10"/>
</g>
</g>
<defs>
<linearGradient id="paint0_linear_1297_3781" x1="107.692" y1="57.7769" x2="98.3329" y2="77.1425" gradientUnits="userSpaceOnUse">
<stop stop-color="white"/>
<stop offset="1" stop-color="white"/>
</linearGradient>
<linearGradient id="paint1_linear_1297_3781" x1="108.371" y1="63.4219" x2="99.7714" y2="81.2163" gradientUnits="userSpaceOnUse">
<stop stop-color="white"/>
<stop offset="1" stop-color="white"/>
</linearGradient>
<linearGradient id="paint2_linear_1297_3781" x1="96.7807" y1="82.8051" x2="96.3755" y2="83.6436" gradientUnits="userSpaceOnUse">
<stop stop-color="white"/>
<stop offset="1" stop-color="white"/>
</linearGradient>
<linearGradient id="paint3_linear_1297_3781" x1="107.986" y1="60.5229" x2="99.1684" y2="78.7682" gradientUnits="userSpaceOnUse">
<stop stop-color="white"/>
<stop offset="1" stop-color="white"/>
</linearGradient>
<linearGradient id="paint4_linear_1297_3781" x1="80.4846" y1="103.16" x2="72.3449" y2="120.002" gradientUnits="userSpaceOnUse">
<stop stop-color="white"/>
<stop offset="1" stop-color="white"/>
</linearGradient>
<linearGradient id="paint5_linear_1297_3781" x1="91.3446" y1="98.4142" x2="81.0147" y2="119.789" gradientUnits="userSpaceOnUse">
<stop stop-color="white"/>
<stop offset="1" stop-color="white"/>
</linearGradient>
<linearGradient id="paint6_linear_1297_3781" x1="82.538" y1="103.1" x2="74.8358" y2="119.038" gradientUnits="userSpaceOnUse">
<stop stop-color="white"/>
<stop offset="1" stop-color="white"/>
</linearGradient>
<linearGradient id="paint7_linear_1297_3781" x1="90.3005" y1="99.1741" x2="89.8722" y2="100.077" gradientUnits="userSpaceOnUse">
<stop stop-color="white"/>
<stop offset="1" stop-color="white"/>
</linearGradient>
<linearGradient id="paint8_linear_1297_3781" x1="84.6241" y1="65.265" x2="67.7801" y2="100.119" gradientUnits="userSpaceOnUse">
<stop stop-color="white"/>
<stop offset="1" stop-color="white"/>
</linearGradient>
<linearGradient id="paint9_linear_1297_3781" x1="82.8664" y1="69.596" x2="70.5817" y2="95.0161" gradientUnits="userSpaceOnUse">
<stop stop-color="white"/>
<stop offset="1" stop-color="white"/>
</linearGradient>
<linearGradient id="paint10_linear_1297_3781" x1="83.87" y1="67.6192" x2="69.2887" y2="97.7913" gradientUnits="userSpaceOnUse">
<stop stop-color="white"/>
<stop offset="1" stop-color="white"/>
</linearGradient>
<linearGradient id="paint11_linear_1297_3781" x1="111.506" y1="101.986" x2="76.6757" y2="174.059" gradientUnits="userSpaceOnUse">
<stop stop-color="white"/>
<stop offset="1" stop-color="white"/>
</linearGradient>
<linearGradient id="paint12_linear_1297_3781" x1="107.308" y1="111.602" x2="81.9052" y2="164.167" gradientUnits="userSpaceOnUse">
<stop stop-color="white"/>
<stop offset="1" stop-color="white"/>
</linearGradient>
<linearGradient id="paint13_linear_1297_3781" x1="109.388" y1="106.548" x2="79.2382" y2="168.936" gradientUnits="userSpaceOnUse">
<stop stop-color="white"/>
<stop offset="1" stop-color="white"/>
</linearGradient>
<linearGradient id="paint14_linear_1297_3781" x1="150.017" y1="31.8637" x2="115.241" y2="103.823" gradientUnits="userSpaceOnUse">
<stop stop-color="white"/>
<stop offset="1" stop-color="white"/>
</linearGradient>
<clipPath id="clip0_1297_3781">
<rect width="164.107" height="160.979" fill="white" transform="matrix(0.887331 0.461133 -0.480821 0.876819 77.4023 -6.33887)"/>
</clipPath>
</defs>
</svg>
