<svg width="10" height="13" viewBox="0 0 10 13" fill="none" xmlns="http://www.w3.org/2000/svg">
<path d="M5.28465 0.434814C4.03476 0.436232 2.83648 0.933375 1.95267 1.81718C1.06887 2.70098 0.57173 3.89926 0.570312 5.14915C0.570312 9.18312 4.85607 12.2298 5.03875 12.3573C5.11081 12.4077 5.19666 12.4348 5.28465 12.4348C5.37263 12.4348 5.45848 12.4077 5.53054 12.3573C5.71322 12.2298 9.99898 9.18312 9.99898 5.14915C9.99756 3.89926 9.50042 2.70098 8.61662 1.81718C7.73281 0.933375 6.53453 0.436232 5.28465 0.434814ZM5.28465 3.43484C5.6237 3.43484 5.95514 3.53539 6.23706 3.72376C6.51898 3.91213 6.7387 4.17986 6.86845 4.49311C6.99821 4.80636 7.03215 5.15105 6.96601 5.48359C6.89986 5.81613 6.73659 6.12159 6.49684 6.36134C6.25709 6.60109 5.95163 6.76436 5.61909 6.83051C5.28655 6.89666 4.94186 6.86271 4.62861 6.73296C4.31536 6.60321 4.04762 6.38348 3.85925 6.10156C3.67088 5.81965 3.57034 5.4882 3.57034 5.14915C3.57034 4.69449 3.75096 4.25845 4.07245 3.93695C4.39394 3.61546 4.82998 3.43484 5.28465 3.43484Z" fill="#E21328"/>
</svg>
