<svg width="15" height="20" viewBox="0 0 15 20" fill="none" xmlns="http://www.w3.org/2000/svg">
<path d="M7.44781 0.258301C5.47322 0.260546 3.58014 1.04769 2.18389 2.44704C0.787637 3.84639 0.00224004 5.74368 0 7.72266C0 14.1098 6.77074 18.9336 7.05934 19.1355C7.17318 19.2154 7.30881 19.2583 7.44781 19.2583C7.58681 19.2583 7.72244 19.2154 7.83628 19.1355C8.12488 18.9336 14.8956 14.1098 14.8956 7.72266C14.8934 5.74368 14.108 3.84639 12.7117 2.44704C11.3155 1.04769 9.4224 0.260546 7.44781 0.258301ZM7.44781 5.00835C7.98346 5.00835 8.50708 5.16754 8.95246 5.46579C9.39783 5.76405 9.74496 6.18796 9.94995 6.68394C10.1549 7.17991 10.2086 7.72567 10.1041 8.2522C9.99957 8.77872 9.74162 9.26237 9.36286 9.64197C8.9841 10.0216 8.50153 10.2801 7.97617 10.3848C7.45081 10.4896 6.90627 10.4358 6.41139 10.2304C5.91651 10.0249 5.49354 9.67702 5.19595 9.23065C4.89835 8.78429 4.73952 8.2595 4.73952 7.72266C4.73952 7.00278 5.02485 6.31238 5.53276 5.80335C6.04066 5.29432 6.72953 5.00835 7.44781 5.00835Z" fill="#0096FF"/>
</svg>
