<svg width="16" height="16" viewBox="0 0 16 16" fill="none" xmlns="http://www.w3.org/2000/svg">
<path d="M4.16884 15.5H11.5989C13.0471 15.5 13.7677 14.7654 13.7677 13.3102V6.95755C13.7677 6.05504 13.6628 5.66325 13.103 5.08955L9.24814 1.16465C8.71642 0.618937 8.27566 0.5 7.49207 0.5H4.16884C2.72761 0.5 2 1.24161 2 2.69683V13.3102C2 14.7724 2.72062 15.5 4.16884 15.5ZM4.21782 14.3736C3.4972 14.3736 3.1264 13.9888 3.1264 13.2892V2.71781C3.1264 2.02519 3.4972 1.6264 4.22481 1.6264H7.33815V5.69123C7.33815 6.57276 7.77892 7.00653 8.65345 7.00653H12.6413V13.2892C12.6413 13.9888 12.2705 14.3736 11.5429 14.3736H4.21782ZM8.77938 5.95009C8.49954 5.95009 8.39459 5.83815 8.39459 5.5583V1.84328L12.4245 5.95009H8.77938Z" fill="#030C13"/>
</svg>
