<svg width="216" height="228" viewBox="0 0 216 228" fill="none" xmlns="http://www.w3.org/2000/svg">
<rect width="215.333" height="11.6766" fill="url(#paint0_linear_5524_22366)"/>
<rect y="19.2329" width="215.333" height="13.6227" fill="url(#paint1_linear_5524_22366)"/>
<path d="M0 40.4116H215.333V90.1739C215.333 90.1739 96.1051 72.9452 33.962 81.0972C14.0635 83.7075 0 88.8816 0 88.8816V40.4116Z" fill="url(#paint2_linear_5524_22366)"/>
<path d="M72.2595 85.3403C111.893 85.9668 215.333 95.3902 215.333 95.3902V120.37H0V97.5313C0 97.5313 24.5661 84.5863 72.2595 85.3403Z" fill="#0096FF"/>
<rect y="127.926" width="215.333" height="28.2184" fill="#0096FF"/>
<rect y="163.7" width="215.333" height="28.2184" fill="#0096FF"/>
<rect y="199.475" width="215.333" height="28.2184" fill="#0096FF"/>
<defs>
<linearGradient id="paint0_linear_5524_22366" x1="-5.6773e-09" y1="5.83829" x2="271.05" y2="19.8686" gradientUnits="userSpaceOnUse">
<stop stop-color="#CCEAFF"/>
<stop offset="1" stop-color="#E1EFF6"/>
</linearGradient>
<linearGradient id="paint1_linear_5524_22366" x1="-5.6773e-09" y1="26.0442" x2="271.242" y2="38.0788" gradientUnits="userSpaceOnUse">
<stop stop-color="#CCEAFF"/>
<stop offset="1" stop-color="#E1EFF6"/>
</linearGradient>
<linearGradient id="paint2_linear_5524_22366" x1="-5.6773e-09" y1="65.2928" x2="271.736" y2="68.5933" gradientUnits="userSpaceOnUse">
<stop stop-color="#CCEAFF"/>
<stop offset="1" stop-color="#E1EFF6"/>
</linearGradient>
</defs>
</svg>
