<svg width="40" height="40" viewBox="0 0 40 40" fill="none" xmlns="http://www.w3.org/2000/svg">
<rect y="0.000793457" width="40" height="40" rx="12" fill="#F5FBFF"/>
<path d="M30.5 27.5008H29V20.7508L29.2194 20.9702C29.3604 21.1109 29.5515 21.1899 29.7507 21.1897C29.9499 21.1895 30.1408 21.1102 30.2816 20.9692C30.4223 20.8282 30.5013 20.6371 30.5011 20.4379C30.5009 20.2387 30.4216 20.0478 30.2806 19.907L21.0603 10.6895C20.779 10.4084 20.3977 10.2505 20 10.2505C19.6023 10.2505 19.221 10.4084 18.9397 10.6895L9.71938 19.907C9.57877 20.0478 9.49983 20.2386 9.49991 20.4375C9.5 20.6365 9.57911 20.8272 9.71984 20.9678C9.86057 21.1084 10.0514 21.1874 10.2503 21.1873C10.4493 21.1872 10.64 21.1081 10.7806 20.9674L11 20.7508V27.5008H9.5C9.30109 27.5008 9.11032 27.5798 8.96967 27.7205C8.82902 27.8611 8.75 28.0519 8.75 28.2508C8.75 28.4497 8.82902 28.6405 8.96967 28.7811C9.11032 28.9218 9.30109 29.0008 9.5 29.0008H30.5C30.6989 29.0008 30.8897 28.9218 31.0303 28.7811C31.171 28.6405 31.25 28.4497 31.25 28.2508C31.25 28.0519 31.171 27.8611 31.0303 27.7205C30.8897 27.5798 30.6989 27.5008 30.5 27.5008ZM12.5 19.2508L20 11.7508L27.5 19.2508V27.5008H23V22.2508C23 22.0519 22.921 21.8611 22.7803 21.7205C22.6397 21.5798 22.4489 21.5008 22.25 21.5008H17.75C17.5511 21.5008 17.3603 21.5798 17.2197 21.7205C17.079 21.8611 17 22.0519 17 22.2508V27.5008H12.5V19.2508ZM21.5 27.5008H18.5V23.0008H21.5V27.5008Z" fill="#030C13"/>
</svg>
