<svg width="40" height="40" viewBox="0 0 40 40" fill="none" xmlns="http://www.w3.org/2000/svg">
<rect y="0.000976562" width="40" height="40" rx="12" fill="#030C13"/>
<path d="M30.5 27.5012H29V20.7512L29.2194 20.9706C29.3604 21.1113 29.5515 21.1903 29.7507 21.1901C29.9499 21.1899 30.1408 21.1106 30.2816 20.9697C30.4223 20.8287 30.5013 20.6376 30.5011 20.4384C30.5009 20.2392 30.4216 20.0482 30.2806 19.9075L21.0603 10.69C20.779 10.4089 20.3977 10.251 20 10.251C19.6023 10.251 19.221 10.4089 18.9397 10.69L9.71938 19.9075C9.57877 20.0482 9.49983 20.239 9.49991 20.438C9.5 20.6369 9.57911 20.8276 9.71984 20.9683C9.86057 21.1089 10.0514 21.1878 10.2503 21.1877C10.4493 21.1876 10.64 21.1085 10.7806 20.9678L11 20.7512V27.5012H9.5C9.30109 27.5012 9.11032 27.5802 8.96967 27.7209C8.82902 27.8615 8.75 28.0523 8.75 28.2512C8.75 28.4501 8.82902 28.6409 8.96967 28.7815C9.11032 28.9222 9.30109 29.0012 9.5 29.0012H30.5C30.6989 29.0012 30.8897 28.9222 31.0303 28.7815C31.171 28.6409 31.25 28.4501 31.25 28.2512C31.25 28.0523 31.171 27.8615 31.0303 27.7209C30.8897 27.5802 30.6989 27.5012 30.5 27.5012ZM12.5 19.2512L20 11.7512L27.5 19.2512V27.5012H23V22.2512C23 22.0523 22.921 21.8615 22.7803 21.7209C22.6397 21.5802 22.4489 21.5012 22.25 21.5012H17.75C17.5511 21.5012 17.3603 21.5802 17.2197 21.7209C17.079 21.8615 17 22.0523 17 22.2512V27.5012H12.5V19.2512ZM21.5 27.5012H18.5V23.0012H21.5V27.5012Z" fill="#F9FAFA"/>
</svg>
