<svg width="24" height="28" viewBox="0 0 24 28" fill="none" xmlns="http://www.w3.org/2000/svg">
<g id="Vector" filter="url(#filter0_d_156_8410)">
<path d="M11.8572 0C9.77408 0.00236318 7.77694 0.830934 6.30394 2.30394C4.83093 3.77694 4.00236 5.77408 4 7.85722C4 14.5805 11.1429 19.6582 11.4474 19.8707C11.5675 19.9549 11.7106 20 11.8572 20C12.0039 20 12.1469 19.9549 12.267 19.8707C12.5715 19.6582 19.7144 14.5805 19.7144 7.85722C19.7121 5.77408 18.8835 3.77694 17.4105 2.30394C15.9375 0.830934 13.9404 0.00236318 11.8572 0ZM11.8572 5.00005C12.4223 5.00005 12.9747 5.16762 13.4446 5.48157C13.9144 5.79552 14.2807 6.24175 14.4969 6.76383C14.7132 7.28591 14.7697 7.86039 14.6595 8.41463C14.5492 8.96887 14.2771 9.47796 13.8775 9.87755C13.478 10.2771 12.9689 10.5492 12.4146 10.6595C11.8604 10.7697 11.2859 10.7132 10.7638 10.4969C10.2417 10.2807 9.79552 9.91444 9.48157 9.44458C9.16762 8.97472 9.00005 8.42232 9.00005 7.85722C9.00005 7.09945 9.30107 6.37272 9.8369 5.8369C10.3727 5.30107 11.0995 5.00005 11.8572 5.00005Z" fill="#404040"/>
</g>
<defs>
<filter id="filter0_d_156_8410" x="0" y="0" width="23.7148" height="28" filterUnits="userSpaceOnUse" color-interpolation-filters="sRGB">
<feFlood flood-opacity="0" result="BackgroundImageFix"/>
<feColorMatrix in="SourceAlpha" type="matrix" values="0 0 0 0 0 0 0 0 0 0 0 0 0 0 0 0 0 0 127 0" result="hardAlpha"/>
<feOffset dy="4"/>
<feGaussianBlur stdDeviation="2"/>
<feComposite in2="hardAlpha" operator="out"/>
<feColorMatrix type="matrix" values="0 0 0 0 0 0 0 0 0 0 0 0 0 0 0 0 0 0 0.25 0"/>
<feBlend mode="normal" in2="BackgroundImageFix" result="effect1_dropShadow_156_8410"/>
<feBlend mode="normal" in="SourceGraphic" in2="effect1_dropShadow_156_8410" result="shape"/>
</filter>
</defs>
</svg>
