<svg width="48" height="48" viewBox="0 0 48 48" fill="none" xmlns="http://www.w3.org/2000/svg">
<g clip-path="url(#clip0_160_2594)">
<path d="M0 24C0 6.54545 6.54545 0 24 0C41.4545 0 48 6.54545 48 24C48 41.4545 41.4545 48 24 48C6.54545 48 0 41.4545 0 24Z" fill="#D3DFE7"/>
<path d="M33 23.25V32.25C33 32.4489 32.921 32.6397 32.7803 32.7803C32.6397 32.921 32.4489 33 32.25 33H15.75C15.5511 33 15.3603 32.921 15.2197 32.7803C15.079 32.6397 15 32.4489 15 32.25V23.25C14.9993 23.0528 15.0378 22.8574 15.1133 22.6752C15.1888 22.493 15.2997 22.3277 15.4397 22.1887L22.9397 14.6887C23.221 14.4077 23.6024 14.2498 24 14.2498C24.3977 14.2498 24.779 14.4077 25.0603 14.6887L32.5603 22.1887C32.7003 22.3277 32.8112 22.493 32.8867 22.6752C32.9622 22.8574 33.0007 23.0528 33 23.25Z" fill="white"/>
</g>
<defs>
<clipPath id="clip0_160_2594">
<rect width="48" height="48" fill="white"/>
</clipPath>
</defs>
</svg>
