<svg width="48" height="48" viewBox="0 0 48 48" fill="none" xmlns="http://www.w3.org/2000/svg">
<g clip-path="url(#clip0_84_239)">
<path d="M0 24C0 6.54545 6.54545 0 24 0C41.4545 0 48 6.54545 48 24C48 41.4545 41.4545 48 24 48C6.54545 48 0 41.4545 0 24Z" fill="#D3DFE7"/>
<path d="M24 14.25C22.0716 14.25 20.1866 14.8218 18.5832 15.8932C16.9798 16.9645 15.7301 18.4873 14.9922 20.2688C14.2542 22.0504 14.0611 24.0108 14.4373 25.9021C14.8136 27.7934 15.7422 29.5307 17.1057 30.8943C18.4693 32.2579 20.2066 33.1865 22.0979 33.5627C23.9892 33.9389 25.9496 33.7458 27.7312 33.0078C29.5127 32.2699 31.0355 31.0202 32.1068 29.4168C33.1782 27.8134 33.75 25.9284 33.75 24C33.7473 21.415 32.7192 18.9366 30.8913 17.1087C29.0634 15.2808 26.585 14.2527 24 14.25ZM21 24C21 23.4067 21.176 22.8266 21.5056 22.3333C21.8352 21.8399 22.3038 21.4554 22.852 21.2284C23.4001 21.0013 24.0033 20.9419 24.5853 21.0576C25.1672 21.1734 25.7018 21.4591 26.1213 21.8787C26.5409 22.2982 26.8266 22.8328 26.9424 23.4147C27.0581 23.9967 26.9987 24.5999 26.7716 25.1481C26.5446 25.6962 26.1601 26.1648 25.6667 26.4944C25.1734 26.8241 24.5933 27 24 27C23.2044 27 22.4413 26.6839 21.8787 26.1213C21.3161 25.5587 21 24.7956 21 24ZM29.2763 17.6625L26.6053 20.3344C25.845 19.7917 24.9341 19.5001 24 19.5001C23.0659 19.5001 22.1551 19.7917 21.3947 20.3344L18.7238 17.6625C20.2043 16.4268 22.0715 15.7499 24 15.7499C25.9285 15.7499 27.7957 16.4268 29.2763 17.6625ZM18.7238 30.3375L21.3947 27.6656C22.1551 28.2083 23.0659 28.4999 24 28.4999C24.9341 28.4999 25.845 28.2083 26.6053 27.6656L29.2763 30.3375C27.7957 31.5732 25.9285 32.2501 24 32.2501C22.0715 32.2501 20.2043 31.5732 18.7238 30.3375Z" fill="white"/>
</g>
<defs>
<clipPath id="clip0_84_239">
<rect width="48" height="48" fill="white"/>
</clipPath>
</defs>
</svg>
