<svg width="48" height="48" viewBox="0 0 48 48" fill="none" xmlns="http://www.w3.org/2000/svg">
<g clip-path="url(#clip0_84_243)">
<path d="M0 24C0 6.54545 6.54545 0 24 0C41.4545 0 48 6.54545 48 24C48 41.4545 41.4545 48 24 48C6.54545 48 0 41.4545 0 24Z" fill="#D3DFE7"/>
<path d="M32.2476 24.2001C32.2514 24.0651 32.2514 23.9301 32.2476 23.7951L33.6464 22.0476C33.7197 21.9559 33.7705 21.8482 33.7946 21.7332C33.8187 21.6182 33.8154 21.4992 33.7851 21.3857C33.5554 20.5239 33.2124 19.6964 32.7651 18.9248C32.7065 18.8238 32.6251 18.738 32.5275 18.674C32.4298 18.61 32.3186 18.5698 32.2026 18.5564L29.9789 18.3089C29.8864 18.2114 29.7926 18.1176 29.6976 18.0276L29.4351 15.7982C29.4216 15.6822 29.3812 15.5709 29.317 15.4732C29.2529 15.3756 29.1669 15.2942 29.0657 15.2357C28.2942 14.7888 27.4666 14.4464 26.6048 14.2176C26.4913 14.1873 26.3723 14.184 26.2573 14.2081C26.1424 14.2322 26.0347 14.283 25.9429 14.3564L24.2001 15.7476C24.0651 15.7476 23.9301 15.7476 23.7951 15.7476L22.0476 14.3517C21.9559 14.2783 21.8482 14.2276 21.7332 14.2035C21.6182 14.1794 21.4992 14.1826 21.3857 14.2129C20.5239 14.4426 19.6964 14.7856 18.9248 15.2329C18.8238 15.2915 18.738 15.3729 18.674 15.4706C18.61 15.5682 18.5698 15.6794 18.5564 15.7954L18.3089 18.0229C18.2114 18.116 18.1176 18.2098 18.0276 18.3042L15.7982 18.5601C15.6822 18.5736 15.5709 18.614 15.4732 18.6782C15.3756 18.7423 15.2942 18.8284 15.2357 18.9295C14.7889 19.7012 14.4462 20.5287 14.2167 21.3904C14.1865 21.504 14.1834 21.623 14.2076 21.738C14.2319 21.853 14.2828 21.9606 14.3564 22.0523L15.7476 23.7951C15.7476 23.9301 15.7476 24.0651 15.7476 24.2001L14.3517 25.9476C14.2783 26.0394 14.2276 26.147 14.2035 26.262C14.1794 26.377 14.1826 26.496 14.2129 26.6095C14.4426 27.4713 14.7856 28.2988 15.2329 29.0704C15.2915 29.1714 15.3729 29.2572 15.4706 29.3212C15.5682 29.3852 15.6794 29.4255 15.7954 29.4389L18.0192 29.6864C18.1123 29.7839 18.206 29.8776 18.3004 29.9676L18.5601 32.197C18.5736 32.313 18.614 32.4243 18.6782 32.522C18.7423 32.6196 18.8284 32.701 18.9295 32.7595C19.7012 33.2063 20.5287 33.549 21.3904 33.7785C21.504 33.8087 21.623 33.8118 21.738 33.7876C21.853 33.7633 21.9606 33.7124 22.0523 33.6389L23.7951 32.2476C23.9301 32.2514 24.0651 32.2514 24.2001 32.2476L25.9476 33.6464C26.0394 33.7197 26.147 33.7705 26.262 33.7946C26.377 33.8187 26.496 33.8154 26.6095 33.7851C27.4714 33.5558 28.299 33.2128 29.0704 32.7651C29.1714 32.7065 29.2572 32.6251 29.3212 32.5275C29.3852 32.4298 29.4255 32.3186 29.4389 32.2026L29.6864 29.9789C29.7839 29.8864 29.8776 29.7926 29.9676 29.6976L32.197 29.4351C32.313 29.4216 32.4243 29.3812 32.522 29.317C32.6196 29.2529 32.701 29.1669 32.7595 29.0657C33.2063 28.294 33.549 27.4665 33.7785 26.6048C33.8087 26.4912 33.8118 26.3722 33.7876 26.2572C33.7633 26.1422 33.7124 26.0346 33.6389 25.9429L32.2476 24.2001ZM23.9976 27.7476C23.2559 27.7476 22.5309 27.5277 21.9142 27.1156C21.2975 26.7036 20.8169 26.1179 20.5331 25.4327C20.2492 24.7474 20.175 23.9934 20.3197 23.266C20.4644 22.5386 20.8215 21.8704 21.346 21.346C21.8704 20.8215 22.5386 20.4644 23.266 20.3197C23.9934 20.175 24.7474 20.2492 25.4327 20.5331C26.1179 20.8169 26.7036 21.2975 27.1156 21.9142C27.5277 22.5309 27.7476 23.2559 27.7476 23.9976C27.7476 24.9922 27.3525 25.946 26.6493 26.6493C25.946 27.3525 24.9922 27.7476 23.9976 27.7476Z" fill="white"/>
</g>
<defs>
<clipPath id="clip0_84_243">
<rect width="48" height="48" fill="white"/>
</clipPath>
</defs>
</svg>
