<svg width="40" height="40" viewBox="0 0 40 40" fill="none" xmlns="http://www.w3.org/2000/svg">
<rect y="0.000793457" width="40" height="40" rx="12" fill="#F5FBFF"/>
<path d="M29 22.2508V20.7508C28.995 18.8908 28.416 17.0778 27.3421 15.5591C26.2683 14.0404 24.7519 12.8902 23 12.2655V11.7508C23 11.353 22.842 10.9714 22.5607 10.6901C22.2794 10.4088 21.8978 10.2508 21.5 10.2508H18.5C18.1022 10.2508 17.7206 10.4088 17.4393 10.6901C17.158 10.9714 17 11.353 17 11.7508V12.2655C15.2481 12.8902 13.7317 14.0404 12.6579 15.5591C11.584 17.0778 11.005 18.8908 11 20.7508V22.2508C10.6022 22.2508 10.2206 22.4088 9.93934 22.6901C9.65804 22.9714 9.5 23.353 9.5 23.7508V26.0008C9.5 26.3986 9.65804 26.7801 9.93934 27.0615C10.2206 27.3428 10.6022 27.5008 11 27.5008H29C29.3978 27.5008 29.7794 27.3428 30.0607 27.0615C30.342 26.7801 30.5 26.3986 30.5 26.0008V23.7508C30.5 23.353 30.342 22.9714 30.0607 22.6901C29.7794 22.4088 29.3978 22.2508 29 22.2508ZM27.5 20.7508V22.2508H23V13.8761C24.335 14.4634 25.4709 15.4257 26.2697 16.646C27.0685 17.8663 27.4959 19.2923 27.5 20.7508ZM21.5 11.7508V22.2508H18.5V11.7508H21.5ZM12.5 20.7508C12.5041 19.2923 12.9315 17.8663 13.7303 16.646C14.5291 15.4257 15.665 14.4634 17 13.8761V22.2508H12.5V20.7508ZM29 26.0008H11V23.7508H29V26.0008Z" fill="#030C13"/>
</svg>
