<svg width="48" height="48" viewBox="0 0 48 48" fill="none" xmlns="http://www.w3.org/2000/svg">
<g clip-path="url(#clip0_84_250)">
<path d="M0 24C0 6.54545 6.54545 0 24 0C41.4545 0 48 6.54545 48 24C48 41.4545 41.4545 48 24 48C6.54545 48 0 41.4545 0 24Z" fill="#030C13"/>
<path d="M33 23.2502V32.2502C33 32.4492 32.921 32.6399 32.7803 32.7806C32.6397 32.9212 32.4489 33.0002 32.25 33.0002H15.75C15.5511 33.0002 15.3603 32.9212 15.2197 32.7806C15.079 32.6399 15 32.4492 15 32.2502V23.2502C14.9993 23.053 15.0378 22.8577 15.1133 22.6755C15.1888 22.4933 15.2997 22.3279 15.4397 22.189L22.9397 14.689C23.221 14.4079 23.6024 14.25 24 14.25C24.3977 14.25 24.779 14.4079 25.0603 14.689L32.5603 22.189C32.7003 22.3279 32.8112 22.4933 32.8867 22.6755C32.9622 22.8577 33.0007 23.053 33 23.2502Z" fill="white"/>
</g>
<defs>
<clipPath id="clip0_84_250">
<rect width="48" height="48" fill="white"/>
</clipPath>
</defs>
</svg>
