<svg width="48" height="48" viewBox="0 0 48 48" fill="none" xmlns="http://www.w3.org/2000/svg">
<g clip-path="url(#clip0_84_257)">
<path d="M0 24C0 6.54545 6.54545 0 24 0C41.4545 0 48 6.54545 48 24C48 41.4545 41.4545 48 24 48C6.54545 48 0 41.4545 0 24Z" fill="#D3DFE7"/>
<path d="M32.6233 27.8532L23.9983 32.8829L15.3733 27.8532C15.2026 27.7682 15.0058 27.7515 14.8231 27.8064C14.6404 27.8613 14.4855 27.9838 14.39 28.1489C14.2944 28.314 14.2653 28.5093 14.3087 28.6951C14.352 28.8808 14.4646 29.0431 14.6233 29.1489L23.6233 34.3989C23.738 34.4657 23.8684 34.501 24.0012 34.501C24.1339 34.501 24.2643 34.4657 24.379 34.3989L33.379 29.1489C33.4654 29.1 33.5413 29.0344 33.6022 28.9559C33.6631 28.8774 33.7078 28.7877 33.7337 28.6918C33.7596 28.5959 33.7662 28.4958 33.7531 28.3974C33.74 28.2989 33.7076 28.204 33.6575 28.1182C33.6075 28.0325 33.5409 27.9575 33.4616 27.8976C33.3824 27.8377 33.292 27.7942 33.1958 27.7696C33.0996 27.7449 32.9995 27.7396 32.9012 27.754C32.8029 27.7683 32.7085 27.8021 32.6233 27.8532Z" fill="white"/>
<path d="M32.6233 23.3532L23.9983 28.3829L15.3733 23.3532C15.2026 23.2682 15.0058 23.2515 14.8231 23.3064C14.6404 23.3613 14.4855 23.4838 14.39 23.6489C14.2944 23.814 14.2653 24.0093 14.3087 24.1951C14.352 24.3808 14.4646 24.5431 14.6233 24.6489L23.6233 29.8989C23.738 29.9657 23.8684 30.001 24.0012 30.001C24.1339 30.001 24.2643 29.9657 24.379 29.8989L33.379 24.6489C33.4654 24.6 33.5413 24.5344 33.6022 24.4559C33.6631 24.3774 33.7078 24.2877 33.7337 24.1918C33.7596 24.0959 33.7662 23.9958 33.7531 23.8974C33.74 23.7989 33.7076 23.704 33.6575 23.6182C33.6075 23.5325 33.5409 23.4575 33.4616 23.3976C33.3824 23.3377 33.292 23.2942 33.1958 23.2696C33.0996 23.2449 32.9995 23.2396 32.9012 23.254C32.8029 23.2683 32.7085 23.3021 32.6233 23.3532Z" fill="white"/>
<path d="M14.6221 20.1477L23.6221 25.3977C23.7367 25.4646 23.8671 25.4999 23.9999 25.4999C24.1326 25.4999 24.263 25.4646 24.3777 25.3977L33.3777 20.1477C33.4909 20.0817 33.5848 19.9871 33.6501 19.8735C33.7154 19.7598 33.7497 19.631 33.7497 19.4999C33.7497 19.3688 33.7154 19.2401 33.6501 19.1264C33.5848 19.0127 33.4909 18.9182 33.3777 18.8521L24.3777 13.6021C24.263 13.5352 24.1326 13.5 23.9999 13.5C23.8671 13.5 23.7367 13.5352 23.6221 13.6021L14.6221 18.8521C14.5088 18.9182 14.4149 19.0127 14.3496 19.1264C14.2844 19.2401 14.25 19.3688 14.25 19.4999C14.25 19.631 14.2844 19.7598 14.3496 19.8735C14.4149 19.9871 14.5088 20.0817 14.6221 20.1477Z" fill="white"/>
</g>
<defs>
<clipPath id="clip0_84_257">
<rect width="48" height="48" fill="white"/>
</clipPath>
</defs>
</svg>
