<svg width="40" height="40" viewBox="0 0 40 40" fill="none" xmlns="http://www.w3.org/2000/svg">
<rect y="0.000732422" width="40" height="40" rx="12" fill="#030C13"/>
<path d="M29 22.2507V20.7507C28.995 18.8908 28.416 17.0777 27.3421 15.559C26.2683 14.0404 24.7519 12.8902 23 12.2654V11.7507C23 11.3529 22.842 10.9714 22.5607 10.6901C22.2794 10.4088 21.8978 10.2507 21.5 10.2507H18.5C18.1022 10.2507 17.7206 10.4088 17.4393 10.6901C17.158 10.9714 17 11.3529 17 11.7507V12.2654C15.2481 12.8902 13.7317 14.0404 12.6579 15.559C11.584 17.0777 11.005 18.8908 11 20.7507V22.2507C10.6022 22.2507 10.2206 22.4088 9.93934 22.6901C9.65804 22.9714 9.5 23.3529 9.5 23.7507V26.0007C9.5 26.3986 9.65804 26.7801 9.93934 27.0614C10.2206 27.3427 10.6022 27.5007 11 27.5007H29C29.3978 27.5007 29.7794 27.3427 30.0607 27.0614C30.342 26.7801 30.5 26.3986 30.5 26.0007V23.7507C30.5 23.3529 30.342 22.9714 30.0607 22.6901C29.7794 22.4088 29.3978 22.2507 29 22.2507ZM27.5 20.7507V22.2507H23V13.876C24.335 14.4634 25.4709 15.4256 26.2697 16.6459C27.0685 17.8663 27.4959 19.2922 27.5 20.7507ZM21.5 11.7507V22.2507H18.5V11.7507H21.5ZM12.5 20.7507C12.5041 19.2922 12.9315 17.8663 13.7303 16.6459C14.5291 15.4256 15.665 14.4634 17 13.876V22.2507H12.5V20.7507ZM29 26.0007H11V23.7507H29V26.0007Z" fill="#F9FAFA"/>
</svg>
