<svg width="32" height="32" viewBox="0 0 32 32" fill="none" xmlns="http://www.w3.org/2000/svg">
<g id="Icons">
<path id="Vector" d="M26.8996 21.5323C26.2592 20.4292 25.3072 17.3079 25.3072 13.2312C25.3072 10.7829 24.3347 8.43493 22.6035 6.70375C20.8723 4.97257 18.5243 4 16.0761 4C13.6278 4 11.2798 4.97257 9.54864 6.70375C7.81746 8.43493 6.8449 10.7829 6.8449 13.2312C6.8449 17.309 5.89178 20.4292 5.25137 21.5323C5.08782 21.8127 5.00113 22.1314 5.00001 22.456C4.9989 22.7806 5.08341 23.0998 5.24502 23.3814C5.40663 23.663 5.63963 23.8969 5.92052 24.0597C6.2014 24.2225 6.52025 24.3083 6.8449 24.3086H11.5539C11.7669 25.3507 12.3333 26.2873 13.1573 26.96C13.9813 27.6326 15.0124 28 16.0761 28C17.1398 28 18.1708 27.6326 18.9948 26.96C19.8188 26.2873 20.3852 25.3507 20.5982 24.3086H25.3072C25.6318 24.3081 25.9505 24.2221 26.2312 24.0593C26.5119 23.8964 26.7448 23.6624 26.9062 23.3809C27.0677 23.0994 27.1521 22.7803 27.151 22.4557C27.1498 22.1312 27.0631 21.8127 26.8996 21.5323ZM16.0761 26.1548C15.5035 26.1546 14.9451 25.977 14.4777 25.6464C14.0103 25.3157 13.6568 24.8484 13.466 24.3086H18.6862C18.4953 24.8484 18.1419 25.3157 17.6744 25.6464C17.207 25.977 16.6486 26.1546 16.0761 26.1548ZM6.8449 22.4623C7.7334 20.9346 8.69113 17.3944 8.69113 13.2312C8.69113 11.2726 9.46918 9.39417 10.8541 8.00923C12.2391 6.62429 14.1175 5.84623 16.0761 5.84623C18.0347 5.84623 19.9131 6.62429 21.298 8.00923C22.6829 9.39417 23.461 11.2726 23.461 13.2312C23.461 17.391 24.4164 20.9311 25.3072 22.4623H6.8449Z" fill="#030C13"/>
<ellipse id="Ellipse 2448" cx="22" cy="6.33337" rx="4" ry="4" fill="#E21328"/>
</g>
</svg>
