<svg width="16" height="16" viewBox="0 0 16 16" fill="none" xmlns="http://www.w3.org/2000/svg">
<path d="M5.6638 10.2225C5.39777 10.2225 5.13772 10.3073 4.91652 10.466C4.69533 10.6247 4.52292 10.8503 4.42112 11.1142C4.31931 11.3782 4.29268 11.6686 4.34458 11.9488C4.39648 12.229 4.52458 12.4864 4.71269 12.6884C4.90081 12.8904 5.14047 13.0279 5.40139 13.0837C5.66231 13.1394 5.93276 13.1108 6.17854 13.0015C6.42432 12.8922 6.63439 12.707 6.78219 12.4695C6.92999 12.2319 7.00888 11.9527 7.00888 11.667C7.00847 11.284 6.86662 10.9169 6.61446 10.6461C6.3623 10.3753 6.02041 10.223 5.6638 10.2225ZM5.6638 12.4448C5.52056 12.4448 5.38053 12.3992 5.26142 12.3137C5.14232 12.2282 5.04948 12.1068 4.99467 11.9646C4.93985 11.8225 4.9255 11.6661 4.95345 11.5153C4.9814 11.3644 5.05038 11.2258 5.15167 11.117C5.25296 11.0082 5.38201 10.9342 5.52251 10.9042C5.663 10.8741 5.80863 10.8896 5.94097 10.9484C6.07331 11.0073 6.18643 11.107 6.26601 11.2349C6.3456 11.3628 6.38807 11.5132 6.38807 11.667C6.38807 11.8733 6.31177 12.0711 6.17594 12.217C6.04011 12.3628 5.85589 12.4448 5.6638 12.4448ZM8.609 11.0678C8.60024 11.0209 8.58217 10.9765 8.55602 10.9377C8.52986 10.8989 8.49623 10.8667 8.45742 10.8431L7.73858 10.4028L7.73573 9.5331C7.73558 9.48485 7.72567 9.4372 7.70669 9.39346C7.6877 9.34972 7.66011 9.31093 7.6258 9.27977C7.33612 9.01657 7.00258 8.81476 6.64286 8.68505C6.60183 8.67018 6.55835 8.6647 6.51523 8.66896C6.47211 8.67322 6.43029 8.68712 6.39247 8.70977L5.6638 9.14671L4.93514 8.70949C4.89727 8.68672 4.85537 8.67272 4.81215 8.66842C4.76893 8.66411 4.72535 8.66959 4.68423 8.68449C4.32441 8.81474 3.99087 9.01712 3.70129 9.28088C3.6671 9.31201 3.63959 9.35072 3.62065 9.39436C3.60172 9.438 3.59181 9.48552 3.59162 9.53366L3.58799 10.4042L2.87019 10.8434C2.83137 10.867 2.79775 10.8994 2.77164 10.9383C2.74552 10.9772 2.72753 11.0216 2.71887 11.0687C2.64579 11.464 2.64579 11.8708 2.71887 12.2662C2.72759 12.3131 2.74562 12.3574 2.77173 12.3962C2.79785 12.435 2.83143 12.4673 2.87019 12.4909L3.5898 12.9312L3.59265 13.8009C3.59281 13.8491 3.60272 13.8968 3.6217 13.9405C3.64068 13.9843 3.66828 14.0231 3.70258 14.0542C3.99226 14.3174 4.32581 14.5192 4.68552 14.6489C4.72655 14.6638 4.77003 14.6693 4.81315 14.665C4.85628 14.6608 4.89809 14.6469 4.93591 14.6242L5.6638 14.1873L6.3917 14.6245C6.42957 14.6473 6.47146 14.6613 6.51468 14.6656C6.5579 14.6699 6.60148 14.6644 6.6426 14.6495C7.00242 14.5192 7.33597 14.3169 7.62554 14.0531C7.65974 14.022 7.68724 13.9833 7.70618 13.9396C7.72511 13.896 7.73502 13.8485 7.73522 13.8003L7.73884 12.9298L8.45819 12.4906C8.49702 12.4669 8.53063 12.4346 8.55675 12.3957C8.58286 12.3568 8.60086 12.3124 8.60951 12.2653C8.68242 11.87 8.68224 11.4631 8.609 11.0678ZM8.02363 11.9895L7.32833 12.4139C7.27893 12.444 7.23821 12.4881 7.21064 12.5414C7.19667 12.5692 7.18193 12.595 7.16666 12.6214C7.13601 12.674 7.11962 12.7347 7.11933 12.7967L7.11571 13.6392C6.94837 13.7744 6.76511 13.8853 6.57069 13.9689L5.86841 13.547C5.8221 13.5191 5.76991 13.5045 5.71683 13.5045H5.70933C5.67984 13.5045 5.64984 13.5045 5.62035 13.5045C5.56488 13.5031 5.51006 13.5176 5.46153 13.5464L4.75847 13.9676C4.56373 13.8843 4.38005 13.7739 4.21216 13.6392L4.20931 12.7992C4.20907 12.7371 4.19268 12.6763 4.16198 12.6237C4.14698 12.5975 4.13197 12.5706 4.118 12.5437C4.09041 12.4907 4.04979 12.4469 4.00057 12.417L3.30475 11.99C3.27772 11.7758 3.27772 11.5587 3.30475 11.3445L4.00005 10.92C4.04937 10.89 4.09007 10.846 4.11775 10.7928C4.13171 10.765 4.14646 10.7389 4.16172 10.7125C4.19237 10.66 4.20877 10.5993 4.20906 10.5373L4.2119 9.69477C4.3793 9.55993 4.56256 9.44944 4.75691 9.36616L5.4592 9.7881C5.50771 9.81733 5.56268 9.83192 5.61828 9.83032C5.64777 9.83032 5.67777 9.83032 5.70726 9.83032C5.76273 9.83173 5.81755 9.81726 5.86608 9.78838L6.56914 9.36643C6.76388 9.44965 6.94756 9.56004 7.11545 9.69477L7.11829 10.5348C7.11853 10.5969 7.13493 10.6577 7.16563 10.7103C7.18063 10.7364 7.19563 10.7634 7.2096 10.7903C7.2372 10.8433 7.27782 10.8871 7.32704 10.917L8.02285 11.3428C8.05024 11.5574 8.0505 11.7749 8.02363 11.9895Z" fill="black"/>
<path d="M3.32812 7.33333V3C3.32812 2.44772 3.77584 2 4.32813 2H9.55242C9.83417 2 10.1028 2.11885 10.2924 2.32733L13.0681 5.3806C13.2354 5.56467 13.3281 5.80451 13.3281 6.05327V13C13.3281 13.5523 12.8804 14 12.3281 14H9.99479" stroke="black" stroke-linecap="round"/>
<path d="M10 2.33301V5.33301C10 5.88529 10.4477 6.33301 11 6.33301H13.3333" stroke="black" stroke-linecap="round"/>
</svg>
