<svg width="43" height="32" viewBox="0 0 43 32" fill="none" xmlns="http://www.w3.org/2000/svg">
<path d="M0 32.0007C0 32.0007 8.64812 18.3049 10.0573 16.0344C11.4663 13.7636 12.6802 13.5503 16.573 13.5503H25.1532C24.6473 13.9729 23.7822 14.8551 23.1349 15.892L14.4082 29.8719C13.5356 31.434 11.6905 32.0007 9.4763 32.0007H0Z" fill="#006CB8"/>
<path d="M34.1441 13.5503C30.266 13.5503 29.0499 13.7623 27.5725 16.0202C26.0949 18.2777 22.126 24.3611 22.126 24.3611H32.0656C33.801 24.3611 35.4901 23.6039 36.2174 22.3521L42.0899 13.5503H34.1441Z" fill="#ACC42A"/>
<path d="M30.0718 0C33.9499 0 35.166 0.213405 36.6434 2.48637C38.121 4.75895 42.0899 10.8829 42.0899 10.8829H32.1503C30.4149 10.8829 28.7258 10.1206 27.9985 8.86053L22.126 0H30.0718Z" fill="#ED1B2F"/>
</svg>
