<svg width="159" height="32" viewBox="0 0 159 32" fill="none" xmlns="http://www.w3.org/2000/svg">
<g id="Clip path group">
<mask id="mask0_1429_2504" style="mask-type:luminance" maskUnits="userSpaceOnUse" x="0" y="0" width="159" height="33">
<g id="clip0_209_7294">
<path id="Vector" d="M158.815 0.000488281H0V32.0005H158.815V0.000488281Z" fill="white"/>
</g>
</mask>
<g mask="url(#mask0_1429_2504)">
<g id="Group">
<path id="Vector_2" d="M27.2731 1.51756C26.9635 1.05017 26.5432 0.666789 26.0497 0.401559C25.5561 0.136389 25.0048 -0.00244141 24.4448 -0.00244141H16.6318L20.9444 6.65196C21.2546 7.11861 21.6749 7.50113 22.1685 7.7655C22.662 8.02987 23.2128 8.1679 23.7728 8.16716H31.5888L27.2731 1.51756Z" fill="#EA1E30"/>
<path id="Vector_3" d="M20.9491 11.729C21.2587 11.2617 21.6796 10.8784 22.1731 10.6132C22.6667 10.348 23.218 10.2092 23.778 10.209H31.5904L27.2777 16.8602C26.9682 17.3278 26.5479 17.7114 26.0537 17.9766C25.5602 18.2418 25.0088 18.3805 24.4488 18.3802H16.6328L20.9491 11.729Z" fill="#AAC237"/>
<path id="Vector_4" d="M17.5705 11.9047C17.9975 11.2544 18.5323 10.6819 19.152 10.2119H10.8553C10.2954 10.2122 9.74425 10.3511 9.25083 10.6162C8.75741 10.8815 8.33711 11.2647 8.02732 11.7319L0 24.1023H7.81489C8.37459 24.1029 8.92572 23.9649 9.41926 23.7006C9.9128 23.4362 10.3335 23.0537 10.6437 22.5871L17.5705 11.9047Z" fill="#006CB8"/>
<path id="Vector_5" d="M37.2969 10.2129H40.5073C42.3639 10.2129 43.6606 10.8097 43.6606 12.9001C43.6606 14.8281 42.5043 15.6729 40.5781 15.6729H39.228V18.3817H37.2993L37.2969 10.2129ZM39.2255 13.9217H40.2643C40.4975 13.9217 41.6507 13.9769 41.6507 12.9249C41.6507 11.8433 40.7424 11.8849 40.0212 11.8849H39.2224L39.2255 13.9217Z" fill="#060707"/>
<path id="Vector_6" d="M46.6134 12.0129V13.3777H49.9309V15.1753H46.6158V16.5833H50.0497V18.3817H44.6934V10.2129H50.0497V12.0129H46.6134Z" fill="#060707"/>
<path id="Vector_7" d="M62.7434 18.3815H60.8154V12.0119H58.584V10.2119H64.9735V12.0119H62.7428L62.7434 18.3815Z" fill="#060707"/>
<path id="Vector_8" d="M66.9263 16.9631L66.4137 18.3815H64.3682L67.2223 10.2119H69.3245L72.1202 18.3815H70.066L69.5866 16.9631H66.9263ZM68.2722 12.7367H68.2537L67.4549 15.3383H69.0562L68.2722 12.7367Z" fill="#060707"/>
<path id="Vector_9" d="M73.976 10.2129H75.8726L77.3766 14.5793L78.9735 10.2129H80.8904L82.0086 18.3817H80.0831L79.5397 13.6801H79.5206L77.7421 18.3817H76.9748L75.2732 13.6801H75.2554L74.6357 18.3817H72.7188L73.976 10.2129Z" fill="#060707"/>
<path id="Vector_10" d="M85.184 10.2129H83.2578V18.3817H85.184V10.2129Z" fill="#060707"/>
<path id="Vector_11" d="M86.8772 10.2129H88.8046L92.3332 15.2073H92.356V10.2129H94.2797V18.3817H92.3547L88.8218 13.3785H88.804V18.3817H86.876L86.8772 10.2129Z" fill="#060707"/>
<path id="Vector_12" d="M97.8193 16.9631L97.3073 18.3815H95.2617L98.114 10.2119H100.219L103.009 18.3815H100.954L100.475 16.9631H97.8193ZM99.1657 12.7367H99.146L98.351 15.3383H99.9485L99.1657 12.7367Z" fill="#060707"/>
<path id="Vector_13" d="M58.6555 18.3816H56.2685L53.9312 15.2496L53.6001 15.2384H53.5805V18.3816H51.6543V10.212H55.2482C55.5903 10.1733 55.9368 10.2112 56.2623 10.3228C56.5885 10.4345 56.8851 10.6172 57.1318 10.8577C57.3786 11.0983 57.5688 11.3907 57.6894 11.7138C57.8094 12.0369 57.8568 12.3827 57.8272 12.7264C57.8586 13.2739 57.6881 13.814 57.3491 14.2443C57.0094 14.6746 56.5238 14.9651 55.9848 15.0608L58.6555 18.3816ZM53.5805 13.8536H54.4826C55.1128 13.8536 55.8192 13.724 55.8192 12.8352C55.8192 11.9464 55.1128 11.8192 54.4826 11.8192H53.5768L53.5805 13.8536Z" fill="#060707"/>
<path id="Vector_14" d="M38.1385 24.1064H37.2979V31.6592H38.1385V24.1064Z" fill="#E21F23"/>
<path id="Vector_15" d="M39.7178 23.7861L45.5984 29.9565V24.1069H46.4384V32.0005L40.5578 25.8405V31.6605H39.7178V23.7861Z" fill="#E21F23"/>
<path id="Vector_16" d="M50.0109 31.66H49.1709V24.888H47.3506V24.1064H51.8478V24.888H50.0109V31.66Z" fill="#E21F23"/>
<path id="Vector_17" d="M52.7109 24.1074H56.6242V24.889H53.554V27.129H56.5349V27.9106H53.554V30.8762H56.6242V31.6578H52.7109V24.1074Z" fill="#E21F23"/>
<path id="Vector_18" d="M58.8927 31.6602H58.0527V24.1074H59.1426C60.5733 24.1074 61.9026 24.4874 61.9026 26.1874C61.9173 26.4488 61.8792 26.7104 61.7918 26.9571C61.7038 27.2037 61.5684 27.4304 61.3924 27.624C61.2164 27.8175 61.0041 27.9741 60.7672 28.0846C60.5303 28.1951 60.2737 28.2572 60.0121 28.2674L62.4133 31.6538H61.3832L59.1026 28.3378H58.8927V31.6602ZM58.8927 27.6034H59.153C60.1026 27.6034 61.0626 27.4226 61.0626 26.2506C61.0626 25.0082 60.153 24.8906 59.1456 24.8906H58.8958L58.8927 27.6034Z" fill="#E21F23"/>
<path id="Vector_19" d="M63.5227 23.7861L69.4033 29.9565V24.1069H70.2427V32.0005L64.3621 25.8405V31.6605H63.5215L63.5227 23.7861Z" fill="#E21F23"/>
<path id="Vector_20" d="M72.9448 29.516L72.0352 31.66H71.1152L74.5959 23.7456L77.986 31.66H77.0555L76.1657 29.516H72.9448ZM74.5755 25.7096L73.2851 28.7344H75.8352L74.5755 25.7096Z" fill="#E21F23"/>
<path id="Vector_21" d="M80.0058 31.66H79.1664V24.888H77.3467V24.1064H81.847V24.888H80.0101L80.0058 31.66Z" fill="#E21F23"/>
<path id="Vector_22" d="M83.5669 24.1064H82.7275V31.6592H83.5669V24.1064Z" fill="#E21F23"/>
<path id="Vector_23" d="M92.5792 27.8937C92.5823 28.673 92.3546 29.4358 91.9251 30.0854C91.4949 30.735 90.8826 31.2422 90.1644 31.5428C89.4469 31.8433 88.6561 31.9236 87.8924 31.7737C87.1288 31.6236 86.4272 31.2501 85.8758 30.7002C85.3244 30.1503 84.9485 29.4489 84.7952 28.6847C84.6426 27.9206 84.7195 27.1282 85.0161 26.4078C85.3134 25.6875 85.8168 25.0716 86.4635 24.6383C87.1103 24.205 87.8709 23.9737 88.6488 23.9737C89.1644 23.9715 89.6746 24.0712 90.1515 24.2673C90.6284 24.4633 91.0617 24.7516 91.4266 25.1159C91.7921 25.4801 92.082 25.913 92.2795 26.3897C92.4771 26.8663 92.5792 27.3775 92.5792 27.8937ZM85.5589 27.8833C85.5644 28.4943 85.7509 29.09 86.0943 29.5953C86.4371 30.1005 86.922 30.4927 87.4875 30.7225C88.0525 30.9523 88.6734 31.0093 89.2709 30.8865C89.8684 30.7636 90.4161 30.4664 90.8457 30.0321C91.2752 29.5979 91.5663 29.0462 91.6832 28.4464C91.8001 27.8466 91.7368 27.2256 91.5023 26.6616C91.2672 26.0976 90.8709 25.6159 90.3632 25.2771C89.8555 24.9383 89.2592 24.7575 88.6488 24.7577C87.826 24.7642 87.0395 25.0966 86.4604 25.6822C85.8814 26.2678 85.5571 27.0591 85.5589 27.8833Z" fill="#E21F23"/>
<path id="Vector_24" d="M93.7695 23.7861L99.6501 29.9565V24.1069H100.49V32.0005L94.6089 25.8405V31.6605H93.7695V23.7861Z" fill="#E21F23"/>
<path id="Vector_25" d="M103.191 29.516L102.281 31.66H101.364L104.845 23.7456L108.235 31.66H107.305L106.415 29.516H103.191ZM104.821 25.7096L103.532 28.7344H106.082L104.821 25.7096Z" fill="#E21F23"/>
<path id="Vector_26" d="M109.893 30.8786H111.97V31.6602H109.05V24.1074H109.89L109.893 30.8786Z" fill="#E21F23"/>
<path id="Vector_27" d="M119.304 25.5793C119.192 25.329 119.01 25.1174 118.778 24.9711C118.547 24.8249 118.277 24.7506 118.004 24.7577C117.845 24.7507 117.685 24.7756 117.536 24.8311C117.386 24.8865 117.25 24.9713 117.133 25.0804C117.016 25.1896 116.923 25.3209 116.858 25.4668C116.793 25.6126 116.757 25.77 116.754 25.9297C116.754 26.5809 117.424 26.8817 117.935 27.1121L118.434 27.3329C119.415 27.7633 120.244 28.2537 120.244 29.4561C120.232 30.0469 120.002 30.6124 119.598 31.0428C119.194 31.4732 118.643 31.7377 118.056 31.7852C117.467 31.8326 116.883 31.6596 116.415 31.2995C115.947 30.9395 115.629 30.4183 115.523 29.8369L116.344 29.6065C116.381 29.9845 116.555 30.3359 116.834 30.5943C117.112 30.8527 117.475 31.0001 117.854 31.0089C118.254 31.0177 118.641 30.8679 118.931 30.5921C119.222 30.3162 119.392 29.9367 119.404 29.5361C119.404 28.6561 118.714 28.3545 118.014 28.0337L117.554 27.8337C116.676 27.4337 115.914 26.9817 115.914 25.9001C115.922 25.6335 115.983 25.3714 116.094 25.1292C116.205 24.8869 116.364 24.6697 116.561 24.4904C116.758 24.3111 116.989 24.1735 117.24 24.0858C117.492 23.9981 117.759 23.9622 118.024 23.9801C118.425 23.9751 118.82 24.0821 119.164 24.289C119.509 24.4961 119.788 24.7948 119.973 25.1521L119.304 25.5793Z" fill="#E21F23"/>
<path id="Vector_28" d="M126.216 27.1719V24.1071H127.055V31.6599H126.216V27.9519H122.355V31.6583H121.516V24.1055H122.355V27.1703L126.216 27.1719Z" fill="#E21F23"/>
<path id="Vector_29" d="M129.476 24.1064H128.637V31.6592H129.476V24.1064Z" fill="#E21F23"/>
<path id="Vector_30" d="M131.848 31.6602H131.008V24.1074H132.248C132.897 24.0448 133.55 24.1845 134.117 24.5074C134.387 24.7048 134.605 24.9644 134.753 25.2643C134.901 25.5641 134.975 25.8953 134.968 26.2298C134.972 26.5362 134.911 26.84 134.786 27.1203C134.662 27.4005 134.479 27.6504 134.249 27.853C133.73 28.2256 133.096 28.4029 132.46 28.3538H131.85L131.848 31.6602ZM131.848 27.573H132.407C133.337 27.573 134.127 27.2922 134.127 26.213C134.127 24.981 133.137 24.8906 132.157 24.8906H131.847L131.848 27.573Z" fill="#E21F23"/>
<path id="Vector_31" d="M136.878 31.6601H136.038V24.1073H137.278C137.928 24.0448 138.581 24.1845 139.148 24.5073C139.418 24.7049 139.636 24.9646 139.784 25.2644C139.932 25.5642 140.005 25.8953 139.998 26.2297C140.002 26.5363 139.941 26.8401 139.817 27.1203C139.692 27.4005 139.509 27.6504 139.279 27.8529C138.76 28.2257 138.126 28.403 137.489 28.3537H136.879L136.878 31.6601ZM136.878 27.5729H137.437C138.367 27.5729 139.156 27.2921 139.156 26.2129C139.156 24.9809 138.166 24.8905 137.186 24.8905H136.876L136.878 27.5729Z" fill="#E21F23"/>
<path id="Vector_32" d="M141.929 24.1064H141.09V31.6592H141.929V24.1064Z" fill="#E21F23"/>
<path id="Vector_33" d="M143.51 23.7861L149.39 29.9565V24.1069H150.23V32.0005L144.35 25.8405V31.6605H143.51L143.51 23.7861Z" fill="#E21F23"/>
<path id="Vector_34" d="M158.812 27.8632C158.865 28.337 158.823 28.8167 158.689 29.2743C158.556 29.7318 158.332 30.1581 158.031 30.528C157.682 30.9245 157.253 31.2421 156.772 31.4597C156.291 31.6774 155.769 31.7901 155.242 31.7904C154.576 31.7787 153.924 31.5966 153.349 31.2614C152.774 30.9262 152.294 30.4491 151.954 29.8754C151.615 29.3018 151.428 28.6506 151.41 27.984C151.393 27.3175 151.547 26.6576 151.857 26.0673C152.166 25.477 152.621 24.9757 153.178 24.6114C153.736 24.247 154.377 24.0317 155.042 23.9858C155.706 23.94 156.37 24.0651 156.972 24.3493C157.575 24.6335 158.094 25.0674 158.482 25.6096L157.871 26.1808C157.594 25.7442 157.212 25.3848 156.759 25.136C156.306 24.8872 155.798 24.757 155.282 24.7576C154.457 24.7704 153.67 25.1093 153.093 25.7004C152.516 26.2915 152.195 27.0869 152.201 27.9136C152.202 28.7128 152.518 29.4793 153.079 30.0472C153.644 30.6297 154.41 30.9733 155.22 31.0072C155.886 31.0363 156.538 30.8067 157.039 30.3662C157.54 29.9258 157.852 29.3085 157.91 28.6432H155.674V27.8616L158.812 27.8632Z" fill="#E21F23"/>
</g>
</g>
</g>
</svg>
