<svg width="24" height="24" viewBox="0 0 24 24" fill="none" xmlns="http://www.w3.org/2000/svg">
<path d="M12.6136 19.8966C12.5176 19.9639 12.4031 20 12.2858 20C12.1685 20 12.054 19.9639 11.9579 19.8966H12.6136ZM12.6136 19.8966C12.8572 19.7266 18.5716 15.6644 18.5716 10.2858L12.6136 19.8966ZM12.1014 19.6918L12.101 19.6916C11.9881 19.6128 10.5176 18.5687 9.07776 16.8821C7.63447 15.1914 6.25005 12.888 6.25 10.2859C6.25185 8.68566 6.88837 7.15148 8.01993 6.01993C9.15145 4.88841 10.6856 4.25189 12.2858 4.25C13.886 4.25189 15.4201 4.88841 16.5516 6.01993C17.6832 7.15151 18.3197 8.68576 18.3216 10.2861C18.3215 12.8881 16.9371 15.1915 15.4938 16.8821C14.054 18.5687 12.5834 19.6128 12.4706 19.6916L12.4702 19.6918C12.4162 19.7297 12.3518 19.75 12.2858 19.75C12.2198 19.75 12.1554 19.7297 12.1014 19.6918ZM13.6946 8.17739C13.2776 7.89876 12.7873 7.75004 12.2858 7.75004C11.6133 7.75004 10.9683 8.0172 10.4927 8.49274C10.0172 8.96828 9.75004 9.61326 9.75004 10.2858C9.75004 10.7873 9.89876 11.2776 10.1774 11.6946C10.456 12.1116 10.852 12.4366 11.3154 12.6285C11.7787 12.8204 12.2886 12.8706 12.7805 12.7728C13.2724 12.6749 13.7242 12.4334 14.0788 12.0788C14.4334 11.7242 14.6749 11.2724 14.7728 10.7805C14.8706 10.2886 14.8204 9.77874 14.6285 9.31539C14.4366 8.85205 14.1116 8.45602 13.6946 8.17739Z" fill="#030C13" stroke="white" stroke-width="0.5"/>
<path d="M2.5 12C2.5 9.71027 2.50094 8.0401 2.66318 6.75605C2.82384 5.48463 3.13558 4.66198 3.7075 4.03096C3.80996 3.91791 3.91791 3.80996 4.03096 3.7075C4.66198 3.13558 5.48463 2.82384 6.75605 2.66318C8.0401 2.50094 9.71027 2.5 12 2.5H12.6452C14.9349 2.5 16.6051 2.50094 17.8891 2.66318C19.1605 2.82384 19.9832 3.13558 20.6142 3.7075C20.7272 3.80996 20.8352 3.91791 20.9377 4.03096C21.5096 4.66198 21.8213 5.48463 21.982 6.75605C22.1442 8.0401 22.1452 9.71027 22.1452 12C22.1452 14.2897 22.1442 15.9599 21.982 17.2439C21.8213 18.5154 21.5096 19.338 20.9377 19.969C20.8352 20.0821 20.7272 20.19 20.6142 20.2925C19.9832 20.8644 19.1605 21.1762 17.8891 21.3368C16.6051 21.4991 14.9349 21.5 12.6452 21.5H12C9.71027 21.5 8.0401 21.4991 6.75605 21.3368C5.48463 21.1762 4.66198 20.8644 4.03096 20.2925C3.91791 20.19 3.80996 20.0821 3.7075 19.969C3.13558 19.338 2.82384 18.5154 2.66318 17.2439C2.50094 15.9599 2.5 14.2897 2.5 12Z" fill="url(#paint0_linear_3109_63504)" stroke="white"/>
<path d="M18.7654 15.5261L18.356 13.4466C18.3105 13.1964 18.0224 13.087 17.8253 13.2434L16.1725 14.5098C15.9602 14.6662 16.0057 15.0102 16.2483 15.1196L16.688 15.2916C16.127 16.5424 15.0959 17.4805 13.8676 17.9027C13.4128 18.059 12.9427 17.7151 12.9427 17.2147V11.9925H14.8381C15.1565 11.9925 15.4598 11.758 15.4901 11.414C15.5204 11.0388 15.2323 10.7104 14.8684 10.7104H12.9275V8.99052C13.8373 8.70908 14.5045 7.8335 14.4893 6.80156C14.4742 5.61327 13.5189 4.62824 12.3665 4.58133C11.1383 4.55006 10.1223 5.56636 10.1223 6.83283C10.1223 7.84913 10.7895 8.70908 11.6841 8.99052V10.7104H9.78874C9.47031 10.7104 9.16705 10.9449 9.13672 11.2889C9.1064 11.6642 9.39449 11.9925 9.75841 11.9925H11.6993V17.2147C11.6993 17.7151 11.2292 18.059 10.7744 17.9027C9.54613 17.4649 8.51502 16.5424 7.95398 15.2916L8.39372 15.1196C8.63633 15.0258 8.68182 14.6818 8.46954 14.5098L6.81674 13.2434C6.61962 13.087 6.33151 13.1964 6.28602 13.4466L5.87662 15.5261C5.83113 15.7919 6.07375 16.0108 6.33152 15.917L6.78642 15.7294C7.75687 17.9652 9.91004 19.4193 12.3058 19.4193C14.7016 19.4193 16.87 17.9496 17.8253 15.7294L18.2802 15.917C18.5683 16.0265 18.826 15.7919 18.7654 15.5261ZM11.396 6.83283C11.396 6.30123 11.8206 5.86344 12.3362 5.86344C12.8517 5.86344 13.2763 6.30123 13.2763 6.83283C13.2763 7.36444 12.8517 7.80222 12.3362 7.80222C11.8206 7.80222 11.396 7.36444 11.396 6.83283Z" fill="white"/>
<defs>
<linearGradient id="paint0_linear_3109_63504" x1="12.3226" y1="2" x2="12.3226" y2="22" gradientUnits="userSpaceOnUse">
<stop stop-color="#0868B9"/>
<stop offset="1" stop-color="#044277"/>
</linearGradient>
</defs>
</svg>
