<svg width="109" height="109" viewBox="0 0 109 109" fill="none" xmlns="http://www.w3.org/2000/svg">
<circle opacity="0.1" cx="53.4994" cy="53.5" r="46.6196" transform="rotate(2.34736 53.4994 53.5)" fill="#0096FF" fill-opacity="0.5" stroke="#0096FF" stroke-width="3.86511"/>
<circle opacity="0.1" cx="53.9414" cy="53.4604" r="26.1432" transform="rotate(2.34736 53.9414 53.4604)" fill="#0096FF" fill-opacity="0.5" stroke="#0096FF" stroke-width="3.86511"/>
<circle cx="53.4836" cy="53.9448" r="15.5169" transform="rotate(2.34736 53.4836 53.9448)" stroke="#0096FF" stroke-opacity="0.4" stroke-width="0.966277"/>
<g clip-path="url(#clip0_3640_18922)">
<path d="M53.6136 61.8966C53.5176 61.9639 53.4031 62 53.2858 62C53.1685 62 53.054 61.9639 52.9579 61.8966H53.6136ZM53.6136 61.8966C53.8572 61.7266 59.5716 57.6644 59.5716 52.2858L53.6136 61.8966ZM53.1014 61.6918L53.101 61.6916C52.9881 61.6128 51.5176 60.5687 50.0778 58.8821C48.6345 57.1914 47.25 54.888 47.25 52.2859C47.2519 50.6857 47.8884 49.1515 49.0199 48.0199C50.1514 46.8884 51.6856 46.2519 53.2858 46.25C54.886 46.2519 56.4201 46.8884 57.5516 48.0199C58.6832 49.1515 59.3197 50.6858 59.3216 52.2861C59.3215 54.8881 57.9371 57.1915 56.4938 58.8821C55.054 60.5687 53.5834 61.6128 53.4706 61.6916L53.4702 61.6918C53.4162 61.7297 53.3518 61.75 53.2858 61.75C53.2198 61.75 53.1554 61.7297 53.1014 61.6918ZM54.6946 50.1774C54.2776 49.8988 53.7873 49.75 53.2858 49.75C52.6133 49.75 51.9683 50.0172 51.4927 50.4927C51.0172 50.9683 50.75 51.6133 50.75 52.2858C50.75 52.7873 50.8988 53.2776 51.1774 53.6946C51.456 54.1116 51.852 54.4366 52.3154 54.6285C52.7787 54.8204 53.2886 54.8706 53.7805 54.7728C54.2724 54.6749 54.7242 54.4334 55.0788 54.0788C55.4334 53.7242 55.6749 53.2724 55.7728 52.7805C55.8706 52.2886 55.8204 51.7787 55.6285 51.3154C55.4366 50.852 55.1116 50.456 54.6946 50.1774Z" fill="#0096FF" stroke="white" stroke-width="0.5"/>
<path d="M43.5 54C43.5 51.7103 43.5009 50.0401 43.6632 48.7561C43.8238 47.4846 44.1356 46.662 44.7075 46.031C44.81 45.9179 44.9179 45.81 45.031 45.7075C45.662 45.1356 46.4846 44.8238 47.7561 44.6632C49.0401 44.5009 50.7103 44.5 53 44.5H53.6452C55.9349 44.5 57.6051 44.5009 58.8891 44.6632C60.1605 44.8238 60.9832 45.1356 61.6142 45.7075C61.7272 45.81 61.8352 45.9179 61.9377 46.031C62.5096 46.662 62.8213 47.4846 62.982 48.7561C63.1442 50.0401 63.1452 51.7103 63.1452 54C63.1452 56.2897 63.1442 57.9599 62.982 59.2439C62.8213 60.5154 62.5096 61.338 61.9377 61.969C61.8352 62.0821 61.7272 62.19 61.6142 62.2925C60.9832 62.8644 60.1605 63.1762 58.8891 63.3368C57.6051 63.4991 55.9349 63.5 53.6452 63.5H53C50.7103 63.5 49.0401 63.4991 47.7561 63.3368C46.4846 63.1762 45.662 62.8644 45.031 62.2925C44.9179 62.19 44.81 62.0821 44.7075 61.969C44.1356 61.338 43.8238 60.5154 43.6632 59.2439C43.5009 57.9599 43.5 56.2897 43.5 54Z" fill="url(#paint0_linear_3640_18922)" stroke="white"/>
<path d="M59.7654 57.5261L59.356 55.4466C59.3105 55.1964 59.0224 55.087 58.8253 55.2434L57.1725 56.5098C56.9602 56.6662 57.0057 57.0102 57.2483 57.1196L57.688 57.2916C57.127 58.5424 56.0959 59.4805 54.8676 59.9027C54.4128 60.059 53.9427 59.7151 53.9427 59.2147V53.9925H55.8381C56.1565 53.9925 56.4598 53.758 56.4901 53.414C56.5204 53.0388 56.2323 52.7104 55.8684 52.7104H53.9275V50.9905C54.8373 50.7091 55.5045 49.8335 55.4893 48.8016C55.4742 47.6133 54.5189 46.6282 53.3665 46.5813C52.1383 46.5501 51.1223 47.5664 51.1223 48.8328C51.1223 49.8491 51.7895 50.7091 52.6841 50.9905V52.7104H50.7887C50.4703 52.7104 50.167 52.9449 50.1367 53.2889C50.1064 53.6642 50.3945 53.9925 50.7584 53.9925H52.6993V59.2147C52.6993 59.7151 52.2292 60.059 51.7744 59.9027C50.5461 59.4649 49.515 58.5424 48.954 57.2916L49.3937 57.1196C49.6363 57.0258 49.6818 56.6818 49.4695 56.5098L47.8167 55.2434C47.6196 55.087 47.3315 55.1964 47.286 55.4466L46.8766 57.5261C46.8311 57.7919 47.0737 58.0108 47.3315 57.917L47.7864 57.7294C48.7569 59.9652 50.91 61.4193 53.3058 61.4193C55.7016 61.4193 57.87 59.9496 58.8253 57.7294L59.2802 57.917C59.5683 58.0265 59.826 57.7919 59.7654 57.5261ZM52.396 48.8328C52.396 48.3012 52.8206 47.8634 53.3362 47.8634C53.8517 47.8634 54.2763 48.3012 54.2763 48.8328C54.2763 49.3644 53.8517 49.8022 53.3362 49.8022C52.8206 49.8022 52.396 49.3644 52.396 48.8328Z" fill="white"/>
</g>
<defs>
<linearGradient id="paint0_linear_3640_18922" x1="53.3226" y1="44" x2="53.3226" y2="64" gradientUnits="userSpaceOnUse">
<stop stop-color="#0868B9"/>
<stop offset="1" stop-color="#044277"/>
</linearGradient>
<clipPath id="clip0_3640_18922">
<rect width="24" height="24" fill="white" transform="translate(41 42)"/>
</clipPath>
</defs>
</svg>
