<svg width="28" height="27" viewBox="0 0 28 27" fill="none" xmlns="http://www.w3.org/2000/svg">
<circle cx="14" cy="13.5" r="12.5514" fill="#E3E3E3" stroke="#404040" stroke-width="1.10277"/>
<circle cx="13.9999" cy="13.5004" r="9.36709" fill="#595959"/>
<mask id="mask0_2179_7824" style="mask-type:alpha" maskUnits="userSpaceOnUse" x="5" y="5" width="19" height="19">
<circle cx="14.5022" cy="14.5011" r="9.38889" fill="#C28B37"/>
</mask>
<g mask="url(#mask0_2179_7824)">
<circle cx="14.0061" cy="13.5016" r="9.38889" fill="url(#paint0_linear_2179_7824)"/>
<path d="M11.4321 18.2968V17.0296L14.4681 13.822C14.7497 13.5316 14.9697 13.2676 15.1281 13.03C15.2953 12.7836 15.4141 12.5504 15.4845 12.3304C15.5637 12.1016 15.6033 11.8728 15.6033 11.644C15.6033 11.204 15.4625 10.8696 15.1809 10.6408C14.8993 10.412 14.4989 10.2976 13.9797 10.2976C13.5749 10.2976 13.1745 10.3768 12.7785 10.5352C12.3825 10.6848 11.9997 10.9224 11.6301 11.248L11.0625 9.96763C11.4321 9.62443 11.8941 9.35603 12.4485 9.16243C13.0117 8.96003 13.5925 8.85883 14.1909 8.85883C14.8597 8.85883 15.4229 8.96443 15.8805 9.17563C16.3381 9.37803 16.6857 9.67283 16.9233 10.06C17.1697 10.4472 17.2929 10.918 17.2929 11.4724C17.2929 11.754 17.2577 12.0312 17.1873 12.304C17.1257 12.568 17.0245 12.832 16.8837 13.096C16.7517 13.3512 16.5801 13.6196 16.3689 13.9012C16.1665 14.174 15.9201 14.4556 15.6297 14.746L13.2405 17.2408V16.8712H17.6493V18.2968H11.4321Z" fill="white"/>
</g>
<defs>
<linearGradient id="paint0_linear_2179_7824" x1="14.0061" y1="4.11273" x2="14.0061" y2="22.8905" gradientUnits="userSpaceOnUse">
<stop stop-color="#9CA1A3"/>
<stop offset="1" stop-color="#9CA1A3" stop-opacity="0"/>
</linearGradient>
</defs>
</svg>
