<svg width="23" height="18" viewBox="0 0 23 18" fill="none" xmlns="http://www.w3.org/2000/svg">
<path d="M0.87099 7.40858L11.371 13.4086C11.4843 13.4734 11.6126 13.5074 11.7432 13.5074C11.8737 13.5074 12.002 13.4734 12.1154 13.4086L22.6154 7.40858C22.7303 7.34304 22.8259 7.24823 22.8924 7.1338C22.9589 7.01936 22.9939 6.88937 22.9939 6.75702C22.9939 6.62467 22.9589 6.49468 22.8924 6.38024C22.8259 6.26581 22.7303 6.171 22.6154 6.10546L12.1154 0.105457C12.002 0.0406702 11.8737 0.0065918 11.7432 0.0065918C11.6126 0.0065918 11.4843 0.0406702 11.371 0.105457L0.87099 6.10546C0.756012 6.171 0.660426 6.26581 0.593938 6.38024C0.52745 6.49468 0.492428 6.62467 0.492428 6.75702C0.492428 6.88937 0.52745 7.01936 0.593938 7.1338C0.660426 7.24823 0.756012 7.34304 0.87099 7.40858ZM11.746 1.61577L20.7338 6.75233L11.746 11.8889L2.75818 6.75233L11.746 1.61577ZM22.8966 10.1273C22.9469 10.213 22.9796 10.3077 22.993 10.4062C23.0063 10.5046 23 10.6046 22.9743 10.7006C22.9487 10.7965 22.9042 10.8864 22.8436 10.965C22.7829 11.0436 22.7073 11.1094 22.621 11.1586L12.121 17.1586C12.0076 17.2234 11.8794 17.2574 11.7488 17.2574C11.6182 17.2574 11.49 17.2234 11.3766 17.1586L0.87099 11.1586C0.785118 11.1093 0.709786 11.0437 0.649296 10.9653C0.588806 10.8869 0.544342 10.7974 0.518444 10.7019C0.492545 10.6063 0.485718 10.5066 0.498353 10.4085C0.510988 10.3103 0.542838 10.2155 0.592084 10.1297C0.64133 10.0438 0.707007 9.96847 0.785366 9.90798C0.863725 9.84749 0.953231 9.80303 1.04877 9.77713C1.24173 9.72482 1.44756 9.75131 1.62099 9.85077L11.746 15.6389L21.871 9.85077C21.9565 9.80143 22.0508 9.76945 22.1487 9.75665C22.2465 9.74385 22.3459 9.75049 22.4412 9.77618C22.5365 9.80188 22.6258 9.84612 22.7039 9.90637C22.782 9.96663 22.8475 10.0417 22.8966 10.1273Z" fill="black"/>
</svg>
