<svg width="16" height="16" viewBox="0 0 16 16" fill="none" xmlns="http://www.w3.org/2000/svg">
<circle cx="8" cy="8" r="7.5" fill="#00802F" stroke="#00802F"/>
<path d="M11.8468 5.88679L6.31002 11.4236C6.26179 11.472 6.20449 11.5104 6.14139 11.5366C6.0783 11.5628 6.01065 11.5763 5.94234 11.5763C5.87402 11.5763 5.80637 11.5628 5.74328 11.5366C5.68018 11.5104 5.62288 11.472 5.57466 11.4236L3.1523 9.00125C3.10401 8.95297 3.06571 8.89565 3.03958 8.83256C3.01345 8.76947 3 8.70186 3 8.63357C3 8.56529 3.01345 8.49767 3.03958 8.43459C3.06571 8.3715 3.10401 8.31418 3.1523 8.26589C3.20058 8.21761 3.2579 8.17931 3.32099 8.15318C3.38408 8.12705 3.45169 8.1136 3.51998 8.1136C3.58826 8.1136 3.65588 8.12705 3.71896 8.15318C3.78205 8.17931 3.83937 8.21761 3.88766 8.26589L5.94277 10.321L11.1123 5.1523C11.2099 5.05478 11.3421 5 11.48 5C11.6179 5 11.7502 5.05478 11.8477 5.1523C11.9452 5.24981 12 5.38207 12 5.51998C12 5.65788 11.9452 5.79014 11.8477 5.88766L11.8468 5.88679Z" fill="white"/>
</svg>
