<svg width="15" height="22" viewBox="0 0 15 22" fill="none" xmlns="http://www.w3.org/2000/svg">
<path d="M8.17178 7.29546C8.10958 7.17065 8.01381 7.06566 7.89524 6.99227C7.77666 6.91888 7.63998 6.88001 7.50053 6.88001C7.36108 6.88001 7.2244 6.91888 7.10582 6.99227C6.98725 7.06566 6.89148 7.17065 6.82928 7.29546L0.0792805 20.7955C-0.0097328 20.9734 -0.0244289 21.1793 0.0384251 21.3681C0.101279 21.5568 0.236535 21.7128 0.414437 21.8019C0.592339 21.8909 0.798315 21.9056 0.987053 21.8427C1.17579 21.7799 1.33183 21.6446 1.42084 21.4667L2.71928 18.8811H12.2912L13.584 21.4667C13.646 21.5906 13.7411 21.6949 13.8587 21.768C13.9764 21.8412 14.112 21.8803 14.2505 21.8811C14.3784 21.881 14.504 21.8483 14.6157 21.786C14.7273 21.7237 14.8211 21.6339 14.8883 21.5251C14.9554 21.4163 14.9937 21.2922 14.9994 21.1645C15.0051 21.0368 14.978 20.9098 14.9208 20.7955L8.17178 7.29546ZM7.50053 9.30827L10.0374 14.3811H4.96366L7.50053 9.30827ZM3.46928 17.3811L4.21928 15.8811H10.7912L11.5412 17.3811H3.46928ZM10.4574 8.16921C10.5347 7.73736 10.5163 7.29383 10.4035 6.86987C10.2907 6.44592 10.0864 6.05184 9.8048 5.71543C9.52322 5.37902 9.1713 5.10846 8.77382 4.92281C8.37634 4.73717 7.94298 4.64095 7.50428 4.64095C7.06558 4.64095 6.63222 4.73717 6.23474 4.92281C5.83726 5.10846 5.48534 5.37902 5.20376 5.71543C4.92219 6.05184 4.71782 6.44592 4.60507 6.86987C4.49231 7.29383 4.47391 7.73736 4.55116 8.16921C4.57117 8.2671 4.57142 8.368 4.55189 8.46598C4.53237 8.56397 4.49346 8.65707 4.43746 8.73981C4.38146 8.82255 4.30949 8.89327 4.22577 8.94781C4.14206 9.00236 4.0483 9.03962 3.94998 9.05742C3.85167 9.07523 3.75079 9.0732 3.65326 9.05148C3.55574 9.02975 3.46354 8.98876 3.38208 8.93091C3.30062 8.87305 3.23154 8.79951 3.1789 8.71459C3.12626 8.62967 3.09111 8.53508 3.07553 8.43639C2.95798 7.78803 2.98425 7.12175 3.15249 6.48465C3.32073 5.84756 3.62684 5.25518 4.04917 4.74938C4.47151 4.24359 4.99978 3.83671 5.59664 3.55751C6.19351 3.27831 6.8444 3.1336 7.50334 3.1336C8.16228 3.1336 8.81318 3.27831 9.41004 3.55751C10.0069 3.83671 10.5352 4.24359 10.9575 4.74938C11.3799 5.25518 11.686 5.84756 11.8542 6.48465C12.0224 7.12175 12.0487 7.78803 11.9312 8.43639C11.9 8.60922 11.8092 8.76563 11.6745 8.87836C11.5398 8.99108 11.3699 9.05298 11.1943 9.05327C11.1493 9.05289 11.1045 9.04881 11.0602 9.04108C10.963 9.0239 10.8701 8.98768 10.7869 8.93452C10.7037 8.88136 10.6319 8.8123 10.5754 8.7313C10.519 8.65029 10.4791 8.55894 10.458 8.46248C10.437 8.36603 10.4352 8.26636 10.4527 8.16921H10.4574ZM1.51459 12.1508C0.674221 11.0375 0.160943 9.71198 0.0324312 8.32309C-0.0960808 6.9342 0.165265 5.53698 0.787105 4.28844C1.40894 3.0399 2.36664 1.9895 3.55257 1.25528C4.73851 0.521047 6.1057 0.13208 7.50053 0.13208C8.89536 0.13208 10.2625 0.521047 11.4485 1.25528C12.6344 1.9895 13.5921 3.0399 14.214 4.28844C14.8358 5.53698 15.0971 6.9342 14.9686 8.32309C14.8401 9.71198 14.3268 11.0375 13.4865 12.1508C13.3653 12.306 13.1879 12.4073 12.9927 12.4329C12.7974 12.4585 12.5999 12.4063 12.4429 12.2875C12.2858 12.1687 12.1818 11.9929 12.1532 11.798C12.1246 11.6032 12.1738 11.4049 12.2902 11.2461C12.9622 10.3554 13.3725 9.29502 13.4751 8.18402C13.5777 7.07302 13.3685 5.95542 12.8709 4.95677C12.3734 3.95811 11.6072 3.11798 10.6586 2.53072C9.70989 1.94347 8.61626 1.63237 7.50053 1.63237C6.3848 1.63237 5.29117 1.94347 4.3425 2.53072C3.39382 3.11798 2.62768 3.95811 2.13014 4.95677C1.6326 5.95542 1.42336 7.07302 1.52594 8.18402C1.62852 9.29502 2.03886 10.3554 2.71084 11.2461C2.82721 11.4049 2.87643 11.6032 2.84787 11.798C2.81931 11.9929 2.71526 12.1687 2.55819 12.2875C2.40113 12.4063 2.20365 12.4585 2.00839 12.4329C1.81313 12.4073 1.63577 12.306 1.51459 12.1508Z" fill="black"/>
</svg>
