<svg width="24" height="24" viewBox="0 0 24 24" fill="none" xmlns="http://www.w3.org/2000/svg">
<path d="M13.334 6.79316L17.7767 14.6205C17.9198 14.8753 18 15.1589 18 15.431C18 16.3168 17.4103 17 16.437 17H7.56298C6.58969 17 6 16.3168 6 15.431C6 15.1589 6.0687 14.8811 6.22328 14.6205L10.666 6.79316C10.958 6.26632 11.4733 6 12 6C12.5267 6 13.0363 6.26632 13.334 6.79316ZM11.3645 14.4526C11.3645 14.7942 11.6622 15.0721 12.0057 15.0721C12.3435 15.0721 12.6412 14.8 12.6412 14.4526C12.6412 14.0995 12.3492 13.8273 12.0057 13.8273C11.6565 13.8273 11.3645 14.1053 11.3645 14.4526ZM11.4618 9.50263L11.5362 12.6521C11.542 12.959 11.708 13.1326 12.0057 13.1326C12.2863 13.1326 12.4523 12.9647 12.458 12.6521L12.5439 9.50842C12.5496 9.20158 12.3091 8.97579 12 8.97579C11.6794 8.97579 11.4561 9.19578 11.4618 9.50263Z" fill="#030C13"/>
</svg>
