<svg width="27" height="27" viewBox="0 0 27 27" fill="none" xmlns="http://www.w3.org/2000/svg">
<path d="M24.3831 19.8613L15.5015 4.43696C15.2795 4.05907 14.9627 3.74575 14.5823 3.52804C14.202 3.31033 13.7714 3.1958 13.3331 3.1958C12.8949 3.1958 12.4642 3.31033 12.0839 3.52804C11.7036 3.74575 11.3867 4.05907 11.1648 4.43696L2.28312 19.8613C2.06957 20.2268 1.95703 20.6425 1.95703 21.0658C1.95703 21.4891 2.06957 21.9048 2.28312 22.2703C2.50222 22.6505 2.81853 22.9655 3.19958 23.1831C3.58063 23.4007 4.01271 23.5129 4.45148 23.5084H22.2148C22.6532 23.5126 23.0848 23.4001 23.4655 23.1826C23.8462 22.965 24.1622 22.6502 24.3811 22.2703C24.5949 21.905 24.7078 21.4894 24.7082 21.0661C24.7086 20.6427 24.5964 20.2269 24.3831 19.8613ZM12.5206 11.3209C12.5206 11.1054 12.6062 10.8987 12.7586 10.7463C12.911 10.594 13.1176 10.5084 13.3331 10.5084C13.5486 10.5084 13.7553 10.594 13.9076 10.7463C14.06 10.8987 14.1456 11.1054 14.1456 11.3209V15.3834C14.1456 15.5989 14.06 15.8055 13.9076 15.9579C13.7553 16.1103 13.5486 16.1959 13.3331 16.1959C13.1176 16.1959 12.911 16.1103 12.7586 15.9579C12.6062 15.8055 12.5206 15.5989 12.5206 15.3834V11.3209ZM13.3331 20.2584C13.0921 20.2584 12.8564 20.1869 12.656 20.053C12.4556 19.9191 12.2994 19.7287 12.2071 19.506C12.1149 19.2833 12.0908 19.0383 12.1378 18.8019C12.1848 18.5654 12.3009 18.3483 12.4713 18.1778C12.6418 18.0074 12.8589 17.8913 13.0954 17.8443C13.3318 17.7973 13.5768 17.8214 13.7995 17.9136C14.0222 18.0059 14.2126 18.1621 14.3465 18.3625C14.4804 18.5629 14.5519 18.7986 14.5519 19.0396C14.5519 19.3629 14.4235 19.6728 14.1949 19.9014C13.9663 20.13 13.6564 20.2584 13.3331 20.2584Z" fill="white"/>
</svg>
