<svg width="21" height="21" viewBox="0 0 21 21" fill="none" xmlns="http://www.w3.org/2000/svg">
<path d="M10.5 8C10.0055 8 9.5222 8.14662 9.11108 8.42133C8.69995 8.69603 8.37952 9.08648 8.1903 9.54329C8.00108 10.0001 7.95157 10.5028 8.04804 10.9877C8.1445 11.4727 8.3826 11.9181 8.73223 12.2678C9.08186 12.6174 9.52732 12.8555 10.0123 12.952C10.4972 13.0484 10.9999 12.9989 11.4567 12.8097C11.9135 12.6205 12.304 12.3 12.5787 11.8889C12.8534 11.4778 13 10.9945 13 10.5C13 9.83696 12.7366 9.20107 12.2678 8.73223C11.7989 8.26339 11.163 8 10.5 8ZM10.5 11.75C10.2528 11.75 10.0111 11.6767 9.80554 11.5393C9.59998 11.402 9.43976 11.2068 9.34515 10.9784C9.25054 10.7499 9.22579 10.4986 9.27402 10.2561C9.32225 10.0137 9.4413 9.79093 9.61612 9.61612C9.79093 9.4413 10.0137 9.32225 10.2561 9.27402C10.4986 9.22579 10.7499 9.25054 10.9784 9.34515C11.2068 9.43976 11.402 9.59998 11.5393 9.80554C11.6767 10.0111 11.75 10.2528 11.75 10.5C11.75 10.8315 11.6183 11.1495 11.3839 11.3839C11.1495 11.6183 10.8315 11.75 10.5 11.75ZM4.25 8C3.75555 8 3.2722 8.14662 2.86108 8.42133C2.44995 8.69603 2.12952 9.08648 1.9403 9.54329C1.75108 10.0001 1.70157 10.5028 1.79804 10.9877C1.8945 11.4727 2.1326 11.9181 2.48223 12.2678C2.83187 12.6174 3.27732 12.8555 3.76228 12.952C4.24723 13.0484 4.74989 12.9989 5.20671 12.8097C5.66352 12.6205 6.05397 12.3 6.32867 11.8889C6.60338 11.4778 6.75 10.9945 6.75 10.5C6.75 9.83696 6.48661 9.20107 6.01777 8.73223C5.54893 8.26339 4.91304 8 4.25 8ZM4.25 11.75C4.00277 11.75 3.7611 11.6767 3.55554 11.5393C3.34998 11.402 3.18976 11.2068 3.09515 10.9784C3.00054 10.7499 2.97579 10.4986 3.02402 10.2561C3.07225 10.0137 3.1913 9.79093 3.36612 9.61612C3.54093 9.4413 3.76366 9.32225 4.00614 9.27402C4.24861 9.22579 4.49995 9.25054 4.72836 9.34515C4.95676 9.43976 5.15199 9.59998 5.28934 9.80554C5.42669 10.0111 5.5 10.2528 5.5 10.5C5.5 10.8315 5.3683 11.1495 5.13388 11.3839C4.89946 11.6183 4.58152 11.75 4.25 11.75ZM16.75 8C16.2555 8 15.7722 8.14662 15.3611 8.42133C14.95 8.69603 14.6295 9.08648 14.4403 9.54329C14.2511 10.0001 14.2016 10.5028 14.298 10.9877C14.3945 11.4727 14.6326 11.9181 14.9822 12.2678C15.3319 12.6174 15.7773 12.8555 16.2623 12.952C16.7472 13.0484 17.2499 12.9989 17.7067 12.8097C18.1635 12.6205 18.554 12.3 18.8287 11.8889C19.1034 11.4778 19.25 10.9945 19.25 10.5C19.25 9.83696 18.9866 9.20107 18.5178 8.73223C18.0489 8.26339 17.413 8 16.75 8ZM16.75 11.75C16.5028 11.75 16.2611 11.6767 16.0555 11.5393C15.85 11.402 15.6898 11.2068 15.5952 10.9784C15.5005 10.7499 15.4758 10.4986 15.524 10.2561C15.5722 10.0137 15.6913 9.79093 15.8661 9.61612C16.0409 9.4413 16.2637 9.32225 16.5061 9.27402C16.7486 9.22579 16.9999 9.25054 17.2284 9.34515C17.4568 9.43976 17.652 9.59998 17.7893 9.80554C17.9267 10.0111 18 10.2528 18 10.5C18 10.8315 17.8683 11.1495 17.6339 11.3839C17.3995 11.6183 17.0815 11.75 16.75 11.75Z" fill="black"/>
</svg>
