<svg width="466" height="231" viewBox="0 0 466 231" fill="none" xmlns="http://www.w3.org/2000/svg">
<rect width="465.333" height="231" transform="translate(0.664062)" fill="#F9FAFA"/>
<path d="M223.622 110.29L241.622 92.2902C241.81 92.1019 242.066 91.9961 242.332 91.9961C242.598 91.9961 242.854 92.1019 243.042 92.2902C243.23 92.4785 243.336 92.7339 243.336 93.0002C243.336 93.2665 243.23 93.5219 243.042 93.7102L239.042 97.7102C240.311 99.6696 241.004 101.946 241.042 104.28C241.031 106.323 240.216 108.279 238.773 109.724C237.329 111.169 235.374 111.987 233.332 112C232.215 112.005 231.11 111.765 230.096 111.297C229.082 110.828 228.183 110.144 227.462 109.29L225.042 111.71C224.949 111.804 224.838 111.878 224.716 111.929C224.595 111.98 224.464 112.006 224.332 112.006C224.2 112.006 224.069 111.98 223.947 111.929C223.825 111.878 223.715 111.804 223.622 111.71C223.528 111.617 223.454 111.507 223.403 111.385C223.352 111.263 223.326 111.132 223.326 111C223.326 110.868 223.352 110.737 223.403 110.616C223.454 110.494 223.528 110.383 223.622 110.29ZM233.332 110C234.856 109.998 236.317 109.391 237.395 108.313C238.473 107.235 239.079 105.774 239.082 104.25C239.048 102.448 238.541 100.686 237.612 99.1402L228.872 107.87C229.406 108.539 230.085 109.078 230.858 109.447C231.63 109.816 232.476 110.005 233.332 110ZM234.482 95.2402C234.032 94.8202 233.632 94.4902 233.332 94.2402C231.902 95.3602 228.202 98.6702 227.652 103.12C227.622 103.364 227.504 103.589 227.32 103.751C227.135 103.913 226.898 104.002 226.652 104H226.532C226.27 103.968 226.031 103.833 225.868 103.625C225.705 103.417 225.631 103.153 225.662 102.89C226.442 96.4602 232.512 92.3402 232.762 92.1702C232.927 92.0584 233.122 91.9987 233.322 91.9987C233.521 91.9987 233.716 92.0584 233.882 92.1702C234.571 92.6619 235.226 93.1998 235.842 93.7802C236.015 93.9652 236.111 94.209 236.112 94.4623C236.112 94.7157 236.016 94.9597 235.843 95.1451C235.671 95.3304 235.434 95.4434 235.181 95.461C234.929 95.4787 234.679 95.3998 234.482 95.2402Z" fill="#90A2A2" fill-opacity="0.5" stroke="#90A2A2" stroke-opacity="0.5"/>
<path d="M82.2247 137L83.7927 127.13H89.8967L89.7427 128.096H84.8007L84.2407 131.54H88.9167L88.7627 132.506H84.1007L83.3727 137H82.2247ZM91.9983 137.126C91.5129 137.126 91.0976 137.023 90.7523 136.818C90.4163 136.613 90.1783 136.305 90.0383 135.894C89.8983 135.474 89.8796 134.942 89.9823 134.298L90.6263 130.196H91.7603L91.1163 134.298C91.0509 134.718 91.0509 135.068 91.1163 135.348C91.1816 135.628 91.3169 135.838 91.5223 135.978C91.7276 136.118 91.9983 136.188 92.3343 136.188C92.7729 136.188 93.1509 136.095 93.4683 135.908C93.7856 135.712 94.0469 135.441 94.2523 135.096C94.4576 134.751 94.5976 134.345 94.6723 133.878L95.2463 130.196H96.3803L95.3023 137H94.1963L94.4343 135.46H94.5743C94.3596 135.983 94.0236 136.393 93.5663 136.692C93.1183 136.981 92.5956 137.126 91.9983 137.126ZM100.686 137.126C100.042 137.126 99.4819 137.005 99.0059 136.762C98.5299 136.519 98.1612 136.174 97.8999 135.726C97.6479 135.269 97.5219 134.732 97.5219 134.116C97.5219 133.379 97.6712 132.707 97.9699 132.1C98.2686 131.484 98.6886 130.994 99.2299 130.63C99.7712 130.257 100.415 130.07 101.162 130.07C101.871 130.07 102.431 130.233 102.842 130.56C103.262 130.887 103.547 131.316 103.696 131.848C103.845 132.371 103.878 132.935 103.794 133.542L103.752 133.836H98.4039L98.5159 133.094H103.108L102.856 133.276C102.921 132.837 102.907 132.441 102.814 132.086C102.721 131.731 102.539 131.447 102.268 131.232C101.997 131.017 101.624 130.91 101.148 130.91C100.644 130.91 100.224 131.027 99.8879 131.26C99.5519 131.484 99.2859 131.773 99.0899 132.128C98.9032 132.483 98.7772 132.851 98.7119 133.234L98.6559 133.57C98.5719 134.102 98.5999 134.569 98.7399 134.97C98.8799 135.362 99.1179 135.67 99.4539 135.894C99.7992 136.109 100.229 136.216 100.742 136.216C101.171 136.216 101.573 136.155 101.946 136.034C102.319 135.903 102.655 135.703 102.954 135.432L103.332 136.202C103.015 136.501 102.618 136.729 102.142 136.888C101.666 137.047 101.181 137.126 100.686 137.126ZM106.975 137.126C106.303 137.126 105.813 136.93 105.505 136.538C105.197 136.137 105.104 135.549 105.225 134.774L106.443 127.13H107.577L106.359 134.774C106.312 135.101 106.312 135.367 106.359 135.572C106.406 135.777 106.508 135.927 106.667 136.02C106.835 136.113 107.05 136.16 107.311 136.16C107.423 136.16 107.53 136.155 107.633 136.146C107.745 136.127 107.857 136.109 107.969 136.09L107.801 137.014C107.68 137.051 107.544 137.079 107.395 137.098C107.255 137.117 107.115 137.126 106.975 137.126ZM115.427 137.126C114.895 137.126 114.457 137.023 114.111 136.818C113.775 136.613 113.537 136.328 113.397 135.964C113.267 135.6 113.239 135.166 113.313 134.662L113.887 131.078H112.543L112.697 130.196H114.027L114.349 128.11H115.483L115.161 130.196H117.317L117.163 131.078H115.007L114.461 134.55C114.377 135.119 114.438 135.53 114.643 135.782C114.849 136.034 115.18 136.16 115.637 136.16C115.796 136.16 115.945 136.146 116.085 136.118C116.225 136.081 116.351 136.043 116.463 136.006L116.575 136.888C116.454 136.953 116.281 137.009 116.057 137.056C115.843 137.103 115.633 137.126 115.427 137.126ZM117.982 139.52L119.69 136.65L119.62 137.14L117.744 130.196H118.906L120.404 136.174H120.012L123.456 130.196H124.688L119.172 139.52H117.982ZM124.389 139.52L125.859 130.196H126.979L126.755 131.638H126.615C126.774 131.311 126.979 131.031 127.231 130.798C127.483 130.565 127.773 130.387 128.099 130.266C128.435 130.135 128.795 130.07 129.177 130.07C129.709 130.07 130.171 130.187 130.563 130.42C130.965 130.653 131.273 130.989 131.487 131.428C131.702 131.867 131.809 132.389 131.809 132.996C131.809 133.743 131.674 134.429 131.403 135.054C131.142 135.679 130.755 136.183 130.241 136.566C129.737 136.939 129.121 137.126 128.393 137.126C127.852 137.126 127.367 136.991 126.937 136.72C126.508 136.44 126.214 136.02 126.055 135.46H126.167L125.523 139.52H124.389ZM128.253 136.216C128.776 136.216 129.215 136.071 129.569 135.782C129.924 135.493 130.195 135.105 130.381 134.62C130.568 134.135 130.661 133.603 130.661 133.024C130.661 132.352 130.498 131.843 130.171 131.498C129.845 131.153 129.397 130.98 128.827 130.98C128.314 130.98 127.875 131.125 127.511 131.414C127.157 131.703 126.886 132.086 126.699 132.562C126.513 133.038 126.419 133.575 126.419 134.172C126.419 134.835 126.583 135.343 126.909 135.698C127.236 136.043 127.684 136.216 128.253 136.216ZM136.205 137.126C135.561 137.126 135.001 137.005 134.525 136.762C134.049 136.519 133.681 136.174 133.419 135.726C133.167 135.269 133.041 134.732 133.041 134.116C133.041 133.379 133.191 132.707 133.489 132.1C133.788 131.484 134.208 130.994 134.749 130.63C135.291 130.257 135.935 130.07 136.681 130.07C137.391 130.07 137.951 130.233 138.361 130.56C138.781 130.887 139.066 131.316 139.215 131.848C139.365 132.371 139.397 132.935 139.313 133.542L139.271 133.836H133.923L134.035 133.094H138.627L138.375 133.276C138.441 132.837 138.427 132.441 138.333 132.086C138.24 131.731 138.058 131.447 137.787 131.232C137.517 131.017 137.143 130.91 136.667 130.91C136.163 130.91 135.743 131.027 135.407 131.26C135.071 131.484 134.805 131.773 134.609 132.128C134.423 132.483 134.297 132.851 134.231 133.234L134.175 133.57C134.091 134.102 134.119 134.569 134.259 134.97C134.399 135.362 134.637 135.67 134.973 135.894C135.319 136.109 135.748 136.216 136.261 136.216C136.691 136.216 137.092 136.155 137.465 136.034C137.839 135.903 138.175 135.703 138.473 135.432L138.851 136.202C138.534 136.501 138.137 136.729 137.661 136.888C137.185 137.047 136.7 137.126 136.205 137.126ZM145.222 128.502L145.418 127.228H146.818L146.608 128.502H145.222ZM143.99 137L145.068 130.196H146.202L145.124 137H143.99ZM149.848 137.126C149.298 137.126 148.784 137.051 148.308 136.902C147.832 136.753 147.445 136.547 147.146 136.286L147.566 135.502C147.79 135.679 148.024 135.824 148.266 135.936C148.518 136.039 148.775 136.118 149.036 136.174C149.307 136.23 149.582 136.258 149.862 136.258C150.366 136.258 150.758 136.16 151.038 135.964C151.328 135.759 151.472 135.474 151.472 135.11C151.472 134.877 151.393 134.685 151.234 134.536C151.085 134.377 150.866 134.265 150.576 134.2L149.246 133.878C148.78 133.766 148.411 133.565 148.14 133.276C147.879 132.977 147.748 132.613 147.748 132.184C147.748 131.783 147.86 131.423 148.084 131.106C148.308 130.779 148.63 130.527 149.05 130.35C149.47 130.163 149.965 130.07 150.534 130.07C150.842 130.07 151.146 130.103 151.444 130.168C151.743 130.233 152.018 130.331 152.27 130.462C152.532 130.593 152.746 130.747 152.914 130.924L152.522 131.694C152.252 131.433 151.944 131.241 151.598 131.12C151.253 130.999 150.884 130.938 150.492 130.938C149.97 130.938 149.559 131.045 149.26 131.26C148.962 131.475 148.812 131.764 148.812 132.128C148.812 132.352 148.882 132.548 149.022 132.716C149.162 132.875 149.372 132.987 149.652 133.052L150.982 133.374C151.477 133.495 151.86 133.696 152.13 133.976C152.41 134.247 152.55 134.601 152.55 135.04C152.55 135.469 152.438 135.843 152.214 136.16C151.99 136.468 151.673 136.706 151.262 136.874C150.861 137.042 150.39 137.126 149.848 137.126ZM157.58 137L158.672 130.196H159.778L159.526 131.736H159.386C159.619 131.204 159.96 130.793 160.408 130.504C160.865 130.215 161.407 130.07 162.032 130.07C162.536 130.07 162.956 130.173 163.292 130.378C163.637 130.574 163.88 130.882 164.02 131.302C164.169 131.713 164.193 132.24 164.09 132.884L163.446 137H162.312L162.956 132.884C163.031 132.464 163.031 132.114 162.956 131.834C162.881 131.554 162.741 131.344 162.536 131.204C162.331 131.064 162.051 130.994 161.696 130.994C161.248 130.994 160.856 131.092 160.52 131.288C160.184 131.475 159.913 131.741 159.708 132.086C159.512 132.431 159.377 132.837 159.302 133.304L158.714 137H157.58ZM168.589 137.126C167.983 137.126 167.455 137.005 167.007 136.762C166.569 136.519 166.228 136.174 165.985 135.726C165.752 135.278 165.635 134.746 165.635 134.13C165.635 133.551 165.719 133.019 165.887 132.534C166.065 132.039 166.312 131.605 166.629 131.232C166.947 130.859 167.32 130.574 167.749 130.378C168.188 130.173 168.683 130.07 169.233 130.07C169.84 130.07 170.363 130.191 170.801 130.434C171.249 130.677 171.59 131.022 171.823 131.47C172.057 131.909 172.173 132.441 172.173 133.066C172.173 133.645 172.089 134.181 171.921 134.676C171.753 135.161 171.511 135.591 171.193 135.964C170.876 136.328 170.498 136.613 170.059 136.818C169.621 137.023 169.131 137.126 168.589 137.126ZM168.631 136.216C169.145 136.216 169.579 136.071 169.933 135.782C170.297 135.493 170.568 135.105 170.745 134.62C170.932 134.135 171.025 133.603 171.025 133.024C171.025 132.352 170.862 131.843 170.535 131.498C170.218 131.153 169.77 130.98 169.191 130.98C168.678 130.98 168.239 131.125 167.875 131.414C167.521 131.703 167.25 132.086 167.063 132.562C166.877 133.038 166.783 133.575 166.783 134.172C166.783 134.835 166.947 135.343 167.273 135.698C167.6 136.043 168.053 136.216 168.631 136.216ZM176.062 137.126C175.53 137.126 175.091 137.023 174.746 136.818C174.41 136.613 174.172 136.328 174.032 135.964C173.901 135.6 173.873 135.166 173.948 134.662L174.522 131.078H173.178L173.332 130.196H174.662L174.984 128.11H176.118L175.796 130.196H177.952L177.798 131.078H175.642L175.096 134.55C175.012 135.119 175.073 135.53 175.278 135.782C175.483 136.034 175.815 136.16 176.272 136.16C176.431 136.16 176.58 136.146 176.72 136.118C176.86 136.081 176.986 136.043 177.098 136.006L177.21 136.888C177.089 136.953 176.916 137.009 176.692 137.056C176.477 137.103 176.267 137.126 176.062 137.126ZM184.006 137.126C183.614 137.126 183.246 137.037 182.9 136.86C182.564 136.683 182.294 136.44 182.088 136.132C181.883 135.824 181.78 135.474 181.78 135.082C181.78 134.597 181.911 134.209 182.172 133.92C182.443 133.621 182.863 133.402 183.432 133.262C184.002 133.122 184.734 133.052 185.63 133.052H186.75L186.638 133.794H185.784C185.066 133.794 184.496 133.831 184.076 133.906C183.666 133.981 183.372 134.107 183.194 134.284C183.017 134.461 182.928 134.704 182.928 135.012C182.928 135.423 183.064 135.735 183.334 135.95C183.614 136.165 183.932 136.272 184.286 136.272C184.632 136.272 184.949 136.197 185.238 136.048C185.537 135.899 185.789 135.679 185.994 135.39C186.2 135.091 186.335 134.741 186.4 134.34L186.666 132.632C186.76 132.091 186.69 131.68 186.456 131.4C186.232 131.12 185.822 130.98 185.224 130.98C184.804 130.98 184.403 131.036 184.02 131.148C183.647 131.26 183.278 131.442 182.914 131.694L182.592 130.868C182.816 130.7 183.078 130.56 183.376 130.448C183.675 130.327 183.992 130.233 184.328 130.168C184.674 130.103 185.014 130.07 185.35 130.07C185.985 130.07 186.489 130.191 186.862 130.434C187.245 130.667 187.506 130.999 187.646 131.428C187.786 131.857 187.81 132.361 187.716 132.94L187.072 137H185.994L186.232 135.46H186.372C186.251 135.833 186.064 136.146 185.812 136.398C185.57 136.641 185.29 136.823 184.972 136.944C184.655 137.065 184.333 137.126 184.006 137.126ZM191.096 137L189.262 130.196H190.438L191.922 136.16H191.544L194.96 130.196H196.178L192.174 137H191.096ZM198.43 137.126C198.038 137.126 197.67 137.037 197.324 136.86C196.988 136.683 196.718 136.44 196.512 136.132C196.307 135.824 196.204 135.474 196.204 135.082C196.204 134.597 196.335 134.209 196.596 133.92C196.867 133.621 197.287 133.402 197.856 133.262C198.426 133.122 199.158 133.052 200.054 133.052H201.174L201.062 133.794H200.208C199.49 133.794 198.92 133.831 198.5 133.906C198.09 133.981 197.796 134.107 197.618 134.284C197.441 134.461 197.352 134.704 197.352 135.012C197.352 135.423 197.488 135.735 197.758 135.95C198.038 136.165 198.356 136.272 198.71 136.272C199.056 136.272 199.373 136.197 199.662 136.048C199.961 135.899 200.213 135.679 200.418 135.39C200.624 135.091 200.759 134.741 200.824 134.34L201.09 132.632C201.184 132.091 201.114 131.68 200.88 131.4C200.656 131.12 200.246 130.98 199.648 130.98C199.228 130.98 198.827 131.036 198.444 131.148C198.071 131.26 197.702 131.442 197.338 131.694L197.016 130.868C197.24 130.7 197.502 130.56 197.8 130.448C198.099 130.327 198.416 130.233 198.752 130.168C199.098 130.103 199.438 130.07 199.774 130.07C200.409 130.07 200.913 130.191 201.286 130.434C201.669 130.667 201.93 130.999 202.07 131.428C202.21 131.857 202.234 132.361 202.14 132.94L201.496 137H200.418L200.656 135.46H200.796C200.675 135.833 200.488 136.146 200.236 136.398C199.994 136.641 199.714 136.823 199.396 136.944C199.079 137.065 198.757 137.126 198.43 137.126ZM204.818 128.502L205.014 127.228H206.414L206.204 128.502H204.818ZM203.586 137L204.664 130.196H205.798L204.72 137H203.586ZM208.94 137.126C208.268 137.126 207.778 136.93 207.47 136.538C207.162 136.137 207.069 135.549 207.19 134.774L208.408 127.13H209.542L208.324 134.774C208.277 135.101 208.277 135.367 208.324 135.572C208.371 135.777 208.473 135.927 208.632 136.02C208.8 136.113 209.015 136.16 209.276 136.16C209.388 136.16 209.495 136.155 209.598 136.146C209.71 136.127 209.822 136.109 209.934 136.09L209.766 137.014C209.645 137.051 209.509 137.079 209.36 137.098C209.22 137.117 209.08 137.126 208.94 137.126ZM213.251 137.126C212.859 137.126 212.49 137.037 212.145 136.86C211.809 136.683 211.538 136.44 211.333 136.132C211.127 135.824 211.025 135.474 211.025 135.082C211.025 134.597 211.155 134.209 211.417 133.92C211.687 133.621 212.107 133.402 212.677 133.262C213.246 133.122 213.979 133.052 214.875 133.052H215.995L215.883 133.794H215.029C214.31 133.794 213.741 133.831 213.321 133.906C212.91 133.981 212.616 134.107 212.439 134.284C212.261 134.461 212.173 134.704 212.173 135.012C212.173 135.423 212.308 135.735 212.579 135.95C212.859 136.165 213.176 136.272 213.531 136.272C213.876 136.272 214.193 136.197 214.483 136.048C214.781 135.899 215.033 135.679 215.239 135.39C215.444 135.091 215.579 134.741 215.645 134.34L215.911 132.632C216.004 132.091 215.934 131.68 215.701 131.4C215.477 131.12 215.066 130.98 214.469 130.98C214.049 130.98 213.647 131.036 213.265 131.148C212.891 131.26 212.523 131.442 212.159 131.694L211.837 130.868C212.061 130.7 212.322 130.56 212.621 130.448C212.919 130.327 213.237 130.233 213.573 130.168C213.918 130.103 214.259 130.07 214.595 130.07C215.229 130.07 215.733 130.191 216.107 130.434C216.489 130.667 216.751 130.999 216.891 131.428C217.031 131.857 217.054 132.361 216.961 132.94L216.317 137H215.239L215.477 135.46H215.617C215.495 135.833 215.309 136.146 215.057 136.398C214.814 136.641 214.534 136.823 214.217 136.944C213.899 137.065 213.577 137.126 213.251 137.126ZM222.018 137.126C221.477 137.126 220.992 136.991 220.562 136.72C220.133 136.44 219.839 136.02 219.68 135.46H219.764L219.526 137H218.406L219.974 127.13H221.108L220.394 131.638H220.24C220.399 131.311 220.604 131.031 220.856 130.798C221.108 130.565 221.398 130.387 221.724 130.266C222.06 130.135 222.42 130.07 222.802 130.07C223.334 130.07 223.796 130.187 224.188 130.42C224.59 130.653 224.898 130.989 225.112 131.428C225.327 131.867 225.434 132.385 225.434 132.982C225.434 133.729 225.299 134.419 225.028 135.054C224.767 135.679 224.38 136.183 223.866 136.566C223.362 136.939 222.746 137.126 222.018 137.126ZM221.878 136.216C222.401 136.216 222.84 136.071 223.194 135.782C223.549 135.493 223.82 135.105 224.006 134.62C224.193 134.135 224.286 133.603 224.286 133.024C224.286 132.352 224.123 131.843 223.796 131.498C223.47 131.153 223.022 130.98 222.452 130.98C221.939 130.98 221.5 131.125 221.136 131.414C220.782 131.703 220.511 132.086 220.324 132.562C220.138 133.038 220.044 133.575 220.044 134.172C220.044 134.835 220.208 135.343 220.534 135.698C220.861 136.043 221.309 136.216 221.878 136.216ZM228.668 137.126C227.996 137.126 227.506 136.93 227.198 136.538C226.89 136.137 226.797 135.549 226.918 134.774L228.136 127.13H229.27L228.052 134.774C228.006 135.101 228.006 135.367 228.052 135.572C228.099 135.777 228.202 135.927 228.36 136.02C228.528 136.113 228.743 136.16 229.004 136.16C229.116 136.16 229.224 136.155 229.326 136.146C229.438 136.127 229.55 136.109 229.662 136.09L229.494 137.014C229.373 137.051 229.238 137.079 229.088 137.098C228.948 137.117 228.808 137.126 228.668 137.126ZM233.905 137.126C233.261 137.126 232.701 137.005 232.225 136.762C231.749 136.519 231.38 136.174 231.119 135.726C230.867 135.269 230.741 134.732 230.741 134.116C230.741 133.379 230.89 132.707 231.189 132.1C231.487 131.484 231.907 130.994 232.449 130.63C232.99 130.257 233.634 130.07 234.381 130.07C235.09 130.07 235.65 130.233 236.061 130.56C236.481 130.887 236.765 131.316 236.915 131.848C237.064 132.371 237.097 132.935 237.013 133.542L236.971 133.836H231.623L231.735 133.094H236.327L236.075 133.276C236.14 132.837 236.126 132.441 236.033 132.086C235.939 131.731 235.757 131.447 235.487 131.232C235.216 131.017 234.843 130.91 234.367 130.91C233.863 130.91 233.443 131.027 233.107 131.26C232.771 131.484 232.505 131.773 232.309 132.128C232.122 132.483 231.996 132.851 231.931 133.234L231.875 133.57C231.791 134.102 231.819 134.569 231.959 134.97C232.099 135.362 232.337 135.67 232.673 135.894C233.018 136.109 233.447 136.216 233.961 136.216C234.39 136.216 234.791 136.155 235.165 136.034C235.538 135.903 235.874 135.703 236.173 135.432L236.551 136.202C236.233 136.501 235.837 136.729 235.361 136.888C234.885 137.047 234.399 137.126 233.905 137.126ZM242.068 137L243.006 131.078H241.676L241.816 130.196H243.3L243.118 130.35L243.216 129.664C243.3 129.16 243.463 128.721 243.706 128.348C243.958 127.975 244.289 127.685 244.7 127.48C245.11 127.265 245.614 127.144 246.212 127.116L246.912 127.088V127.956L246.24 127.998C245.857 128.026 245.535 128.105 245.274 128.236C245.022 128.367 244.816 128.553 244.658 128.796C244.508 129.029 244.406 129.328 244.35 129.692L244.252 130.308L244.154 130.196H246.226L246.086 131.078H244.14L243.202 137H242.068ZM249.212 137.126C248.606 137.126 248.078 137.005 247.63 136.762C247.192 136.519 246.851 136.174 246.608 135.726C246.375 135.278 246.258 134.746 246.258 134.13C246.258 133.551 246.342 133.019 246.51 132.534C246.688 132.039 246.935 131.605 247.252 131.232C247.57 130.859 247.943 130.574 248.372 130.378C248.811 130.173 249.306 130.07 249.856 130.07C250.463 130.07 250.986 130.191 251.424 130.434C251.872 130.677 252.213 131.022 252.446 131.47C252.68 131.909 252.796 132.441 252.796 133.066C252.796 133.645 252.712 134.181 252.544 134.676C252.376 135.161 252.134 135.591 251.816 135.964C251.499 136.328 251.121 136.613 250.682 136.818C250.244 137.023 249.754 137.126 249.212 137.126ZM249.254 136.216C249.768 136.216 250.202 136.071 250.556 135.782C250.92 135.493 251.191 135.105 251.368 134.62C251.555 134.135 251.648 133.603 251.648 133.024C251.648 132.352 251.485 131.843 251.158 131.498C250.841 131.153 250.393 130.98 249.814 130.98C249.301 130.98 248.862 131.125 248.498 131.414C248.144 131.703 247.873 132.086 247.686 132.562C247.5 133.038 247.406 133.575 247.406 134.172C247.406 134.835 247.57 135.343 247.896 135.698C248.223 136.043 248.676 136.216 249.254 136.216ZM253.94 137L255.032 130.196H256.138L255.872 131.82H255.732C255.9 131.325 256.189 130.919 256.6 130.602C257.01 130.285 257.533 130.103 258.168 130.056L258.714 130.014L258.728 130.994L257.944 131.064C257.449 131.111 257.048 131.227 256.74 131.414C256.432 131.591 256.194 131.834 256.026 132.142C255.867 132.45 255.75 132.819 255.676 133.248L255.088 137H253.94ZM265.367 137.126C264.835 137.126 264.396 137.023 264.051 136.818C263.715 136.613 263.477 136.328 263.337 135.964C263.206 135.6 263.178 135.166 263.253 134.662L263.827 131.078H262.483L262.637 130.196H263.967L264.289 128.11H265.423L265.101 130.196H267.257L267.103 131.078H264.947L264.401 134.55C264.317 135.119 264.377 135.53 264.583 135.782C264.788 136.034 265.119 136.16 265.577 136.16C265.735 136.16 265.885 136.146 266.025 136.118C266.165 136.081 266.291 136.043 266.403 136.006L266.515 136.888C266.393 136.953 266.221 137.009 265.997 137.056C265.782 137.103 265.572 137.126 265.367 137.126ZM267.447 137L269.015 127.13H270.149L269.421 131.736H269.253C269.487 131.204 269.827 130.793 270.275 130.504C270.733 130.215 271.274 130.07 271.899 130.07C272.403 130.07 272.823 130.173 273.159 130.378C273.505 130.574 273.747 130.882 273.887 131.302C274.037 131.713 274.06 132.24 273.957 132.884L273.313 137H272.179L272.823 132.884C272.898 132.464 272.898 132.114 272.823 131.834C272.749 131.554 272.609 131.344 272.403 131.204C272.198 131.064 271.918 130.994 271.563 130.994C271.115 130.994 270.723 131.092 270.387 131.288C270.051 131.475 269.781 131.741 269.575 132.086C269.379 132.431 269.244 132.837 269.169 133.304L268.581 137H267.447ZM278.666 137.126C278.022 137.126 277.462 137.005 276.986 136.762C276.51 136.519 276.142 136.174 275.88 135.726C275.628 135.269 275.502 134.732 275.502 134.116C275.502 133.379 275.652 132.707 275.95 132.1C276.249 131.484 276.669 130.994 277.21 130.63C277.752 130.257 278.396 130.07 279.142 130.07C279.852 130.07 280.412 130.233 280.822 130.56C281.242 130.887 281.527 131.316 281.676 131.848C281.826 132.371 281.858 132.935 281.774 133.542L281.732 133.836H276.384L276.496 133.094H281.088L280.836 133.276C280.902 132.837 280.888 132.441 280.794 132.086C280.701 131.731 280.519 131.447 280.248 131.232C279.978 131.017 279.604 130.91 279.128 130.91C278.624 130.91 278.204 131.027 277.868 131.26C277.532 131.484 277.266 131.773 277.07 132.128C276.884 132.483 276.758 132.851 276.692 133.234L276.636 133.57C276.552 134.102 276.58 134.569 276.72 134.97C276.86 135.362 277.098 135.67 277.434 135.894C277.78 136.109 278.209 136.216 278.722 136.216C279.152 136.216 279.553 136.155 279.926 136.034C280.3 135.903 280.636 135.703 280.934 135.432L281.312 136.202C280.995 136.501 280.598 136.729 280.122 136.888C279.646 137.047 279.161 137.126 278.666 137.126ZM289.055 137.126C288.505 137.126 287.991 137.051 287.515 136.902C287.039 136.753 286.652 136.547 286.353 136.286L286.773 135.502C286.997 135.679 287.231 135.824 287.473 135.936C287.725 136.039 287.982 136.118 288.243 136.174C288.514 136.23 288.789 136.258 289.069 136.258C289.573 136.258 289.965 136.16 290.245 135.964C290.535 135.759 290.679 135.474 290.679 135.11C290.679 134.877 290.6 134.685 290.441 134.536C290.292 134.377 290.073 134.265 289.783 134.2L288.453 133.878C287.987 133.766 287.618 133.565 287.347 133.276C287.086 132.977 286.955 132.613 286.955 132.184C286.955 131.783 287.067 131.423 287.291 131.106C287.515 130.779 287.837 130.527 288.257 130.35C288.677 130.163 289.172 130.07 289.741 130.07C290.049 130.07 290.353 130.103 290.651 130.168C290.95 130.233 291.225 130.331 291.477 130.462C291.739 130.593 291.953 130.747 292.121 130.924L291.729 131.694C291.459 131.433 291.151 131.241 290.805 131.12C290.46 130.999 290.091 130.938 289.699 130.938C289.177 130.938 288.766 131.045 288.467 131.26C288.169 131.475 288.019 131.764 288.019 132.128C288.019 132.352 288.089 132.548 288.229 132.716C288.369 132.875 288.579 132.987 288.859 133.052L290.189 133.374C290.684 133.495 291.067 133.696 291.337 133.976C291.617 134.247 291.757 134.601 291.757 135.04C291.757 135.469 291.645 135.843 291.421 136.16C291.197 136.468 290.88 136.706 290.469 136.874C290.068 137.042 289.597 137.126 289.055 137.126ZM296.453 137.126C295.809 137.126 295.249 137.005 294.773 136.762C294.297 136.519 293.929 136.174 293.667 135.726C293.415 135.269 293.289 134.732 293.289 134.116C293.289 133.379 293.439 132.707 293.737 132.1C294.036 131.484 294.456 130.994 294.997 130.63C295.539 130.257 296.183 130.07 296.929 130.07C297.639 130.07 298.199 130.233 298.609 130.56C299.029 130.887 299.314 131.316 299.463 131.848C299.613 132.371 299.645 132.935 299.561 133.542L299.519 133.836H294.171L294.283 133.094H298.875L298.623 133.276C298.689 132.837 298.675 132.441 298.581 132.086C298.488 131.731 298.306 131.447 298.035 131.232C297.765 131.017 297.391 130.91 296.915 130.91C296.411 130.91 295.991 131.027 295.655 131.26C295.319 131.484 295.053 131.773 294.857 132.128C294.671 132.483 294.545 132.851 294.479 133.234L294.423 133.57C294.339 134.102 294.367 134.569 294.507 134.97C294.647 135.362 294.885 135.67 295.221 135.894C295.567 136.109 295.996 136.216 296.509 136.216C296.939 136.216 297.34 136.155 297.713 136.034C298.087 135.903 298.423 135.703 298.721 135.432L299.099 136.202C298.782 136.501 298.385 136.729 297.909 136.888C297.433 137.047 296.948 137.126 296.453 137.126ZM302.743 137.126C302.071 137.126 301.581 136.93 301.273 136.538C300.965 136.137 300.871 135.549 300.993 134.774L302.211 127.13H303.345L302.127 134.774C302.08 135.101 302.08 135.367 302.127 135.572C302.173 135.777 302.276 135.927 302.435 136.02C302.603 136.113 302.817 136.16 303.079 136.16C303.191 136.16 303.298 136.155 303.401 136.146C303.513 136.127 303.625 136.109 303.737 136.09L303.569 137.014C303.447 137.051 303.312 137.079 303.163 137.098C303.023 137.117 302.883 137.126 302.743 137.126ZM307.979 137.126C307.335 137.126 306.775 137.005 306.299 136.762C305.823 136.519 305.454 136.174 305.193 135.726C304.941 135.269 304.815 134.732 304.815 134.116C304.815 133.379 304.964 132.707 305.263 132.1C305.562 131.484 305.982 130.994 306.523 130.63C307.064 130.257 307.708 130.07 308.455 130.07C309.164 130.07 309.724 130.233 310.135 130.56C310.555 130.887 310.84 131.316 310.989 131.848C311.138 132.371 311.171 132.935 311.087 133.542L311.045 133.836H305.697L305.809 133.094H310.401L310.149 133.276C310.214 132.837 310.2 132.441 310.107 132.086C310.014 131.731 309.832 131.447 309.561 131.232C309.29 131.017 308.917 130.91 308.441 130.91C307.937 130.91 307.517 131.027 307.181 131.26C306.845 131.484 306.579 131.773 306.383 132.128C306.196 132.483 306.07 132.851 306.005 133.234L305.949 133.57C305.865 134.102 305.893 134.569 306.033 134.97C306.173 135.362 306.411 135.67 306.747 135.894C307.092 136.109 307.522 136.216 308.035 136.216C308.464 136.216 308.866 136.155 309.239 136.034C309.612 135.903 309.948 135.703 310.247 135.432L310.625 136.202C310.308 136.501 309.911 136.729 309.435 136.888C308.959 137.047 308.474 137.126 307.979 137.126ZM315.262 137.126C314.59 137.126 314.035 137 313.596 136.748C313.157 136.496 312.826 136.141 312.602 135.684C312.387 135.227 312.28 134.699 312.28 134.102C312.28 133.598 312.35 133.108 312.49 132.632C312.63 132.147 312.849 131.713 313.148 131.33C313.447 130.947 313.825 130.644 314.282 130.42C314.739 130.187 315.285 130.07 315.92 130.07C316.368 130.07 316.797 130.145 317.208 130.294C317.619 130.443 317.945 130.644 318.188 130.896L317.782 131.708C317.549 131.475 317.278 131.297 316.97 131.176C316.662 131.055 316.326 130.994 315.962 130.994C315.505 130.994 315.117 131.083 314.8 131.26C314.483 131.437 314.221 131.675 314.016 131.974C313.82 132.273 313.675 132.609 313.582 132.982C313.489 133.346 313.442 133.715 313.442 134.088C313.442 134.723 313.591 135.236 313.89 135.628C314.198 136.011 314.702 136.202 315.402 136.202C315.691 136.202 315.99 136.146 316.298 136.034C316.615 135.913 316.909 135.731 317.18 135.488L317.516 136.328C317.339 136.496 317.124 136.641 316.872 136.762C316.62 136.874 316.354 136.963 316.074 137.028C315.803 137.093 315.533 137.126 315.262 137.126ZM321.463 137.126C320.931 137.126 320.492 137.023 320.147 136.818C319.811 136.613 319.573 136.328 319.433 135.964C319.302 135.6 319.274 135.166 319.349 134.662L319.923 131.078H318.579L318.733 130.196H320.063L320.385 128.11H321.519L321.197 130.196H323.353L323.199 131.078H321.043L320.497 134.55C320.413 135.119 320.473 135.53 320.679 135.782C320.884 136.034 321.215 136.16 321.673 136.16C321.831 136.16 321.981 136.146 322.121 136.118C322.261 136.081 322.387 136.043 322.499 136.006L322.611 136.888C322.489 136.953 322.317 137.009 322.093 137.056C321.878 137.103 321.668 137.126 321.463 137.126ZM326.737 137.126C326.093 137.126 325.533 137.005 325.057 136.762C324.581 136.519 324.212 136.174 323.951 135.726C323.699 135.269 323.573 134.732 323.573 134.116C323.573 133.379 323.722 132.707 324.021 132.1C324.319 131.484 324.739 130.994 325.281 130.63C325.822 130.257 326.466 130.07 327.213 130.07C327.922 130.07 328.482 130.233 328.893 130.56C329.313 130.887 329.597 131.316 329.747 131.848C329.896 132.371 329.929 132.935 329.845 133.542L329.803 133.836H324.455L324.567 133.094H329.159L328.907 133.276C328.972 132.837 328.958 132.441 328.865 132.086C328.771 131.731 328.589 131.447 328.319 131.232C328.048 131.017 327.675 130.91 327.199 130.91C326.695 130.91 326.275 131.027 325.939 131.26C325.603 131.484 325.337 131.773 325.141 132.128C324.954 132.483 324.828 132.851 324.763 133.234L324.707 133.57C324.623 134.102 324.651 134.569 324.791 134.97C324.931 135.362 325.169 135.67 325.505 135.894C325.85 136.109 326.279 136.216 326.793 136.216C327.222 136.216 327.623 136.155 327.997 136.034C328.37 135.903 328.706 135.703 329.005 135.432L329.383 136.202C329.065 136.501 328.669 136.729 328.193 136.888C327.717 137.047 327.231 137.126 326.737 137.126ZM333.642 137.126C333.119 137.126 332.662 137.009 332.27 136.776C331.878 136.533 331.57 136.193 331.346 135.754C331.131 135.315 331.024 134.802 331.024 134.214C331.024 133.458 331.155 132.767 331.416 132.142C331.687 131.507 332.074 131.003 332.578 130.63C333.091 130.257 333.707 130.07 334.426 130.07C334.977 130.07 335.467 130.205 335.896 130.476C336.325 130.747 336.619 131.167 336.778 131.736L336.68 131.722L337.394 127.13H338.528L336.96 137H335.854L336.078 135.558H336.218C336.05 135.875 335.84 136.151 335.588 136.384C335.345 136.617 335.056 136.799 334.72 136.93C334.393 137.061 334.034 137.126 333.642 137.126ZM334.006 136.216C334.529 136.216 334.967 136.071 335.322 135.782C335.677 135.493 335.947 135.105 336.134 134.62C336.321 134.135 336.414 133.603 336.414 133.024C336.414 132.352 336.251 131.843 335.924 131.498C335.597 131.153 335.149 130.98 334.58 130.98C334.067 130.98 333.628 131.125 333.264 131.414C332.909 131.703 332.639 132.086 332.452 132.562C332.265 133.038 332.172 133.575 332.172 134.172C332.172 134.835 332.335 135.343 332.662 135.698C332.989 136.043 333.437 136.216 334.006 136.216ZM344.686 137L342.852 130.196H344.028L345.512 136.16H345.134L348.55 130.196H349.768L345.764 137H344.686ZM353.055 137.126C352.411 137.126 351.851 137.005 351.375 136.762C350.899 136.519 350.53 136.174 350.269 135.726C350.017 135.269 349.891 134.732 349.891 134.116C349.891 133.379 350.04 132.707 350.339 132.1C350.638 131.484 351.058 130.994 351.599 130.63C352.14 130.257 352.784 130.07 353.531 130.07C354.24 130.07 354.8 130.233 355.211 130.56C355.631 130.887 355.916 131.316 356.065 131.848C356.214 132.371 356.247 132.935 356.163 133.542L356.121 133.836H350.773L350.885 133.094H355.477L355.225 133.276C355.29 132.837 355.276 132.441 355.183 132.086C355.09 131.731 354.908 131.447 354.637 131.232C354.366 131.017 353.993 130.91 353.517 130.91C353.013 130.91 352.593 131.027 352.257 131.26C351.921 131.484 351.655 131.773 351.459 132.128C351.272 132.483 351.146 132.851 351.081 133.234L351.025 133.57C350.941 134.102 350.969 134.569 351.109 134.97C351.249 135.362 351.487 135.67 351.823 135.894C352.168 136.109 352.598 136.216 353.111 136.216C353.54 136.216 353.942 136.155 354.315 136.034C354.688 135.903 355.024 135.703 355.323 135.432L355.701 136.202C355.384 136.501 354.987 136.729 354.511 136.888C354.035 137.047 353.55 137.126 353.055 137.126ZM359.848 137.126C359.298 137.126 358.784 137.051 358.308 136.902C357.832 136.753 357.445 136.547 357.146 136.286L357.566 135.502C357.79 135.679 358.024 135.824 358.266 135.936C358.518 136.039 358.775 136.118 359.036 136.174C359.307 136.23 359.582 136.258 359.862 136.258C360.366 136.258 360.758 136.16 361.038 135.964C361.328 135.759 361.472 135.474 361.472 135.11C361.472 134.877 361.393 134.685 361.234 134.536C361.085 134.377 360.866 134.265 360.576 134.2L359.246 133.878C358.78 133.766 358.411 133.565 358.14 133.276C357.879 132.977 357.748 132.613 357.748 132.184C357.748 131.783 357.86 131.423 358.084 131.106C358.308 130.779 358.63 130.527 359.05 130.35C359.47 130.163 359.965 130.07 360.534 130.07C360.842 130.07 361.146 130.103 361.444 130.168C361.743 130.233 362.018 130.331 362.27 130.462C362.532 130.593 362.746 130.747 362.914 130.924L362.522 131.694C362.252 131.433 361.944 131.241 361.598 131.12C361.253 130.999 360.884 130.938 360.492 130.938C359.97 130.938 359.559 131.045 359.26 131.26C358.962 131.475 358.812 131.764 358.812 132.128C358.812 132.352 358.882 132.548 359.022 132.716C359.162 132.875 359.372 132.987 359.652 133.052L360.982 133.374C361.477 133.495 361.86 133.696 362.13 133.976C362.41 134.247 362.55 134.601 362.55 135.04C362.55 135.469 362.438 135.843 362.214 136.16C361.99 136.468 361.673 136.706 361.262 136.874C360.861 137.042 360.39 137.126 359.848 137.126ZM366.588 137.126C366.038 137.126 365.524 137.051 365.048 136.902C364.572 136.753 364.185 136.547 363.886 136.286L364.306 135.502C364.53 135.679 364.764 135.824 365.006 135.936C365.258 136.039 365.515 136.118 365.776 136.174C366.047 136.23 366.322 136.258 366.602 136.258C367.106 136.258 367.498 136.16 367.778 135.964C368.068 135.759 368.212 135.474 368.212 135.11C368.212 134.877 368.133 134.685 367.974 134.536C367.825 134.377 367.606 134.265 367.316 134.2L365.986 133.878C365.52 133.766 365.151 133.565 364.88 133.276C364.619 132.977 364.488 132.613 364.488 132.184C364.488 131.783 364.6 131.423 364.824 131.106C365.048 130.779 365.37 130.527 365.79 130.35C366.21 130.163 366.705 130.07 367.274 130.07C367.582 130.07 367.886 130.103 368.184 130.168C368.483 130.233 368.758 130.331 369.01 130.462C369.272 130.593 369.486 130.747 369.654 130.924L369.262 131.694C368.992 131.433 368.684 131.241 368.338 131.12C367.993 130.999 367.624 130.938 367.232 130.938C366.71 130.938 366.299 131.045 366 131.26C365.702 131.475 365.552 131.764 365.552 132.128C365.552 132.352 365.622 132.548 365.762 132.716C365.902 132.875 366.112 132.987 366.392 133.052L367.722 133.374C368.217 133.495 368.6 133.696 368.87 133.976C369.15 134.247 369.29 134.601 369.29 135.04C369.29 135.469 369.178 135.843 368.954 136.16C368.73 136.468 368.413 136.706 368.002 136.874C367.601 137.042 367.13 137.126 366.588 137.126ZM373.987 137.126C373.343 137.126 372.783 137.005 372.307 136.762C371.831 136.519 371.462 136.174 371.201 135.726C370.949 135.269 370.823 134.732 370.823 134.116C370.823 133.379 370.972 132.707 371.271 132.1C371.569 131.484 371.989 130.994 372.531 130.63C373.072 130.257 373.716 130.07 374.463 130.07C375.172 130.07 375.732 130.233 376.143 130.56C376.563 130.887 376.847 131.316 376.997 131.848C377.146 132.371 377.179 132.935 377.095 133.542L377.053 133.836H371.705L371.817 133.094H376.409L376.157 133.276C376.222 132.837 376.208 132.441 376.115 132.086C376.021 131.731 375.839 131.447 375.569 131.232C375.298 131.017 374.925 130.91 374.449 130.91C373.945 130.91 373.525 131.027 373.189 131.26C372.853 131.484 372.587 131.773 372.391 132.128C372.204 132.483 372.078 132.851 372.013 133.234L371.957 133.57C371.873 134.102 371.901 134.569 372.041 134.97C372.181 135.362 372.419 135.67 372.755 135.894C373.1 136.109 373.529 136.216 374.043 136.216C374.472 136.216 374.873 136.155 375.247 136.034C375.62 135.903 375.956 135.703 376.255 135.432L376.633 136.202C376.315 136.501 375.919 136.729 375.443 136.888C374.967 137.047 374.481 137.126 373.987 137.126ZM380.276 137.126C379.604 137.126 379.114 136.93 378.806 136.538C378.498 136.137 378.405 135.549 378.526 134.774L379.744 127.13H380.878L379.66 134.774C379.613 135.101 379.613 135.367 379.66 135.572C379.707 135.777 379.809 135.927 379.968 136.02C380.136 136.113 380.351 136.16 380.612 136.16C380.724 136.16 380.831 136.155 380.934 136.146C381.046 136.127 381.158 136.109 381.27 136.09L381.102 137.014C380.981 137.051 380.845 137.079 380.696 137.098C380.556 137.117 380.416 137.126 380.276 137.126ZM382.287 137L382.511 135.572H383.939L383.715 137H382.287Z" fill="#90A2A2"/>
</svg>
