<svg width="33" height="33" viewBox="0 0 33 33" fill="none" xmlns="http://www.w3.org/2000/svg">
<path d="M16.4841 9.58712C16.488 9.57311 16.4923 9.56629 16.4941 9.56366C16.4961 9.56088 16.498 9.55907 16.5002 9.55748C16.5054 9.55378 16.5174 9.54834 16.5352 9.54834C16.5529 9.54834 16.5649 9.55378 16.5701 9.55748C16.5723 9.55907 16.5742 9.56087 16.5762 9.56365C16.578 9.56629 16.5823 9.57311 16.5862 9.58712L20.5626 23.9023C20.5663 23.9155 20.5663 23.9233 20.566 23.9266C20.5658 23.9301 20.5651 23.9328 20.564 23.9354C20.5614 23.9415 20.5543 23.9521 20.5399 23.9612C20.5255 23.9703 20.5129 23.9722 20.5063 23.9719C20.5034 23.9718 20.5007 23.9713 20.4974 23.97C20.4943 23.9688 20.4873 23.9655 20.4769 23.9565L17.2248 21.138C16.829 20.795 16.2413 20.795 15.8456 21.138L12.5934 23.9565C12.583 23.9655 12.576 23.9688 12.5729 23.97C12.5696 23.9713 12.5669 23.9718 12.564 23.972C12.5574 23.9722 12.5448 23.9703 12.5304 23.9612C12.516 23.9522 12.5089 23.9415 12.5063 23.9355C12.5052 23.9328 12.5045 23.9301 12.5043 23.9266C12.5041 23.9233 12.504 23.9156 12.5077 23.9023L16.4841 9.58712Z" fill="white" stroke="#0E3858"/>
</svg>
