<svg width="32" height="32" viewBox="0 0 32 32" fill="none" xmlns="http://www.w3.org/2000/svg">
<path d="M29.8591 24.0027C25.4408 31.6554 15.6554 34.2774 8.00267 29.8591C0.349989 25.4408 -2.27201 15.6554 2.14627 8.00267C6.56454 0.349989 16.35 -2.27201 24.0027 2.14627C31.6554 6.56454 34.2774 16.35 29.8591 24.0027Z" fill="#0E3858" fill-opacity="0.2"/>
<path d="M22.9324 20.0027C20.7232 23.829 15.8305 25.14 12.0042 22.9309C8.17782 20.7218 6.86681 15.829 9.07595 12.0027C11.2851 8.17635 16.1778 6.86535 20.0042 9.07449C23.8305 11.2836 25.1415 16.1764 22.9324 20.0027Z" fill="#0E3858" fill-opacity="0.2"/>
<path d="M15.4672 8.91799C15.6172 8.37804 16.3828 8.37804 16.5328 8.91798L20.5092 23.2332C20.6558 23.7609 20.0282 24.1577 19.6143 23.799L16.3622 20.9805C16.1543 20.8004 15.8457 20.8004 15.6379 20.9805L12.3857 23.799C11.9718 24.1578 11.3442 23.7609 11.4908 23.2332L15.4672 8.91799Z" fill="white"/>
</svg>
