<svg width="22" height="19" viewBox="0 0 22 19" fill="none" xmlns="http://www.w3.org/2000/svg">
<path d="M14.5423 4.42768C13.9006 4.4273 13.2617 4.51338 12.6429 4.68362C12.3987 4.28509 12.102 3.92121 11.7607 3.60175L12.6523 2.32956C12.7088 2.24886 12.7489 2.15782 12.7702 2.06163C12.7915 1.96545 12.7937 1.86601 12.7766 1.76898C12.7595 1.67196 12.7234 1.57926 12.6705 1.49617C12.6176 1.41308 12.5488 1.34122 12.4681 1.28471C12.3874 1.2282 12.2963 1.18814 12.2002 1.16682C12.104 1.14549 12.0045 1.14332 11.9075 1.16043C11.8105 1.17754 11.7178 1.21358 11.6347 1.26652C11.5516 1.31945 11.4798 1.38823 11.4232 1.46893L10.5317 2.74018C9.79852 2.37 8.98862 2.17732 8.16731 2.17768C8.11293 2.17768 8.05856 2.17768 8.00418 2.17768L7.73324 0.650496C7.71902 0.550986 7.68494 0.455349 7.63303 0.36927C7.58112 0.283191 7.51243 0.208426 7.43106 0.149417C7.34968 0.0904084 7.25727 0.0483606 7.15932 0.0257725C7.06137 0.00318449 6.95988 0.000516995 6.86087 0.0179287C6.76187 0.0353404 6.66738 0.0724759 6.58301 0.127128C6.49865 0.181781 6.42613 0.252835 6.36977 0.336069C6.31341 0.419302 6.27435 0.513016 6.25492 0.611642C6.2355 0.710268 6.23609 0.811793 6.25668 0.910183L6.52668 2.44206C5.69489 2.71717 4.945 3.19572 4.34512 3.83425L3.06824 2.94081C2.9876 2.88291 2.89628 2.8416 2.79955 2.81926C2.70282 2.79693 2.60263 2.79402 2.50477 2.8107C2.40691 2.82738 2.31334 2.86333 2.22948 2.91645C2.14561 2.96957 2.07313 3.03881 2.01623 3.12016C1.95934 3.2015 1.91915 3.29334 1.89801 3.39033C1.87688 3.48732 1.8752 3.58755 1.89309 3.68519C1.91098 3.78284 1.94808 3.87596 2.00223 3.95916C2.05638 4.04236 2.12651 4.11398 2.20855 4.16987L3.4798 5.06237C3.10831 5.79538 2.91556 6.60591 2.9173 7.42768C2.9173 7.48112 2.9173 7.5355 2.9173 7.58893L1.39012 7.85893C1.20527 7.89132 1.03927 7.99182 0.924904 8.14061C0.810535 8.2894 0.756102 8.47565 0.772349 8.66261C0.788596 8.84958 0.874343 9.02365 1.01266 9.15048C1.15098 9.27731 1.33183 9.34767 1.51949 9.34768C1.56317 9.34762 1.60676 9.34386 1.6498 9.33643L3.1798 9.06643C3.31423 9.47572 3.49876 9.86681 3.72918 10.2308C3.0118 10.8971 2.51168 11.7641 2.29396 12.7187C2.07624 13.6732 2.15101 14.6713 2.50853 15.5828C2.86605 16.4943 3.48974 17.277 4.2984 17.829C5.10706 18.381 6.0632 18.6768 7.04231 18.6777H14.5423C16.432 18.6777 18.2442 17.927 19.5804 16.5908C20.9166 15.2546 21.6673 13.4424 21.6673 11.5527C21.6673 9.66302 20.9166 7.85074 19.5804 6.51455C18.2442 5.17835 16.432 4.42768 14.5423 4.42768ZM4.4173 7.42768C4.41775 6.63349 4.67034 5.85994 5.13866 5.21851C5.60698 4.57709 6.26685 4.10091 7.02318 3.8586C7.77951 3.61629 8.59324 3.62036 9.34711 3.87023C10.101 4.1201 10.7561 4.60285 11.2179 5.24893C9.68801 6.05406 8.50166 7.38629 7.87856 8.99893C6.89263 8.82875 5.87822 8.9652 4.9723 9.38987C4.60961 8.79963 4.41751 8.12045 4.4173 7.42768ZM14.5423 17.1777H7.04231C6.5807 17.1768 6.12418 17.0813 5.70097 16.897C5.27776 16.7127 4.89685 16.4435 4.5818 16.1062C4.26675 15.7688 4.02426 15.3704 3.86932 14.9355C3.71438 14.5007 3.65028 14.0387 3.68099 13.5782C3.7117 13.1176 3.83657 12.6682 4.04786 12.2578C4.25916 11.8474 4.5524 11.4847 4.90945 11.1921C5.2665 10.8996 5.67977 10.6834 6.1237 10.5569C6.56764 10.4304 7.0328 10.3963 7.49043 10.4567C7.45574 10.6789 7.43137 10.9058 7.41824 11.1346C7.40681 11.3335 7.47485 11.5288 7.60742 11.6775C7.73998 11.8263 7.92621 11.9162 8.12512 11.9277C8.32403 11.9391 8.51934 11.8711 8.66808 11.7385C8.81682 11.6059 8.90681 11.4197 8.91824 11.2208C8.93928 10.8467 8.99834 10.4757 9.09449 10.1136C9.09449 10.0986 9.10293 10.0836 9.10574 10.0686C9.3814 9.0556 9.9348 8.13982 10.7034 7.4247C11.4721 6.70958 12.4253 6.22359 13.4556 6.02162C14.4858 5.81964 15.552 5.90972 16.5338 6.28169C17.5155 6.65366 18.3737 7.2927 19.0115 8.12665C19.6492 8.9606 20.0411 9.95624 20.1429 11.0012C20.2447 12.0461 20.0523 13.0986 19.5875 14.04C19.1227 14.9813 18.4039 15.774 17.5124 16.3284C16.6209 16.8829 15.5922 17.177 14.5423 17.1777Z" fill="black"/>
</svg>
