<svg width="22" height="17" viewBox="0 0 22 17" fill="none" xmlns="http://www.w3.org/2000/svg">
<path d="M16.0859 13.5066C16.0859 14.3022 15.7699 15.0653 15.2073 15.6279C14.6446 16.1905 13.8816 16.5066 13.0859 16.5066C11.8016 16.5066 10.5594 15.6694 10.1328 14.5172C10.0679 14.3317 10.0784 14.1282 10.162 13.9503C10.2457 13.7725 10.3958 13.6346 10.5801 13.5663C10.7643 13.498 10.9681 13.5047 11.1474 13.5851C11.3267 13.6654 11.4674 13.813 11.5391 13.996C11.7491 14.5632 12.4297 15.0066 13.0859 15.0066C13.4838 15.0066 13.8653 14.8486 14.1466 14.5673C14.4279 14.2859 14.5859 13.9044 14.5859 13.5066C14.5859 13.1088 14.4279 12.7272 14.1466 12.4459C13.8653 12.1646 13.4838 12.0066 13.0859 12.0066H2.58594C2.38703 12.0066 2.19626 11.9276 2.05561 11.7869C1.91496 11.6463 1.83594 11.4555 1.83594 11.2566C1.83594 11.0577 1.91496 10.8669 2.05561 10.7263C2.19626 10.5856 2.38703 10.5066 2.58594 10.5066H13.0859C13.8816 10.5066 14.6446 10.8227 15.2073 11.3853C15.7699 11.9479 16.0859 12.7109 16.0859 13.5066ZM10.0859 6.00659C10.8816 6.00659 11.6446 5.69052 12.2073 5.12791C12.7699 4.5653 13.0859 3.80224 13.0859 3.00659C13.0859 2.21094 12.7699 1.44788 12.2073 0.885271C11.6446 0.322662 10.8816 0.0065918 10.0859 0.0065918C8.80156 0.0065918 7.55937 0.843779 7.13281 1.99597C7.0679 2.18146 7.0784 2.38503 7.16204 2.56287C7.24568 2.74071 7.39578 2.87861 7.58006 2.94692C7.76433 3.01522 7.96805 3.00847 8.1474 2.92811C8.32675 2.84775 8.46738 2.70021 8.53906 2.51722C8.74906 1.95003 9.42969 1.50659 10.0859 1.50659C10.4838 1.50659 10.8653 1.66463 11.1466 1.94593C11.4279 2.22724 11.5859 2.60877 11.5859 3.00659C11.5859 3.40442 11.4279 3.78595 11.1466 4.06725C10.8653 4.34856 10.4838 4.50659 10.0859 4.50659H1.08594C0.887025 4.50659 0.69626 4.58561 0.555607 4.72626C0.414955 4.86691 0.335938 5.05768 0.335938 5.25659C0.335938 5.4555 0.414955 5.64627 0.555607 5.78692C0.69626 5.92757 0.887025 6.00659 1.08594 6.00659H10.0859ZM18.3359 3.00659C17.0516 3.00659 15.8094 3.84378 15.3828 4.99597C15.3179 5.18147 15.3284 5.38503 15.412 5.56287C15.4957 5.74071 15.6458 5.87861 15.8301 5.94692C16.0143 6.01522 16.2181 6.00847 16.3974 5.92811C16.5767 5.84775 16.7174 5.7002 16.7891 5.51722C16.9991 4.95003 17.6797 4.50659 18.3359 4.50659C18.7338 4.50659 19.1153 4.66463 19.3966 4.94593C19.6779 5.22724 19.8359 5.60877 19.8359 6.00659C19.8359 6.40442 19.6779 6.78595 19.3966 7.06725C19.1153 7.34856 18.7338 7.50659 18.3359 7.50659H1.83594C1.63703 7.50659 1.44626 7.58561 1.30561 7.72626C1.16496 7.86691 1.08594 8.05768 1.08594 8.25659C1.08594 8.4555 1.16496 8.64627 1.30561 8.78692C1.44626 8.92758 1.63703 9.00659 1.83594 9.00659H18.3359C19.1316 9.00659 19.8946 8.69052 20.4573 8.12791C21.0199 7.5653 21.3359 6.80224 21.3359 6.00659C21.3359 5.21094 21.0199 4.44788 20.4573 3.88527C19.8946 3.32266 19.1316 3.00659 18.3359 3.00659Z" fill="black"/>
</svg>
